<svg width="49" height="44" viewBox="0 0 49 44" fill="none" xmlns="http://www.w3.org/2000/svg">
<path fill-rule="evenodd" clip-rule="evenodd" d="M33.3449 0C36.1344 0 38.3979 2.26122 38.3979 5.05298C38.3979 7.84474 36.1365 10.106 33.3449 10.106C30.5555 10.106 28.292 7.84474 28.292 5.05298C28.292 2.26122 30.5533 0 33.3449 0ZM27.8618 29.1318C36.3966 24.8795 34.8112 17.5412 34.8112 17.5412L24.6997 17.0552V14.3313L48.7917 9.63432C48.7015 27.1587 38.6823 34.0912 31.5589 36.1663C25.3379 37.9783 23.4251 40.6571 22.1619 42.4261L22.1605 42.4282C22.1442 42.4508 22.1281 42.4734 22.1121 42.4957C21.9462 42.7271 21.7934 42.9403 21.6406 43.1353C21.6406 35.3596 24.8758 30.6213 27.8618 29.1318Z" fill="url(#paint0_linear_11013_17089)"/>
<path fill-rule="evenodd" clip-rule="evenodd" d="M20.1623 5.05298C20.1623 7.8426 17.9004 10.106 15.1083 10.106C12.3161 10.106 10.0563 7.8426 10.0563 5.05298C10.0563 2.26336 12.3182 0 15.1083 0C17.8983 0 20.1623 2.26122 20.1623 5.05298ZM24.9337 14.3289V17.0528L14.8242 17.5412C14.8242 17.5412 13.241 24.877 21.7737 29.1318C24.7597 30.6213 27.9948 35.3596 27.9948 43.1353C27.8348 42.931 27.6728 42.7046 27.4994 42.4623L27.475 42.4282L27.4735 42.4261C26.2104 40.6571 24.2975 37.9783 18.0766 36.1663C10.9532 34.0912 0.936123 27.1587 0.84375 9.63432L24.9337 14.3289Z" fill="url(#paint1_linear_11013_17089)"/>
<defs>
<linearGradient id="paint0_linear_11013_17089" x1="23.1985" y1="8.01962" x2="49.6873" y2="23.7866" gradientUnits="userSpaceOnUse">
<stop offset="0.374951" stop-color="#C400FF"/>
<stop offset="1" stop-color="#FB2B68"/>
</linearGradient>
<linearGradient id="paint1_linear_11013_17089" x1="0.846386" y1="27.5989" x2="27.9834" y2="27.5989" gradientUnits="userSpaceOnUse">
<stop stop-color="#FFCC00"/>
<stop offset="1" stop-color="#FF6D00"/>
</linearGradient>
</defs>
</svg>
