<svg width="147" height="139" viewBox="0 0 147 139" fill="none" xmlns="http://www.w3.org/2000/svg">
<g opacity="0.6">
<g clip-path="url(#clip0_11013_22095)">
<path fill-rule="evenodd" clip-rule="evenodd" d="M145.747 69.2237C144.106 70.5984 138.43 70.9574 137.977 67.1014C137.523 63.2341 140.265 54.8837 138.613 52.9136C136.973 50.9323 129.106 47.7012 124.078 50.2211C119.05 52.7319 114.205 67.8126 114.108 75.3564C114.02 82.9002 122.824 93.791 122.861 99.2693C122.919 109.24 106.704 129.683 94.0912 131.476C81.4695 133.275 71.9922 119.987 71.9922 119.987L74.4055 113.989L74.5975 113.525C74.5975 113.525 75.0603 114.321 75.9187 115.486C77.3764 117.495 79.9817 120.624 83.2835 122.755C85.706 124.327 88.515 125.352 91.5252 125.011C101.042 123.93 116.32 109.733 116.764 101.487C116.898 98.9558 116.359 96.4722 115.48 94.0477C113.279 87.8673 108.964 82.0686 108.492 76.9311C107.625 67.5286 112.923 47.6807 120.054 43.6248C120.054 43.6248 120.064 43.6248 120.082 43.6157C120.429 43.3976 120.797 43.2453 121.153 43.1226C128.835 40.6118 141.721 43.8429 144.74 49.7666C145.966 52.1729 146.633 55.604 146.883 58.9214C147.253 63.784 146.732 68.4102 145.747 69.2237Z" fill="#812730"/>
<path opacity="0.8" fill-rule="evenodd" clip-rule="evenodd" d="M145.747 69.2235C144.106 70.5982 138.43 70.9572 137.977 67.1013C137.523 63.2339 140.265 54.8835 138.613 52.9135C136.973 50.9321 129.106 47.701 124.078 50.2209C119.05 52.7317 114.205 67.8125 114.108 75.3563C114.02 82.9001 122.824 93.7908 122.861 99.2692C122.919 109.24 106.704 129.683 94.0912 131.476C81.4695 133.275 71.9922 119.987 71.9922 119.987L74.4055 113.989L75.921 115.486C77.3787 117.495 79.984 120.624 83.2858 122.755C83.2858 122.755 86.9624 130.49 96.9233 128.963C106.893 127.436 120.568 109.201 121.244 102.291C121.773 96.9083 117.421 94.7384 115.482 94.0453C113.282 87.8649 108.967 82.0662 108.495 76.9286C107.625 67.5285 112.923 47.6806 120.054 43.6246H120.064C120.064 43.6246 118.317 47.142 120.151 48.0986C121.975 49.0462 125.904 47.9759 132.581 48.6962C139.259 49.4074 140.448 51.6161 140.631 54.7722C140.804 57.842 145.418 60.8754 146.885 58.9235C147.253 63.7838 146.732 68.4101 145.747 69.2235Z" fill="#EA845D" fill-opacity="0.39"/>
<path fill-rule="evenodd" clip-rule="evenodd" d="M146.887 58.9213C146.887 58.9213 145.024 50.3732 142.002 48.06C138.971 45.7469 132.902 43.2543 127.826 42.943C123.068 42.6499 120.394 43.511 120.086 43.6156C120.433 43.3974 120.801 43.2452 121.157 43.1225C128.839 40.6117 141.725 43.8428 144.744 49.7665C145.97 52.1728 146.637 55.6038 146.887 58.9213Z" fill="#FFD4A6"/>
</g>
<path d="M27.5418 120.169H8.87299C3.97196 120.169 0 124.1 0 128.949C0 133.798 3.97196 137.728 8.87299 137.728H30.8341L27.5418 120.169Z" fill="#FF9566"/>
<path d="M2.05469 123.709L13.6748 105.068L30.9236 107.353L28.3657 129.289L2.05469 123.709Z" fill="#FF9566"/>
<path d="M22.9952 120.566H8.89844" stroke="#9D3D3A" stroke-width="1.1396" stroke-miterlimit="10" stroke-linecap="round" stroke-linejoin="round"/>
<path d="M86.2397 120.566H104.964C109.88 120.566 113.864 124.468 113.864 129.283C113.864 134.098 109.88 138 104.964 138H82.9375L86.2397 120.566Z" fill="#FF9566"/>
<path d="M111.606 123.488L96.9717 101.399L82.9375 107.353L85.4954 129.289L111.606 123.488Z" fill="#FF9566"/>
<path d="M87.2969 120.566H104.958" stroke="#9D3D3A" stroke-width="1.1396" stroke-miterlimit="10" stroke-linecap="round" stroke-linejoin="round"/>
<path d="M55.3649 72.3746C55.3649 72.3746 36.7215 72.3746 23 85.594V122.637C23 122.637 88.6742 123.617 88.6742 122.637C88.6742 121.656 88.693 83.1437 88.693 83.1437C88.693 83.1437 75.2529 72.3746 55.3649 72.3746Z" fill="#829CED"/>
<path d="M25.7746 83.1437C25.7746 83.1437 15.6429 91.1562 4.96094 108.798C4.96094 108.798 7.26244 119.004 27.163 120.572L25.7746 83.1437Z" fill="#829CED"/>
<path d="M88.6853 83.1437C88.6853 83.1437 98.8169 91.1562 109.499 108.798C109.499 108.798 107.197 119.004 87.2969 120.572L88.6853 83.1437Z" fill="#829CED"/>
<path d="M92.141 138.058H26.2832C24.4692 138.058 23 136.622 23 134.849V94.2091C23 92.436 24.4692 91 26.2832 91H92.141C93.9551 91 95.4242 92.436 95.4242 94.2091V134.849C95.4242 136.622 93.9551 138.058 92.141 138.058Z" fill="#F1F1F1"/>
<path d="M62.1178 64.5703H49.2344V78.7025H62.1178V64.5703Z" fill="#9D3D3A"/>
<path fill-rule="evenodd" clip-rule="evenodd" d="M97.9478 44.8887C97.7485 46.4744 97.3062 48.1576 96.4922 49.6376C94.4385 53.3681 91.278 55.8483 87.9951 56.0963C84.7121 56.3443 83.6987 52.7297 83.6987 52.7297C83.6987 52.7297 82.1995 44.8541 82.6937 43.057C82.918 42.2154 83.6551 40.6114 84.6955 39.0521L85.0152 38.6089C86.1594 37.0049 87.6566 35.527 89.3116 35.0574C92.7067 34.11 97.1338 38.0255 97.6779 39.4241C97.7215 39.5481 97.7734 39.6905 97.8087 39.8673C98.0683 40.9021 98.2157 42.807 97.9478 44.8887Z" fill="#FF9566"/>
<path opacity="0.8" fill-rule="evenodd" clip-rule="evenodd" d="M84.5547 44.9596C84.5547 44.9596 91.7748 37.6492 94.36 38.7104C96.9453 39.7716 97.0263 44.177 96.5757 46.8198C96.1251 49.4626 92.35 53.4919 92.35 53.4919C92.35 53.4919 94.6071 50.4892 95.2218 47.4581C95.8364 44.427 94.0735 41.1499 92.9646 41.215C91.8578 41.28 90.0928 42.8738 89.8872 43.2947C89.6816 43.7135 91.3636 44.4514 91.6107 46.0554C91.8578 47.6594 90.3793 50.4445 89.4781 50.5421C88.5748 50.6376 87.1815 49.7147 87.1607 48.5823C87.14 47.45 88.0017 45.0999 87.4265 44.7218C86.8534 44.3437 84.5547 44.9596 84.5547 44.9596Z" fill="#9A3C39"/>
<path opacity="0.58" fill-rule="evenodd" clip-rule="evenodd" d="M84.5547 44.9597C84.5547 44.9597 86.4962 44.0916 87.4265 44.7218C88.3568 45.352 86.7267 47.6859 87.4265 48.9036C88.1263 50.1213 89.2746 50.595 90.344 49.1841C91.4114 47.7712 90.9545 45.594 90.0533 44.4941C89.15 43.3943 87.1607 42.5446 87.1607 42.5446C87.1607 42.5446 84.9098 44.484 84.5547 44.9597Z" fill="#9A3C39"/>
<path fill-rule="evenodd" clip-rule="evenodd" d="M14.0108 44.8887C14.2101 46.4744 14.6524 48.1576 15.4664 49.6376C17.5201 53.3681 20.6806 55.8483 23.9636 56.0963C27.2465 56.3443 28.2599 52.7297 28.2599 52.7297C28.2599 52.7297 29.7591 44.8541 29.2649 43.057C29.0407 42.2154 28.3035 40.6114 27.2632 39.0521L26.9434 38.6089C25.7992 37.0049 24.302 35.527 22.647 35.0574C19.2519 34.11 14.8248 38.0255 14.2807 39.4241C14.2371 39.5481 14.1852 39.6905 14.1499 39.8673C13.8883 40.9021 13.7408 42.807 14.0108 44.8887Z" fill="#FF9566"/>
<path fill-rule="evenodd" clip-rule="evenodd" d="M27.403 44.9599C27.403 44.9599 20.183 37.6494 17.5977 38.7106C15.0124 39.7718 14.9314 44.1772 15.3821 46.82C15.8327 49.4628 19.6078 53.4921 19.6078 53.4921C19.6078 53.4921 17.3506 50.4895 16.7359 47.4584C16.1213 44.4273 17.8843 41.1502 18.9931 41.2152C20.0999 41.2803 21.865 42.8741 22.0705 43.2949C22.2761 43.7137 20.5941 44.4517 20.347 46.0556C20.102 47.6596 21.5784 50.4448 22.4796 50.5423C23.3829 50.6379 24.7762 49.7149 24.797 48.5826C24.8178 47.4502 23.956 45.1002 24.5312 44.722C25.1064 44.3439 27.403 44.9599 27.403 44.9599Z" fill="#AA4A40"/>
<path fill-rule="evenodd" clip-rule="evenodd" d="M27.4001 44.9598C27.4001 44.9598 25.4586 44.0917 24.5283 44.722C23.598 45.3522 25.2281 47.686 24.5283 48.9037C23.8285 50.1214 22.6802 50.5951 21.6108 49.1843C20.5435 47.7714 21.0003 45.5941 21.9015 44.4943C22.8048 43.3944 24.7941 42.5447 24.7941 42.5447C24.7941 42.5447 27.0451 44.4841 27.4001 44.9598Z" fill="#AA4A40"/>
<path fill-rule="evenodd" clip-rule="evenodd" d="M87.0888 20.4348C87.0888 20.7667 87.0286 21.292 86.925 21.9639V21.972C86.3796 25.531 84.6503 33.1905 84.3041 38.0566C83.8977 43.849 84.0096 56.1792 82.3674 59.0764C82.3425 59.1192 82.3156 59.1701 82.2803 59.2128C80.1612 62.2017 62.2586 69.3787 55.3746 69.3787C49.3801 69.3787 35.5768 63.9262 30.7518 60.5464C29.9473 59.9865 29.3936 59.4857 29.1593 59.0764C27.8613 56.792 27.6623 48.6215 27.43 42.4401V42.432C27.3699 40.7848 27.2994 39.2721 27.2144 38.0586C26.9117 33.7524 25.5183 27.2738 24.8278 23.3667L24.8112 23.2567C24.5769 21.9578 24.4297 20.9642 24.4297 20.4369C24.4297 19.5288 26.808 15.8334 31.1416 11.9446C31.1416 11.9446 31.1499 11.9446 31.1499 11.9365C31.1665 11.9283 31.1851 11.9019 31.2183 11.8774C31.7802 11.3766 32.3691 10.8839 32.9829 10.3993C32.9995 10.383 33.0264 10.3647 33.0513 10.3402C38.2558 6.18472 45.6333 2.2267 54.68 1.65051C54.68 1.65051 56.938 -1.40759 60.2763 0.801487L56.938 2.20227C69.7128 3.01668 79.1058 10.2954 83.7836 15.4669C85.938 17.8613 87.0888 19.7975 87.0888 20.4348Z" fill="#9D3D3A"/>
<path fill-rule="evenodd" clip-rule="evenodd" d="M82.2221 59.0932C82.1973 59.1359 82.1703 59.1867 82.1351 59.2294C80.0167 62.2134 62.1201 69.3786 55.2384 69.3786C48.253 69.3786 30.6673 61.9857 29.0319 59.0932C28.323 56.8044 29.8797 43.6448 29.8797 41.9577C29.8797 40.2706 27.9084 28.3062 28.0722 26.1373C28.2359 23.9664 34.6512 16.5228 38.801 16.2097C43.0295 15.8967 54.1211 18.1855 56.1711 18.1855C58.2108 18.1855 66.5973 15.1324 70.9129 16.2605C74.4926 17.1935 80.4665 21.2894 81.8076 25.0112C82.6885 27.4606 81.393 42.9781 81.8076 45.521C82.2139 48.0618 82.9912 57.2191 82.2221 59.0932Z" fill="#FF9566"/>
<path opacity="0.18" fill-rule="evenodd" clip-rule="evenodd" d="M78.9158 20.4004C78.6125 20.1421 73.6553 16.1246 69.876 15.5294C65.9763 14.9094 59.1222 17.6931 56.3734 17.7365C53.6268 17.7799 43.2781 15.3661 38.9628 15.7278C34.6475 16.0894 30.2699 22.1405 30.2699 22.1405C30.3821 24.8044 34.0305 25.8563 34.0305 25.8563C37.8616 25.3727 47.3149 21.659 47.3149 21.659C47.3149 21.659 49.3863 48.244 48.8586 50.0543C48.3205 51.873 43.2344 54.572 37.4981 52.7781C31.77 50.976 27.436 42.443 27.436 42.443V42.4347C27.3758 40.7628 27.3051 39.2273 27.22 37.9956C26.9166 33.6247 25.5204 27.0487 24.8286 23.0829L24.812 22.9713L24.4297 20.109C24.4297 20.109 33.43 13.1176 37.4856 12.5142C41.5328 11.919 52.7853 15.8352 56.3984 15.92C60.0114 15.9964 65.2117 14.0145 69.8054 14.5829C74.2619 15.1326 78.6458 20.0821 78.9158 20.4004Z" fill="#8A3633"/>
<path opacity="0.18" fill-rule="evenodd" clip-rule="evenodd" d="M87.0914 22.2449C86.5449 25.7834 84.8116 33.3988 84.4645 38.2369C84.0572 43.996 84.1694 56.2552 82.5234 59.1358C82.4985 59.1783 82.4715 59.2289 82.4361 59.2714C80.3121 62.2431 62.3684 69.3787 55.4685 69.3787C49.4602 69.3787 35.6252 63.9577 30.7891 60.5973C31.8199 61.0791 48.4211 68.7795 55.7906 68.7795C63.3929 68.7795 77.5314 61.7552 80.1064 58.5548C82.6814 55.3544 82.2553 46.7248 81.2598 46.4981C80.2539 46.2794 78.9529 51.4455 74.1002 52.8807C70.3344 53.9941 64.8935 53.5993 62.7695 50.2369C60.6538 46.8847 62.7695 22.2368 62.7695 22.2368L75.6693 26.1964C75.6693 26.1964 81.0956 24.9555 81.954 24.8117C82.8185 24.668 87.0914 22.2449 87.0914 22.2449Z" fill="#8A3633"/>
<path fill-rule="evenodd" clip-rule="evenodd" d="M62.5715 22.2368C62.5715 22.2368 62.4991 24.9512 63.4794 26.0556C63.4794 26.0556 75.7934 26.708 79.8243 31.1315C79.8243 31.1315 77.7788 26.6451 75.4087 25.966C73.4398 25.4014 65.558 23.5931 62.5715 22.2368Z" fill="#75272C"/>
<path fill-rule="evenodd" clip-rule="evenodd" d="M47.1278 22.2368C47.1278 22.2368 47.2001 24.9512 46.2179 26.0556C46.2179 26.0556 33.9054 26.708 29.875 31.1315C29.875 31.1315 31.9202 26.6451 34.29 25.966C36.2587 25.4014 44.1396 23.5931 47.1278 22.2368Z" fill="#75272C"/>
<path fill-rule="evenodd" clip-rule="evenodd" d="M65.4062 35.8885C65.4062 35.8885 65.4727 33.4591 66.295 32.7761C66.295 32.7761 73.7476 31.7047 77.8862 37.1144C81.709 42.1134 78.9846 46.783 78.9846 46.783L65.4083 36.0979V35.8885H65.4062Z" fill="#75272C"/>
<path fill-rule="evenodd" clip-rule="evenodd" d="M79.5474 45.5045C79.1321 46.708 78.0398 49.0581 74.6447 50.473C74.4537 50.5503 74.2377 50.6336 74.0031 50.7109C71.3181 51.5932 65.8444 52.2295 64.0337 49.6171C63.7741 49.235 63.5665 48.7348 63.419 48.1412V48.1331C62.5884 44.8519 63.3837 38.8141 65.4021 35.8887C65.4021 35.8887 65.4021 35.8887 65.4104 35.8806C65.7738 35.354 66.1808 34.9231 66.6231 34.6344C68.6664 33.2947 73.1455 33.498 76.6714 36.8726C78.5777 38.6962 79.3834 40.7149 79.6595 42.3758C79.8859 43.7907 79.7384 44.9536 79.5474 45.5045Z" fill="#F2ECFF"/>
<path fill-rule="evenodd" clip-rule="evenodd" d="M65.4062 50.7638C65.4062 50.7638 67.2917 52.4044 71.723 52.0832C76.1543 51.762 78.5112 47.5294 78.5112 47.5294C78.5112 47.5294 74.5699 53.4615 65.4062 50.7638Z" fill="#BF484F"/>
<path fill-rule="evenodd" clip-rule="evenodd" d="M74.0059 50.7108C71.321 51.5931 65.8473 52.2294 64.0365 49.6171C63.777 49.2349 63.5693 48.7348 63.4219 48.1412V48.133C63.4219 48.133 64.6948 43.9431 69.5102 44.368C74.0142 44.7746 74.0225 50.0399 74.0059 50.7108Z" fill="#75272C"/>
<path fill-rule="evenodd" clip-rule="evenodd" d="M73.6661 46.2972C73.6661 46.7323 73.3048 47.086 72.8604 47.086C72.416 47.086 72.0547 46.7323 72.0547 46.2972C72.0547 45.8622 72.416 45.5084 72.8604 45.5084C73.3048 45.5064 73.6661 45.8601 73.6661 46.2972Z" fill="white"/>
<path fill-rule="evenodd" clip-rule="evenodd" d="M65.378 40.2228C65.1786 41.3043 64.7612 42.1358 64.4435 42.0809C64.1258 42.026 64.0303 41.1031 64.2276 40.0216C64.4269 38.94 64.8443 38.1086 65.162 38.1635C65.4797 38.2183 65.5773 39.1413 65.378 40.2228Z" fill="white"/>
<path opacity="0.8" fill-rule="evenodd" clip-rule="evenodd" d="M79.6611 42.3758C79.1856 41.2048 77.1589 36.897 72.6632 35.5838C67.6837 34.1261 65.5947 35.7362 65.4141 35.8806C65.7775 35.354 66.1845 34.9231 66.6268 34.6344C68.6701 33.2947 73.1491 33.498 76.675 36.8727C78.5792 38.6942 79.3849 40.7129 79.6611 42.3758Z" fill="#D39DA6"/>
<path fill-rule="evenodd" clip-rule="evenodd" d="M46.0662 35.8887C46.0662 35.8887 45.9977 33.4594 45.1774 32.7763C45.1774 32.7763 37.7248 31.7049 33.5863 37.1146C29.7634 42.1136 32.4878 46.7833 32.4878 46.7833L46.0641 36.0981V35.8887H46.0662Z" fill="#75272C"/>
<path fill-rule="evenodd" clip-rule="evenodd" d="M31.922 45.5046C32.3373 46.7081 33.4295 49.0582 36.8246 50.4731C37.0157 50.5504 37.2316 50.6337 37.4663 50.711C40.1512 51.5933 45.625 52.2296 47.4357 49.6173C47.6952 49.2351 47.9029 48.735 48.0503 48.1414V48.1332C48.8809 44.8521 48.0856 38.8142 46.0673 35.8888C46.0673 35.8888 46.0672 35.8888 46.0589 35.8807C45.6956 35.3542 45.2886 34.9232 44.8463 34.6345C42.803 33.2948 38.3239 33.4981 34.798 36.8728C32.8917 38.6963 32.086 40.715 31.8098 42.3759C31.5835 43.7909 31.7309 44.9537 31.922 45.5046Z" fill="#F2EDFE"/>
<path fill-rule="evenodd" clip-rule="evenodd" d="M46.0659 50.7639C46.0659 50.7639 44.1804 52.4045 39.7491 52.0833C35.3178 51.7621 32.9609 47.5295 32.9609 47.5295C32.9609 47.5295 36.9022 53.4617 46.0659 50.7639Z" fill="#BF484F"/>
<path fill-rule="evenodd" clip-rule="evenodd" d="M37.463 50.7109C40.148 51.5932 45.6217 52.2295 47.4324 49.6172C47.692 49.235 47.8996 48.7349 48.0471 48.1413V48.1332C48.0471 48.1332 46.7742 43.9433 41.9587 44.3682C37.4527 44.7747 37.4444 50.0401 37.463 50.7109Z" fill="#75272C"/>
<path fill-rule="evenodd" clip-rule="evenodd" d="M37.8047 46.2972C37.8047 46.7323 38.166 47.086 38.6104 47.086C39.0548 47.086 39.4161 46.7323 39.4161 46.2972C39.4161 45.8622 39.0548 45.5084 38.6104 45.5084C38.166 45.5064 37.8047 45.8601 37.8047 46.2972Z" fill="white"/>
<path fill-rule="evenodd" clip-rule="evenodd" d="M45.9956 40.2149C46.1535 41.3106 46.5833 42.1584 46.955 42.1055C47.3267 42.0547 47.5032 41.1236 47.3454 40.0279C47.1876 38.9321 46.7577 38.0844 46.386 38.1372C46.0123 38.1901 45.8378 39.1191 45.9956 40.2149Z" fill="white"/>
<path opacity="0.8" fill-rule="evenodd" clip-rule="evenodd" d="M31.8125 42.3759C32.288 41.205 34.3147 36.8972 38.8104 35.5839C43.7899 34.1263 45.8789 35.7364 46.0595 35.8807C45.6961 35.3542 45.2891 34.9232 44.8468 34.6345C42.8035 33.2948 38.3245 33.4981 34.7985 36.8728C32.8944 38.6943 32.0887 40.713 31.8125 42.3759Z" fill="#D39DA6"/>
<path fill-rule="evenodd" clip-rule="evenodd" d="M58.0312 56.0368C58.0312 56.0368 59.2935 50.8665 61.6637 52.9913C61.666 52.9913 59.941 53.0208 58.0312 56.0368Z" fill="#BF484F"/>
<path fill-rule="evenodd" clip-rule="evenodd" d="M52.5837 56.0368C52.5837 56.0368 51.637 50.8238 49.8594 53.0179C49.8576 53.0205 51.1514 52.9187 52.5837 56.0368Z" fill="#BF484F"/>
<path opacity="0.58" fill-rule="evenodd" clip-rule="evenodd" d="M49.7528 50.7019C49.7528 50.7019 48.822 51.8329 48.9591 53.6232C48.9591 53.6232 51.866 54.8448 52.5891 55.9017C53.3121 56.9606 57.2558 57.4633 57.9519 56.0912C58.648 54.7212 60.5243 52.9969 61.6588 52.9969C61.6588 52.9969 61.4406 52.0101 60.9481 50.6998H49.7528V50.7019Z" fill="#E87759"/>
<path fill-rule="evenodd" clip-rule="evenodd" d="M49.8594 50.8314C49.8594 50.8314 56.4688 48.5336 61.6647 50.8314C61.6647 50.8314 59.6727 53.3681 55.7609 53.3681C51.8514 53.3703 49.8594 50.8314 49.8594 50.8314Z" fill="#FFB875"/>
<path fill-rule="evenodd" clip-rule="evenodd" d="M58.9375 52.4787C58.9375 52.4787 58.9375 51.1492 60.7537 51.741C60.7537 51.741 60.0436 52.1899 58.9375 52.4787Z" fill="white"/>
<path fill-rule="evenodd" clip-rule="evenodd" d="M46.2266 59.6936C46.2266 59.6936 48.6434 62.2485 55.898 62.263C63.2962 62.2796 68.9291 56.0367 68.9291 56.0367C68.9291 56.0367 62.8007 61.5387 55.9604 61.4972C48.1729 61.4515 46.2266 59.6936 46.2266 59.6936Z" fill="#BF484F"/>
<path fill-rule="evenodd" clip-rule="evenodd" d="M56.21 18.0994C56.21 18.0994 47.2863 14.1096 40.9368 13.3815C34.5873 12.6535 29.875 22.2367 29.875 22.2367C29.875 22.2367 33.8809 17.0083 38.6456 16.2122C43.4083 15.4162 53.0656 18.1751 56.21 18.0994Z" fill="#812730"/>
<path fill-rule="evenodd" clip-rule="evenodd" d="M83.4553 15.121C83.4553 15.121 72.5511 3.61813 55.278 3.38613C43.0302 3.21163 35.7808 7.82586 32.6016 10.0666C37.8159 6.0234 45.2044 2.16862 54.2646 1.60745C54.2646 1.60745 56.526 -1.37088 59.8693 0.780581L56.526 2.14482C69.3199 2.93799 78.7269 10.0269 83.4117 15.0635L83.4553 15.121Z" fill="#B76F5C"/>
<path fill-rule="evenodd" clip-rule="evenodd" d="M90.7188 34.6893C90.7188 34.6893 97.2644 38.2247 97.9836 39.1366C97.9856 39.1366 95.5878 34.6653 90.7188 34.6893Z" fill="#FFD4A6"/>
<path fill-rule="evenodd" clip-rule="evenodd" d="M84.3672 53.9728C84.3672 53.9728 86.1624 55.5234 88.9072 55.2055C91.652 54.8876 95.2644 51.5892 95.2644 51.5892C95.2644 51.5892 92.171 56.0347 87.8093 56.0366C85.371 56.0366 84.3672 53.9728 84.3672 53.9728Z" fill="#D77B78"/>
<path fill-rule="evenodd" clip-rule="evenodd" d="M16.2578 50.6998C16.2578 50.6998 20.4112 55.7569 24.4859 55.3575C27.4849 55.0635 28.0631 53.3419 28.0631 53.3419C28.0631 53.3419 27.2922 55.7894 24.7885 56.0124C19.8516 56.4545 16.2578 50.6998 16.2578 50.6998Z" fill="#BA6360"/>
<path fill-rule="evenodd" clip-rule="evenodd" d="M75.2845 53.906C75.1897 53.323 77.2074 52.2812 78.307 52.5116C79.4086 52.744 78.8657 54.4463 77.8273 54.9595C76.7908 55.4727 75.4424 54.8723 75.2845 53.906Z" fill="#FFD4A6"/>
<path fill-rule="evenodd" clip-rule="evenodd" d="M31.9788 51.7254C32.365 51.2818 34.6038 51.9878 35.2035 52.8935C35.8033 53.7991 34.0964 54.5347 32.9627 54.1558C31.8289 53.7769 31.34 52.4628 31.9788 51.7254Z" fill="#FFD4A6"/>
<path d="M55.3604 72.3745C55.3604 72.3745 47.4928 71.958 37.2111 76.4114C37.2111 76.4114 36.9984 85.0977 54.735 85.0977C72.4779 85.0977 74.0539 75.5783 74.0539 75.5783C74.0539 75.5783 62.7903 71.6394 55.3604 72.3745Z" fill="#9D3D3A"/>
<path fill-rule="evenodd" clip-rule="evenodd" d="M63.6159 104C65.2134 104 66.5098 105.268 66.5098 106.834C66.5098 108.401 65.2147 109.669 63.6159 109.669C62.0184 109.669 60.7221 108.401 60.7221 106.834C60.7221 105.268 62.0172 104 63.6159 104ZM60.4769 120.342C65.3648 117.956 64.4569 113.84 64.4569 113.84L58.666 113.567V112.039L72.4635 109.405C72.4119 119.235 66.6738 123.124 62.5943 124.288C59.0315 125.304 57.936 126.807 57.2126 127.799L57.2118 127.8C57.2025 127.813 57.1932 127.826 57.184 127.838C57.0891 127.968 57.0016 128.088 56.9141 128.197C56.9141 123.835 58.7669 121.177 60.4769 120.342Z" fill="url(#paint0_linear_11013_22095)"/>
<path fill-rule="evenodd" clip-rule="evenodd" d="M56.0572 106.834C56.0572 108.399 54.7619 109.669 53.1628 109.669C51.5637 109.669 50.2695 108.399 50.2695 106.834C50.2695 105.27 51.5649 104 53.1628 104C54.7606 104 56.0572 105.268 56.0572 106.834ZM58.7963 112.038V113.566L53.0066 113.84C53.0066 113.84 52.0999 117.955 56.9866 120.342C58.6967 121.177 60.5495 123.835 60.5495 128.197C60.4578 128.082 60.3651 127.956 60.2658 127.82L60.2517 127.8L60.2509 127.799C59.5275 126.807 58.432 125.304 54.8693 124.288C50.7897 123.124 45.0529 119.235 45 109.405L58.7963 112.038Z" fill="url(#paint1_linear_11013_22095)"/>
<path opacity="0.58" fill-rule="evenodd" clip-rule="evenodd" d="M97.9478 44.8886C97.7485 46.4743 97.3062 48.1576 96.4922 49.6376C94.4385 53.368 91.278 55.8482 87.9951 56.0962C84.7121 56.3443 83.6987 52.7297 83.6987 52.7297C83.6987 52.7297 82.1995 44.8541 82.6937 43.057C82.918 42.2153 83.6551 40.6113 84.6955 39.0521L85.0152 38.6089C85.0152 38.6089 84.4255 41.7884 87.1541 42.5426C87.1541 42.5426 91.7536 38.2369 94.1956 38.1393C94.1956 38.1393 97.0632 38.6963 97.6779 39.4241C97.7298 39.4871 97.7734 39.6376 97.8087 39.8673C97.9395 40.7414 97.9644 42.691 97.9478 44.8886Z" fill="#9D3D3A" fill-opacity="0.41"/>
<path opacity="0.18" fill-rule="evenodd" clip-rule="evenodd" d="M14.0131 44.8886C14.2125 46.4743 14.6548 48.1576 15.4688 49.6376C17.5225 53.368 20.6829 55.8482 23.9659 56.0962C27.2489 56.3443 28.2622 52.7297 28.2622 52.7297C28.2622 52.7297 29.7615 44.8541 29.2673 43.057C29.043 42.2153 28.3058 40.6113 27.2655 39.0521L26.9457 38.6089C26.9457 38.6089 27.5354 41.7884 24.8069 42.5426C24.8069 42.5426 20.2074 38.2369 17.7654 38.1393C17.7654 38.1393 14.8977 38.6963 14.2831 39.4241C14.2312 39.4871 14.1876 39.6376 14.1523 39.8673C14.0214 40.7414 13.9944 42.691 14.0131 44.8886Z" fill="#8A3633"/>
<path d="M48.5182 49.982C52.6752 45.9103 52.6752 39.3087 48.5182 35.237C44.3612 31.1653 37.6214 31.1653 33.4644 35.237C29.3074 39.3087 29.3074 45.9103 33.4644 49.982C37.6214 54.0537 44.3612 54.0537 48.5182 49.982Z" stroke="white" stroke-width="1.2497" stroke-miterlimit="10"/>
<path d="M81.489 44.9775C82.8341 39.3718 79.285 33.7594 73.5618 32.4419C67.8387 31.1244 62.1087 34.6007 60.7636 40.2064C59.4185 45.8121 62.9677 51.4245 68.6908 52.742C74.4139 54.0595 80.1439 50.5832 81.489 44.9775Z" stroke="white" stroke-width="1.2497" stroke-miterlimit="10"/>
<path d="M51.7734 43.8748C51.7734 43.8748 55.6285 37.8709 60.8545 43.8748" stroke="white" stroke-width="1.2497" stroke-miterlimit="10"/>
</g>
<defs>
<linearGradient id="paint0_linear_11013_22095" x1="57.8063" y1="108.499" x2="72.8103" y2="117.617" gradientUnits="userSpaceOnUse">
<stop offset="0.374951" stop-color="#C400FF"/>
<stop offset="1" stop-color="#FB2B68"/>
</linearGradient>
<linearGradient id="paint1_linear_11013_22095" x1="45.0015" y1="119.482" x2="60.5429" y2="119.482" gradientUnits="userSpaceOnUse">
<stop stop-color="#FFCC00"/>
<stop offset="1" stop-color="#FF6D00"/>
</linearGradient>
<clipPath id="clip0_11013_22095">
<rect width="75.0108" height="89.378" fill="white" transform="translate(71.9922 42.2635)"/>
</clipPath>
</defs>
</svg>
