<svg width="145" height="145" viewBox="0 0 145 145" fill="none" xmlns="http://www.w3.org/2000/svg">
<rect width="145" height="145" fill="#A6AAC7"/>
<!--<rect width="145" height="145" stroke="white"/>-->
<path d="M72.1298 79.5788C77.0955 79.5788 82.069 79.3796 87.0241 79.6212C97.2541 80.1152 106.195 89.1984 107.185 99.5325C107.639 104.268 106.135 107.76 102.393 110.618C95.1814 116.124 87.2311 119.667 78.2484 120.761C64.0145 122.493 51.3947 118.634 40.3183 109.482C37.7504 107.359 36.6026 104.52 36.7651 101.195C37.3416 89.4189 46.0229 80.3224 57.6312 79.6C62.4475 79.2999 67.2978 79.5495 72.1325 79.5495C72.1298 79.5575 72.1298 79.5681 72.1298 79.5788Z" fill="white"/>
<path d="M94.3471 47.135C94.3548 59.4405 84.5311 69.5047 72.4965 69.5206C60.4696 69.5365 50.6588 59.4855 50.6484 47.1456C50.6381 34.7818 60.3762 24.8289 72.4887 24.8289C84.5908 24.8262 94.3393 34.7713 94.3471 47.135Z" fill="white"/>
</svg>
