<svg width="92" height="40" viewBox="0 0 92 40" fill="none" xmlns="http://www.w3.org/2000/svg">
<path d="M91.7483 38.0503C91.6528 38.0156 91.5495 37.9901 91.4643 37.9439C89.1768 36.7231 86.5691 36.2537 83.742 36.3092C83.5716 36.2999 83.4012 36.2837 83.2308 36.2837C61.755 36.2814 40.2766 36.2837 18.8007 36.2814C18.5064 36.2814 18.2121 36.2814 17.9152 36.2814C8.09381 36.2814 0.118476 29.1738 0.0642575 20.3783C0.0642575 20.2164 0.0616834 20.0546 0.0616834 19.8927C0.007465 11.0279 8.01894 3.81387 17.9177 3.81387C39.9022 3.81388 61.8014 3.81388 83.7032 3.81388C85.4357 3.84394 87.101 3.60578 88.7301 3.20809C89.5615 3.00693 90.3025 2.68785 91.0357 2.36183C91.077 2.31096 91.4436 1.71905 91.8516 2.07975C91.8309 2.11905 91.8051 3.16184 91.7844 3.20115C91.7844 4.04972 91.7328 6.11912 91.7328 6.25553C91.7328 15.4372 91.7328 24.6188 91.7328 33.8005C91.7328 33.9369 91.7612 36.804 91.7483 38.0503Z" fill="#FDB600"/>
<path d="M91.8125 2.01924C90.8082 2.4493 89.8529 2.93717 88.7272 3.21001C87.0955 3.60539 85.4302 3.84585 83.7003 3.8158C83.7132 2.67821 83.7287 1.54061 83.7365 0.403024C83.7365 0.171807 83.7416 -0.0270402 84.196 0.00301811C86.9096 0.187992 89.5198 0.581062 91.6782 1.87819C91.7376 1.91056 91.7686 1.97068 91.8125 2.01924Z" fill="#F29C1E"/>
<path d="M83.7437 36.3091C86.5708 36.2536 89.1759 36.7206 91.466 37.9438C91.5512 37.9877 91.6545 38.0155 91.75 38.0501C91.1174 38.7137 90.1105 38.9935 89.1372 39.2895C87.5106 39.782 85.7885 39.9415 84.0329 39.9993C83.5655 40.0155 83.754 39.7935 83.7514 39.6779C83.7359 38.5542 83.7437 37.4328 83.7437 36.3091Z" fill="#F29C1E"/>
</svg>
