<svg width="36" height="36" viewBox="0 0 36 36" fill="none" xmlns="http://www.w3.org/2000/svg">
<path d="M26.9716 17.6C26.9411 17.6 26.9105 17.61 26.8698 17.61V17.6C26.8698 15.35 25.0153 13.53 22.7227 13.53C22.2235 13.53 21.7548 13.63 21.3166 13.79C20.369 12.12 18.5553 11 16.4767 11C13.4097 11 10.9337 13.44 10.9337 16.44C10.9337 16.46 10.9337 16.4701 10.9337 16.4901C8.87551 16.7301 7.26562 18.43 7.26562 20.51C7.26562 22.6 8.86531 24.29 10.9235 24.53V24.58L26.0242 24.5H26.2279C26.4622 24.55 26.7169 24.58 26.9716 24.58C28.9382 24.58 30.5278 23.02 30.5278 21.09C30.5278 19.16 28.9382 17.6 26.9716 17.6Z" fill="#008FFF"/>
<path d="M14.806 10H20.7362L18.0972 15.08H22.9371L14.806 25.12L16.742 17.56H11.25L14.806 10Z" fill="#FFB862"/>
</svg>
