<svg width="36" height="36" viewBox="0 0 36 36" fill="none" xmlns="http://www.w3.org/2000/svg">
<path d="M25.7061 14.6C25.6755 14.6 25.6449 14.61 25.6042 14.61V14.6C25.6042 12.35 23.7497 10.53 21.4571 10.53C20.9578 10.53 20.4891 10.63 20.051 10.79C19.1034 9.12004 17.2897 8 15.2111 8C12.1441 8 9.66811 10.44 9.66811 13.44C9.66811 13.46 9.66811 13.4701 9.66811 13.4901C7.60988 13.7301 6 15.43 6 17.51C6 19.6 7.59974 21.29 9.65798 21.53V21.58L24.8502 21.5H24.9622C25.1966 21.55 25.4514 21.58 25.7061 21.58C27.6726 21.58 29.2621 20.02 29.2621 18.09C29.2621 16.16 27.6726 14.6 25.7061 14.6Z" fill="#008FFF"/>
<path d="M21.0987 28.2309C20.7931 28.0209 20.7217 27.6109 20.9357 27.3109L22.3928 25.2809C22.6068 24.9809 23.0245 24.9109 23.3302 25.1209C23.6359 25.3309 23.7072 25.7409 23.4932 26.0409L22.0361 28.0709C21.8222 28.3709 21.4044 28.4409 21.0987 28.2309Z" fill="#008FFF"/>
<path d="M17.6768 26.2309C17.3711 26.0209 17.2999 25.6109 17.5138 25.3109L18.9709 23.2809C19.1849 22.9809 19.6026 22.9109 19.9083 23.1209C20.214 23.3309 20.2853 23.7409 20.0713 24.0409L18.6143 26.0709C18.4003 26.3609 17.9825 26.4409 17.6768 26.2309Z" fill="#008FFF"/>
<path d="M11.38 28.2309C11.0743 28.0209 11.003 27.6109 11.2169 27.3109L12.674 25.2809C12.888 24.9809 13.3057 24.9109 13.6114 25.1209C13.9171 25.3309 13.9884 25.7409 13.7744 26.0409L12.3174 28.0709C12.1034 28.3709 11.6857 28.4409 11.38 28.2309Z" fill="#008FFF"/>
<path d="M7.30183 26.2309C6.99615 26.0209 6.92485 25.6109 7.13883 25.3109L8.59589 23.2809C8.80986 22.9809 9.2276 22.9109 9.53328 23.1209C9.83896 23.3309 9.91032 23.7409 9.69634 24.0409L8.23922 26.0709C8.02525 26.3609 7.60751 26.4409 7.30183 26.2309Z" fill="#008FFF"/>
</svg>
