<svg width="36" height="36" viewBox="0 0 36 36" fill="none" xmlns="http://www.w3.org/2000/svg">
<path d="M26.484 17.8042C26.4538 17.8042 26.4235 17.8145 26.3832 17.8145V17.8042C26.3832 15.4846 24.5497 13.6083 22.283 13.6083C21.7893 13.6083 21.3259 13.7114 20.8927 13.8763C19.9558 12.1547 18.1625 11 16.1073 11C13.0749 11 10.6268 13.5155 10.6268 16.6082C10.6268 16.6289 10.6268 16.6392 10.6268 16.6598C8.5918 16.9072 7 18.6598 7 20.8041C7 22.9588 8.58172 24.701 10.6168 24.9485V25L25.7486 24.9175C25.9803 24.9691 26.2322 25 26.484 25C28.4284 25 30 23.3918 30 21.4021C30 19.4124 28.4183 17.8042 26.484 17.8042Z" fill="#008FFF"/>
</svg>
