<svg width="389" height="376" viewBox="0 0 389 376" fill="none" xmlns="http://www.w3.org/2000/svg">
<path d="M192.963 10.146C179.117 9.42825 165.535 11.4312 152.118 14.5274C115.519 22.9815 84.5064 41.4003 59.1468 69.1746C34.6811 95.9724 19.3032 127.469 13.7661 163.589C5.52261 217.384 18.2107 265.914 51.9131 308.218C80.2026 343.729 117.249 365.269 161.802 373.414C172.106 375.3 182.46 376.494 192.955 375.801C192.955 347.601 192.955 319.41 192.955 291.21C188.85 290.834 184.728 290.626 180.648 290.066C155.123 286.57 133.603 275.136 117.696 254.773C94.7281 225.371 89.3069 192.456 102.649 157.271C112.821 130.456 131.832 112.054 158.367 101.564C169.499 97.1658 181.07 95.1545 192.955 94.7372C192.972 66.5457 192.972 38.3458 192.963 10.146Z" fill="#FF9170"/>
<path d="M192.966 291.505C192.966 319.657 192.966 347.801 192.966 375.953C211.417 376.412 229.381 373.454 246.975 368.113C278.096 358.674 304.941 342.177 327.097 318.633C354.588 289.422 370.821 254.805 375.82 215.022C379.038 189.452 376.459 164.483 368.973 139.913C368.695 138.997 368.242 138.139 367.872 137.247C367.2 137.43 366.519 137.58 365.864 137.789C339.591 146.237 313.317 154.693 287.044 163.15C290.556 176.455 292.917 189.844 291.086 203.699C286.372 239.291 267.871 265.269 235.783 281.649C222.399 288.472 207.897 291.039 192.966 291.505Z" fill="#FF9170"/>
<path d="M284.284 168.357L288.719 166.933L288.963 166.854C315.199 158.431 341.435 150.008 367.671 141.593C368.009 141.486 368.318 141.408 368.759 141.297C368.95 141.248 369.166 141.194 369.421 141.128L374.404 139.834L372.965 134.89C368.515 119.613 361.513 105.593 353.124 92.4092L353.124 92.409C334.823 63.6547 310.309 41.3893 279.93 25.7116L279.929 25.7108C258.823 14.8274 236.278 8.51047 212.734 5.91152L284.284 168.357ZM284.284 168.357L282.55 164.033M284.284 168.357L282.55 164.033M282.55 164.033C278.952 155.061 275.342 146.712 269.958 139.358L269.957 139.357C253.932 117.458 232.613 104.459 205.576 100.533C202.747 100.127 200.008 99.9457 197.062 99.7509C195.621 99.6556 194.131 99.557 192.557 99.4273L187.968 99.049V94.4442V94.2794V94.1145V93.9497V93.7849V93.62V93.4552V93.2904V93.1255V92.9607V92.7959V92.631V92.4662V92.3014V92.1365V91.9717V91.8068V91.642V91.4772V91.3123V91.1475V90.9827V90.8178V90.653V90.4882V90.3233V90.1585V89.9937V89.8288V89.664V89.4992V89.3343V89.1695V89.0047V88.8398V88.675V88.5102V88.3453V88.1805V88.0156V87.8508V87.686V87.5211V87.3563V87.1915V87.0266V86.8618V86.697V86.5321V86.3673V86.2025V86.0376V85.8728V85.708V85.5431V85.3783V85.2135V85.0486V84.8838V84.7189V84.5541V84.3893V84.2244V84.0596V83.8948V83.7299V83.5651V83.4003V83.2354V83.0706V82.9058V82.7409V82.5761V82.4113V82.2464V82.0816V81.9168V81.7519V81.5871V81.4222V81.2574V81.0926V80.9277V80.7629V80.5981V80.4332V80.2684V80.1036V79.9387V79.7739V79.6091V79.4442V79.2794V79.1146V78.9497V78.7849V78.6201V78.4552V78.2904V78.1256V77.9607V77.7959V77.6311V77.4662V77.3014V77.1365V76.9717V76.8069V76.642V76.4772V76.3124V76.1475V75.9827V75.8179V75.653V75.4882V75.3234V75.1585V74.9937V74.8289V74.664V74.4992V74.3344V74.1695V74.0047V73.8398V73.675V73.5102V73.3453V73.1805V73.0157V72.8508V72.686V72.5212V72.3563V72.1915V72.0267V71.8618V71.697V71.5322V71.3673V71.2025V71.0377V70.8728V70.708V70.5431V70.3783V70.2135V70.0486V69.8838V69.719V69.5541V69.3893V69.2245V69.0596V68.8948V68.73V68.5651V68.4003V68.2355V68.0706V67.9058V67.741V67.5761V67.4113V67.2464V67.0816V66.9168V66.7519V66.5871V66.4223V66.2574V66.0926V65.9278V65.7629V65.5981V65.4333V65.2684V65.1036V64.9388V64.7739V64.6091V64.4443V64.2794V64.1146V63.9497V63.7849V63.6201V63.4552V63.2904V63.1256V62.9607V62.7959V62.6311V62.4662V62.3014V62.1366V61.9717V61.8069V61.6421V61.4772V61.3124V61.1476V60.9827V60.8179V60.6531V60.4882V60.3234V60.1585V59.9937V59.8289V59.664V59.4992V59.3344V59.1695V59.0047V58.8399V58.675V58.5102V58.3454V58.1805V58.0157V57.8509V57.686V57.5212V57.3564V57.1915V57.0267V56.8619V56.697V56.5322V56.3673V56.2025V56.0377V55.8728V55.708V55.5432V55.3783V55.2135V55.0487V54.8838V54.719V54.5542V54.3893V54.2245V54.0597V53.8948V53.73V53.5652V53.4003V53.2355V53.0706V52.9058V52.741V52.5761V52.4113V52.2465V52.0816V51.9168V51.752V51.5871V51.4223V51.2575V51.0926V50.9278V50.763V50.5981V50.4333V50.2685V50.1036V49.9388V49.7739V49.6091V49.4443V49.2794V49.1146V48.9498V48.7849V48.6201V48.4553V48.2904V48.1256V47.9608V47.7959V47.6311V47.4663V47.3014V47.1366V46.9718V46.8069V46.6421V46.4772V46.3124V46.1476V45.9827V45.8179V45.6531V45.4882V45.3234V45.1586V44.9937V44.8289V44.6641V44.4992V44.3344V44.1696V44.0047V43.8399V43.6751V43.5102V43.3454V43.1805V43.0157V42.8509V42.686V42.5212V42.3564V42.1915V42.0267V41.8619V41.697V41.5322V41.3674V41.2025V41.0377V40.8729V40.708V40.5432V40.3784V40.2135V40.0487V39.8839V39.719V39.5542V39.3893V39.2245V39.0597V38.8948V38.73V38.5652V38.4003V38.2355V38.0707V37.9058V37.741V37.5762V37.4113V37.2465V37.0817V36.9168V36.752V36.5872V36.4223V36.2575V36.0926V35.9278V35.763V35.5981V35.4333V35.2685V35.1036V34.9388V34.774V34.6091V34.4443V34.2795V34.1146V33.9498V33.785V33.6201V33.4553V33.2905V33.1256V32.9608V32.796V32.6311V32.4663V32.3014V32.1366V31.9718V31.8069V31.6421V31.4773V31.3124V31.1476V30.9828V30.8179V30.6531V30.4883V30.3234V30.1586V29.9938V29.8289V29.6641V29.4993V29.3344V29.1696V29.0047V28.8399V28.6751V28.5102V28.3454V28.1806V28.0157V27.8509V27.6861V27.5212V27.3564V27.1916V27.0267V26.8619V26.6971V26.5322V26.3674V26.2026V26.0377V25.8729V25.708V25.5432V25.3784V25.2135V25.0487V24.8839V24.719V24.5542V24.3894V24.2245V24.0597V23.8949V23.73V23.5652V23.4004V23.2355V23.0707V22.9059V22.741V22.5762V22.4114V22.2465V22.0817V21.9168V21.752V21.5872V21.4223V21.2575V21.0927V20.9278V20.763V20.5982V20.4333V20.2685V20.1037V19.9388V19.774V19.6092V19.4443V19.2795V19.1147V18.9498V18.785V18.6201V18.4553V18.2905V18.1256V17.9608V17.796V17.6311V17.4663V17.3015V17.1366V16.9718V16.807V16.6421V16.4773V16.3125V16.1476V15.9828V15.818V15.6531V15.4883V15.3235V15.1586V14.9938V14.8289V14.6641V14.4993V14.3344V14.1696V14.0048V13.8399V13.6751V13.5103V13.3454V13.1806V13.0158V12.8509V12.6861V12.5213V12.3564V12.1916V12.0268V11.8619V11.6971V11.5322V11.3674V11.2026V11.0377V10.8729V10.7081V10.5432V10.3784V10.2136V10.0487V5.183M282.55 164.033L187.968 5.183M187.968 5.183L192.832 5.05059M187.968 5.183L192.832 5.05059M192.832 5.05059C199.501 4.86903 206.119 5.18079 212.733 5.91147L192.832 5.05059Z" fill="#FDC500" stroke="white" stroke-width="10"/>
<path d="M263.086 69.4023V85.0967H260.497V72.4746L256.662 73.7744V71.6367L262.775 69.4023H263.086ZM278.748 80.832C278.748 81.806 278.523 82.626 278.072 83.292C277.62 83.958 277.004 84.4629 276.224 84.8066C275.45 85.1432 274.577 85.3115 273.603 85.3115C272.629 85.3115 271.752 85.1432 270.971 84.8066C270.19 84.4629 269.574 83.958 269.123 83.292C268.672 82.626 268.447 81.806 268.447 80.832C268.447 80.1875 268.572 79.6038 268.822 79.0811C269.073 78.5511 269.428 78.0964 269.886 77.7168C270.351 77.3301 270.896 77.0329 271.519 76.8252C272.149 76.6175 272.836 76.5137 273.581 76.5137C274.57 76.5137 275.454 76.6963 276.235 77.0615C277.015 77.4268 277.628 77.9316 278.072 78.5762C278.523 79.2207 278.748 79.9727 278.748 80.832ZM276.149 80.7031C276.149 80.1803 276.041 79.722 275.826 79.3281C275.612 78.9342 275.311 78.6299 274.924 78.415C274.537 78.2002 274.09 78.0928 273.581 78.0928C273.066 78.0928 272.618 78.2002 272.239 78.415C271.859 78.6299 271.562 78.9342 271.347 79.3281C271.139 79.722 271.035 80.1803 271.035 80.7031C271.035 81.2331 271.139 81.6914 271.347 82.0781C271.555 82.4577 271.852 82.7477 272.239 82.9482C272.625 83.1488 273.08 83.249 273.603 83.249C274.126 83.249 274.577 83.1488 274.956 82.9482C275.336 82.7477 275.629 82.4577 275.837 82.0781C276.045 81.6914 276.149 81.2331 276.149 80.7031ZM278.394 73.5703C278.394 74.3509 278.186 75.0456 277.771 75.6543C277.363 76.263 276.797 76.7428 276.073 77.0938C275.35 77.4375 274.527 77.6094 273.603 77.6094C272.672 77.6094 271.841 77.4375 271.111 77.0938C270.387 76.7428 269.818 76.263 269.403 75.6543C268.994 75.0456 268.79 74.3509 268.79 73.5703C268.79 72.6393 268.994 71.8551 269.403 71.2178C269.818 70.5732 270.387 70.0827 271.111 69.7461C271.834 69.4095 272.661 69.2412 273.592 69.2412C274.523 69.2412 275.35 69.4095 276.073 69.7461C276.797 70.0827 277.363 70.5732 277.771 71.2178C278.186 71.8551 278.394 72.6393 278.394 73.5703ZM275.805 73.6562C275.805 73.1908 275.712 72.7826 275.526 72.4316C275.347 72.0736 275.092 71.7943 274.763 71.5938C274.433 71.3932 274.043 71.293 273.592 71.293C273.141 71.293 272.751 71.3896 272.421 71.583C272.092 71.7764 271.837 72.0485 271.658 72.3994C271.479 72.7503 271.39 73.1693 271.39 73.6562C271.39 74.1361 271.479 74.555 271.658 74.9131C271.837 75.264 272.092 75.5397 272.421 75.7402C272.758 75.9408 273.152 76.041 273.603 76.041C274.054 76.041 274.444 75.9408 274.774 75.7402C275.103 75.5397 275.357 75.264 275.536 74.9131C275.715 74.555 275.805 74.1361 275.805 73.6562ZM280.918 73.291V72.4639C280.918 71.8695 281.047 71.3288 281.305 70.8418C281.563 70.3548 281.939 69.9645 282.433 69.6709C282.927 69.3773 283.521 69.2305 284.216 69.2305C284.932 69.2305 285.534 69.3773 286.021 69.6709C286.515 69.9645 286.891 70.3548 287.149 70.8418C287.406 71.3288 287.535 71.8695 287.535 72.4639V73.291C287.535 73.8711 287.406 74.4046 287.149 74.8916C286.898 75.3786 286.526 75.7689 286.031 76.0625C285.544 76.3561 284.947 76.5029 284.238 76.5029C283.536 76.5029 282.934 76.3561 282.433 76.0625C281.939 75.7689 281.563 75.3786 281.305 74.8916C281.047 74.4046 280.918 73.8711 280.918 73.291ZM282.712 72.4639V73.291C282.712 73.5775 282.766 73.8496 282.873 74.1074C282.988 74.3652 283.16 74.5729 283.389 74.7305C283.618 74.888 283.901 74.9668 284.238 74.9668C284.581 74.9668 284.861 74.888 285.075 74.7305C285.297 74.5729 285.462 74.3652 285.57 74.1074C285.677 73.8496 285.731 73.5775 285.731 73.291V72.4639C285.731 72.1702 285.673 71.8945 285.559 71.6367C285.451 71.3717 285.287 71.1605 285.065 71.0029C284.843 70.8454 284.56 70.7666 284.216 70.7666C283.887 70.7666 283.607 70.8454 283.378 71.0029C283.156 71.1605 282.988 71.3717 282.873 71.6367C282.766 71.8945 282.712 72.1702 282.712 72.4639ZM288.459 82.0996V81.2617C288.459 80.6745 288.588 80.1374 288.846 79.6504C289.111 79.1634 289.49 78.7731 289.985 78.4795C290.479 78.1859 291.073 78.0391 291.768 78.0391C292.484 78.0391 293.086 78.1859 293.572 78.4795C294.067 78.7731 294.439 79.1634 294.69 79.6504C294.947 80.1374 295.076 80.6745 295.076 81.2617V82.0996C295.076 82.6868 294.947 83.224 294.69 83.7109C294.439 84.1979 294.07 84.5882 293.583 84.8818C293.096 85.1755 292.502 85.3223 291.8 85.3223C291.091 85.3223 290.486 85.1755 289.985 84.8818C289.49 84.5882 289.111 84.1979 288.846 83.7109C288.588 83.224 288.459 82.6868 288.459 82.0996ZM290.264 81.2617V82.0996C290.264 82.3861 290.321 82.6582 290.436 82.916C290.558 83.1738 290.733 83.3851 290.962 83.5498C291.191 83.7074 291.467 83.7861 291.789 83.7861C292.155 83.7861 292.448 83.7074 292.67 83.5498C292.892 83.3851 293.05 83.1774 293.143 82.9268C293.243 82.6689 293.293 82.3932 293.293 82.0996V81.2617C293.293 80.9681 293.236 80.6924 293.121 80.4346C293.014 80.1768 292.846 79.9691 292.616 79.8115C292.394 79.654 292.112 79.5752 291.768 79.5752C291.431 79.5752 291.152 79.654 290.93 79.8115C290.708 79.9691 290.54 80.1768 290.425 80.4346C290.318 80.6924 290.264 80.9681 290.264 81.2617ZM292.412 71.6904L284.775 83.915L283.453 83.1523L291.091 70.9277L292.412 71.6904Z" fill="white"/>
<ellipse cx="192.854" cy="192.553" rx="88.7289" ry="87.1311" fill="#50CFBC"/>
<path d="M147.411 183.706V186.917H145.757V183.706H147.411ZM147.207 201.248V204.126H145.563V201.248H147.207ZM148.829 197.778C148.829 197.362 148.743 197.001 148.571 196.693C148.406 196.378 148.134 196.095 147.755 195.844C147.375 195.586 146.867 195.347 146.229 195.125C145.312 194.802 144.51 194.441 143.823 194.04C143.143 193.631 142.613 193.13 142.233 192.536C141.861 191.934 141.674 191.186 141.674 190.291C141.674 189.41 141.875 188.647 142.276 188.002C142.684 187.358 143.25 186.86 143.973 186.509C144.697 186.158 145.542 185.983 146.508 185.983C147.253 185.983 147.923 186.094 148.517 186.316C149.119 186.538 149.631 186.864 150.053 187.293C150.476 187.723 150.798 188.253 151.02 188.883C151.249 189.506 151.364 190.222 151.364 191.032H148.786C148.786 190.573 148.732 190.165 148.625 189.807C148.524 189.442 148.374 189.134 148.173 188.883C147.973 188.625 147.729 188.429 147.443 188.292C147.164 188.156 146.845 188.088 146.487 188.088C145.979 188.088 145.56 188.185 145.23 188.378C144.901 188.565 144.657 188.822 144.5 189.152C144.349 189.481 144.274 189.857 144.274 190.28C144.274 190.688 144.353 191.046 144.51 191.354C144.668 191.662 144.937 191.941 145.316 192.192C145.703 192.435 146.233 192.682 146.906 192.933C147.83 193.263 148.628 193.631 149.301 194.04C149.982 194.441 150.505 194.938 150.87 195.533C151.242 196.12 151.428 196.861 151.428 197.756C151.428 198.68 151.214 199.464 150.784 200.109C150.361 200.753 149.767 201.244 149.001 201.581C148.242 201.91 147.357 202.075 146.347 202.075C145.71 202.075 145.076 201.992 144.446 201.828C143.823 201.656 143.257 201.376 142.749 200.99C142.24 200.603 141.836 200.091 141.535 199.454C141.234 198.809 141.084 198.021 141.084 197.09H143.683C143.683 197.649 143.758 198.114 143.909 198.487C144.059 198.859 144.263 199.153 144.521 199.368C144.779 199.583 145.065 199.736 145.381 199.83C145.703 199.923 146.025 199.969 146.347 199.969C146.884 199.969 147.336 199.88 147.701 199.701C148.073 199.514 148.353 199.257 148.539 198.927C148.732 198.591 148.829 198.208 148.829 197.778ZM160.763 186.155V201.849H158.174V189.227L154.34 190.527V188.389L160.452 186.155H160.763ZM168.777 199.357L168.766 201.205C168.766 201.935 168.584 202.687 168.218 203.46C167.853 204.234 167.37 204.871 166.768 205.373L165.382 204.567C165.583 204.245 165.766 203.919 165.93 203.589C166.095 203.26 166.228 202.909 166.328 202.537C166.428 202.164 166.478 201.752 166.478 201.301V199.357H168.777ZM181.893 196.274V198.336H170.614L170.528 196.779L177.274 186.208H179.347L177.102 190.054L173.224 196.274H181.893ZM179.938 186.208V201.849H177.349V186.208H179.938ZM194.107 199.787V201.849H183.623V200.077L188.715 194.523C189.273 193.893 189.714 193.348 190.036 192.89C190.358 192.432 190.584 192.02 190.713 191.655C190.849 191.282 190.917 190.921 190.917 190.57C190.917 190.076 190.824 189.642 190.637 189.27C190.458 188.89 190.193 188.593 189.842 188.378C189.492 188.156 189.065 188.045 188.564 188.045C187.984 188.045 187.497 188.171 187.103 188.421C186.709 188.672 186.412 189.019 186.212 189.463C186.011 189.9 185.911 190.402 185.911 190.967H183.322C183.322 190.058 183.53 189.227 183.945 188.475C184.36 187.716 184.962 187.114 185.75 186.67C186.537 186.219 187.486 185.994 188.596 185.994C189.642 185.994 190.53 186.169 191.26 186.52C191.991 186.871 192.546 187.369 192.925 188.013C193.312 188.658 193.506 189.42 193.506 190.301C193.506 190.788 193.427 191.272 193.269 191.751C193.112 192.231 192.886 192.711 192.592 193.191C192.306 193.664 191.966 194.14 191.572 194.62C191.178 195.092 190.745 195.572 190.272 196.059L186.888 199.787H194.107ZM206.321 192.718V195.275C206.321 196.5 206.199 197.545 205.956 198.412C205.719 199.271 205.376 199.969 204.924 200.506C204.473 201.043 203.933 201.437 203.302 201.688C202.679 201.939 201.981 202.064 201.208 202.064C200.592 202.064 200.019 201.985 199.489 201.828C198.966 201.67 198.493 201.423 198.071 201.086C197.648 200.75 197.287 200.317 196.986 199.787C196.692 199.25 196.463 198.609 196.298 197.864C196.141 197.119 196.062 196.256 196.062 195.275V192.718C196.062 191.486 196.184 190.448 196.427 189.603C196.671 188.751 197.018 188.06 197.469 187.53C197.921 186.993 198.458 186.602 199.081 186.359C199.711 186.115 200.413 185.994 201.186 185.994C201.809 185.994 202.382 186.072 202.905 186.23C203.435 186.38 203.908 186.62 204.323 186.95C204.745 187.279 205.104 187.709 205.397 188.239C205.698 188.762 205.927 189.395 206.085 190.14C206.242 190.878 206.321 191.737 206.321 192.718ZM203.732 195.64V192.332C203.732 191.708 203.696 191.161 203.625 190.688C203.553 190.208 203.446 189.804 203.302 189.474C203.166 189.138 202.994 188.865 202.787 188.658C202.579 188.443 202.343 188.289 202.078 188.196C201.813 188.096 201.516 188.045 201.186 188.045C200.785 188.045 200.427 188.124 200.112 188.282C199.797 188.432 199.532 188.676 199.317 189.012C199.102 189.349 198.937 189.793 198.823 190.344C198.715 190.889 198.662 191.551 198.662 192.332V195.64C198.662 196.27 198.698 196.825 198.769 197.305C198.841 197.785 198.948 198.197 199.091 198.541C199.235 198.877 199.407 199.156 199.607 199.378C199.815 199.593 200.051 199.751 200.316 199.851C200.588 199.951 200.885 200.001 201.208 200.001C201.616 200.001 201.978 199.923 202.293 199.765C202.608 199.608 202.873 199.357 203.088 199.013C203.302 198.662 203.464 198.208 203.571 197.649C203.678 197.09 203.732 196.421 203.732 195.64ZM211.209 199.357L211.198 201.205C211.198 201.935 211.015 202.687 210.65 203.46C210.285 204.234 209.801 204.871 209.2 205.373L207.814 204.567C208.015 204.245 208.197 203.919 208.362 203.589C208.527 203.26 208.659 202.909 208.759 202.537C208.86 202.164 208.91 201.752 208.91 201.301V199.357H211.209ZM216.268 194.577L214.206 194.072L215.054 186.208H223.487V188.4H217.203L216.773 192.235C217.017 192.092 217.353 191.952 217.783 191.816C218.213 191.673 218.703 191.601 219.255 191.601C219.992 191.601 220.651 191.723 221.231 191.966C221.818 192.203 222.316 192.55 222.724 193.008C223.132 193.459 223.444 194.011 223.659 194.663C223.874 195.307 223.981 196.034 223.981 196.843C223.981 197.567 223.874 198.243 223.659 198.874C223.451 199.504 223.136 200.059 222.714 200.539C222.291 201.018 221.757 201.394 221.113 201.667C220.476 201.931 219.72 202.064 218.846 202.064C218.195 202.064 217.568 201.971 216.966 201.785C216.372 201.591 215.839 201.308 215.366 200.936C214.893 200.556 214.514 200.091 214.227 199.54C213.941 198.981 213.776 198.34 213.733 197.617H216.268C216.333 198.125 216.472 198.558 216.687 198.917C216.909 199.267 217.203 199.536 217.568 199.722C217.933 199.908 218.356 200.001 218.836 200.001C219.272 200.001 219.648 199.926 219.964 199.776C220.279 199.618 220.54 199.396 220.748 199.11C220.963 198.816 221.12 198.472 221.22 198.079C221.328 197.685 221.382 197.248 221.382 196.768C221.382 196.31 221.321 195.891 221.199 195.511C221.084 195.132 220.909 194.802 220.673 194.523C220.443 194.244 220.153 194.029 219.802 193.878C219.451 193.721 219.047 193.642 218.589 193.642C217.973 193.642 217.5 193.732 217.171 193.911C216.848 194.09 216.548 194.312 216.268 194.577ZM236.249 192.718V195.275C236.249 196.5 236.127 197.545 235.883 198.412C235.647 199.271 235.303 199.969 234.852 200.506C234.401 201.043 233.86 201.437 233.23 201.688C232.607 201.939 231.909 202.064 231.135 202.064C230.52 202.064 229.947 201.985 229.417 201.828C228.894 201.67 228.421 201.423 227.999 201.086C227.576 200.75 227.215 200.317 226.914 199.787C226.62 199.25 226.391 198.609 226.226 197.864C226.069 197.119 225.99 196.256 225.99 195.275V192.718C225.99 191.486 226.112 190.448 226.355 189.603C226.599 188.751 226.946 188.06 227.397 187.53C227.848 186.993 228.385 186.602 229.008 186.359C229.639 186.115 230.34 185.994 231.114 185.994C231.737 185.994 232.31 186.072 232.833 186.23C233.363 186.38 233.835 186.62 234.251 186.95C234.673 187.279 235.031 187.709 235.325 188.239C235.626 188.762 235.855 189.395 236.012 190.14C236.17 190.878 236.249 191.737 236.249 192.718ZM233.66 195.64V192.332C233.66 191.708 233.624 191.161 233.552 190.688C233.481 190.208 233.373 189.804 233.23 189.474C233.094 189.138 232.922 188.865 232.715 188.658C232.507 188.443 232.27 188.289 232.006 188.196C231.741 188.096 231.443 188.045 231.114 188.045C230.713 188.045 230.355 188.124 230.04 188.282C229.725 188.432 229.46 188.676 229.245 189.012C229.03 189.349 228.865 189.793 228.751 190.344C228.643 190.889 228.59 191.551 228.59 192.332V195.64C228.59 196.27 228.625 196.825 228.697 197.305C228.769 197.785 228.876 198.197 229.019 198.541C229.162 198.877 229.334 199.156 229.535 199.378C229.743 199.593 229.979 199.751 230.244 199.851C230.516 199.951 230.813 200.001 231.135 200.001C231.544 200.001 231.905 199.923 232.22 199.765C232.535 199.608 232.8 199.357 233.015 199.013C233.23 198.662 233.391 198.208 233.499 197.649C233.606 197.09 233.66 196.421 233.66 195.64ZM248.753 192.718V195.275C248.753 196.5 248.631 197.545 248.387 198.412C248.151 199.271 247.807 199.969 247.356 200.506C246.905 201.043 246.364 201.437 245.734 201.688C245.111 201.939 244.413 202.064 243.639 202.064C243.023 202.064 242.451 201.985 241.921 201.828C241.398 201.67 240.925 201.423 240.503 201.086C240.08 200.75 239.718 200.317 239.418 199.787C239.124 199.25 238.895 198.609 238.73 197.864C238.573 197.119 238.494 196.256 238.494 195.275V192.718C238.494 191.486 238.616 190.448 238.859 189.603C239.103 188.751 239.45 188.06 239.901 187.53C240.352 186.993 240.889 186.602 241.512 186.359C242.143 186.115 242.844 185.994 243.618 185.994C244.241 185.994 244.814 186.072 245.337 186.23C245.867 186.38 246.339 186.62 246.755 186.95C247.177 187.279 247.535 187.709 247.829 188.239C248.13 188.762 248.359 189.395 248.516 190.14C248.674 190.878 248.753 191.737 248.753 192.718ZM246.164 195.64V192.332C246.164 191.708 246.128 191.161 246.056 190.688C245.985 190.208 245.877 189.804 245.734 189.474C245.598 189.138 245.426 188.865 245.218 188.658C245.011 188.443 244.774 188.289 244.509 188.196C244.244 188.096 243.947 188.045 243.618 188.045C243.217 188.045 242.859 188.124 242.544 188.282C242.229 188.432 241.964 188.676 241.749 189.012C241.534 189.349 241.369 189.793 241.255 190.344C241.147 190.889 241.093 191.551 241.093 192.332V195.64C241.093 196.27 241.129 196.825 241.201 197.305C241.272 197.785 241.38 198.197 241.523 198.541C241.666 198.877 241.838 199.156 242.039 199.378C242.246 199.593 242.483 199.751 242.748 199.851C243.02 199.951 243.317 200.001 243.639 200.001C244.048 200.001 244.409 199.923 244.724 199.765C245.039 199.608 245.304 199.357 245.519 199.013C245.734 198.662 245.895 198.208 246.003 197.649C246.11 197.09 246.164 196.421 246.164 195.64Z" fill="white"/>
<path d="M131.79 319.15C131.79 320.124 131.564 320.944 131.113 321.61C130.662 322.276 130.046 322.781 129.265 323.125C128.492 323.462 127.618 323.63 126.644 323.63C125.67 323.63 124.793 323.462 124.012 323.125C123.232 322.781 122.616 322.276 122.165 321.61C121.714 320.944 121.488 320.124 121.488 319.15C121.488 318.506 121.613 317.922 121.864 317.399C122.115 316.869 122.469 316.415 122.927 316.035C123.393 315.648 123.937 315.351 124.56 315.144C125.19 314.936 125.878 314.832 126.623 314.832C127.611 314.832 128.495 315.015 129.276 315.38C130.057 315.745 130.669 316.25 131.113 316.895C131.564 317.539 131.79 318.291 131.79 319.15ZM129.19 319.021C129.19 318.499 129.083 318.04 128.868 317.646C128.653 317.253 128.352 316.948 127.965 316.733C127.579 316.519 127.131 316.411 126.623 316.411C126.107 316.411 125.659 316.519 125.28 316.733C124.9 316.948 124.603 317.253 124.388 317.646C124.181 318.04 124.077 318.499 124.077 319.021C124.077 319.551 124.181 320.01 124.388 320.396C124.596 320.776 124.893 321.066 125.28 321.267C125.667 321.467 126.121 321.567 126.644 321.567C127.167 321.567 127.618 321.467 127.998 321.267C128.377 321.066 128.671 320.776 128.879 320.396C129.086 320.01 129.19 319.551 129.19 319.021ZM131.435 311.889C131.435 312.669 131.227 313.364 130.812 313.973C130.404 314.581 129.838 315.061 129.115 315.412C128.392 315.756 127.568 315.928 126.644 315.928C125.713 315.928 124.882 315.756 124.152 315.412C123.429 315.061 122.859 314.581 122.444 313.973C122.036 313.364 121.832 312.669 121.832 311.889C121.832 310.958 122.036 310.174 122.444 309.536C122.859 308.892 123.429 308.401 124.152 308.064C124.875 307.728 125.702 307.56 126.633 307.56C127.564 307.56 128.392 307.728 129.115 308.064C129.838 308.401 130.404 308.892 130.812 309.536C131.227 310.174 131.435 310.958 131.435 311.889ZM128.846 311.975C128.846 311.509 128.753 311.101 128.567 310.75C128.388 310.392 128.134 310.113 127.804 309.912C127.475 309.712 127.085 309.611 126.633 309.611C126.182 309.611 125.792 309.708 125.463 309.901C125.133 310.095 124.879 310.367 124.7 310.718C124.521 311.069 124.431 311.488 124.431 311.975C124.431 312.454 124.521 312.873 124.7 313.231C124.879 313.582 125.133 313.858 125.463 314.059C125.799 314.259 126.193 314.359 126.644 314.359C127.095 314.359 127.486 314.259 127.815 314.059C128.144 313.858 128.399 313.582 128.578 313.231C128.757 312.873 128.846 312.454 128.846 311.975ZM144.551 321.353V323.415H134.067V321.643L139.159 316.089C139.717 315.459 140.158 314.914 140.48 314.456C140.802 313.998 141.028 313.586 141.157 313.221C141.293 312.848 141.361 312.487 141.361 312.136C141.361 311.642 141.268 311.208 141.082 310.836C140.903 310.456 140.638 310.159 140.287 309.944C139.936 309.722 139.51 309.611 139.008 309.611C138.428 309.611 137.941 309.737 137.547 309.987C137.154 310.238 136.856 310.585 136.656 311.029C136.455 311.466 136.355 311.967 136.355 312.533H133.766C133.766 311.624 133.974 310.793 134.389 310.041C134.805 309.282 135.406 308.68 136.194 308.236C136.982 307.785 137.931 307.56 139.041 307.56C140.086 307.56 140.974 307.735 141.705 308.086C142.435 308.437 142.99 308.935 143.37 309.579C143.756 310.224 143.95 310.986 143.95 311.867C143.95 312.354 143.871 312.838 143.714 313.317C143.556 313.797 143.33 314.277 143.037 314.757C142.75 315.229 142.41 315.706 142.016 316.186C141.622 316.658 141.189 317.138 140.716 317.625L137.333 321.353H144.551ZM146.464 311.609V310.782C146.464 310.188 146.592 309.647 146.85 309.16C147.108 308.673 147.484 308.283 147.978 307.989C148.472 307.696 149.067 307.549 149.761 307.549C150.477 307.549 151.079 307.696 151.566 307.989C152.06 308.283 152.436 308.673 152.694 309.16C152.952 309.647 153.081 310.188 153.081 310.782V311.609C153.081 312.189 152.952 312.723 152.694 313.21C152.443 313.697 152.071 314.087 151.577 314.381C151.09 314.674 150.492 314.821 149.783 314.821C149.081 314.821 148.479 314.674 147.978 314.381C147.484 314.087 147.108 313.697 146.85 313.21C146.592 312.723 146.464 312.189 146.464 311.609ZM148.257 310.782V311.609C148.257 311.896 148.311 312.168 148.419 312.426C148.533 312.684 148.705 312.891 148.934 313.049C149.163 313.206 149.446 313.285 149.783 313.285C150.127 313.285 150.406 313.206 150.621 313.049C150.843 312.891 151.007 312.684 151.115 312.426C151.222 312.168 151.276 311.896 151.276 311.609V310.782C151.276 310.489 151.219 310.213 151.104 309.955C150.997 309.69 150.832 309.479 150.61 309.321C150.388 309.164 150.105 309.085 149.761 309.085C149.432 309.085 149.153 309.164 148.923 309.321C148.701 309.479 148.533 309.69 148.419 309.955C148.311 310.213 148.257 310.489 148.257 310.782ZM154.005 320.418V319.58C154.005 318.993 154.133 318.456 154.391 317.969C154.656 317.482 155.036 317.091 155.53 316.798C156.024 316.504 156.618 316.357 157.313 316.357C158.029 316.357 158.631 316.504 159.118 316.798C159.612 317.091 159.984 317.482 160.235 317.969C160.493 318.456 160.622 318.993 160.622 319.58V320.418C160.622 321.005 160.493 321.542 160.235 322.029C159.984 322.516 159.616 322.907 159.129 323.2C158.642 323.494 158.047 323.641 157.345 323.641C156.636 323.641 156.031 323.494 155.53 323.2C155.036 322.907 154.656 322.516 154.391 322.029C154.133 321.542 154.005 321.005 154.005 320.418ZM155.809 319.58V320.418C155.809 320.704 155.866 320.977 155.981 321.234C156.103 321.492 156.278 321.703 156.507 321.868C156.737 322.026 157.012 322.104 157.335 322.104C157.7 322.104 157.993 322.026 158.215 321.868C158.437 321.703 158.595 321.496 158.688 321.245C158.788 320.987 158.839 320.712 158.839 320.418V319.58C158.839 319.286 158.781 319.011 158.667 318.753C158.559 318.495 158.391 318.287 158.162 318.13C157.94 317.972 157.657 317.894 157.313 317.894C156.977 317.894 156.697 317.972 156.475 318.13C156.253 318.287 156.085 318.495 155.97 318.753C155.863 319.011 155.809 319.286 155.809 319.58ZM157.958 310.009L150.32 322.233L148.999 321.471L156.636 309.246L157.958 310.009Z" fill="white"/>
</svg>
