<svg width="36" height="36" viewBox="0 0 36 36" fill="none" xmlns="http://www.w3.org/2000/svg">
<path d="M23.5629 25.52C27.3557 25.52 30.4304 22.5024 30.4304 18.78C30.4304 15.0576 27.3557 12.04 23.5629 12.04C19.77 12.04 16.6953 15.0576 16.6953 18.78C16.6953 22.5024 19.77 25.52 23.5629 25.52Z" fill="#FFB862"/>
<path d="M23.7272 10.8C23.3603 10.8 23.0547 10.5 23.0547 10.14V7.66003C23.0547 7.30003 23.3603 7 23.7272 7C24.094 7 24.3997 7.30003 24.3997 7.66003V10.14C24.3997 10.5 24.094 10.8 23.7272 10.8Z" fill="#FFB862"/>
<path d="M31.9375 19.4402C31.9375 19.0802 32.2432 18.7803 32.61 18.7803H35.1369C35.5038 18.7803 35.8094 19.0802 35.8094 19.4402C35.8094 19.8002 35.5038 20.1003 35.1369 20.1003H32.61C32.233 20.1003 31.9375 19.8102 31.9375 19.4402Z" fill="#FFB862"/>
<path d="M11.3047 19.4402C11.3047 19.0802 11.6104 18.7803 11.9772 18.7803H14.5041C14.8709 18.7803 15.1766 19.0802 15.1766 19.4402C15.1766 19.8002 14.8709 20.1003 14.5041 20.1003H11.9772C11.6104 20.1003 11.3047 19.8102 11.3047 19.4402Z" fill="#FFB862"/>
<path d="M28.9643 13.2306C28.6994 12.9706 28.6994 12.5507 28.9643 12.3007L30.7474 10.5407C31.0124 10.2807 31.4403 10.2807 31.695 10.5407C31.96 10.8007 31.96 11.2207 31.695 11.4707L29.9119 13.2306C29.6572 13.4806 29.2292 13.4806 28.9643 13.2306Z" fill="#FFB862"/>
<path d="M14.4018 27.5705C14.1369 27.3105 14.1369 26.8906 14.4018 26.6406L16.1849 24.8805C16.4499 24.6205 16.8778 24.6205 17.1325 24.8805C17.3975 25.1405 17.3975 25.5605 17.1325 25.8105L15.3494 27.5705C15.0845 27.8205 14.6565 27.8205 14.4018 27.5705Z" fill="#FFB862"/>
<path d="M16.7853 13.0499C16.5102 13.2999 16.0925 13.2899 15.8378 13.0199L14.1056 11.2099C13.8508 10.9399 13.861 10.5299 14.1362 10.2799C14.4113 10.0299 14.829 10.0399 15.0838 10.3099L16.8159 12.1199C17.0707 12.3799 17.0503 12.7999 16.7853 13.0499Z" fill="#FFB862"/>
<path d="M30.8869 27.8194C30.6118 28.0694 30.1941 28.0595 29.9393 27.7895L28.2072 25.9794C27.9524 25.7094 27.9626 25.2994 28.2377 25.0494C28.5128 24.7994 28.9306 24.8094 29.1853 25.0794L30.9175 26.8894C31.1722 27.1594 31.162 27.5694 30.8869 27.8194Z" fill="#FFB862"/>
<path d="M22.9482 21.1703C22.9176 21.1703 22.8871 21.1803 22.8463 21.1803V21.1703C22.8463 18.9203 20.9919 17.1003 18.6993 17.1003C18.2 17.1003 17.7313 17.2003 17.2932 17.3603C16.3456 15.6903 14.5319 14.5703 12.4533 14.5703C9.3863 14.5703 6.9103 17.0103 6.9103 20.0103C6.9103 20.0303 6.9103 20.0403 6.9103 20.0603C4.85207 20.3003 3.24219 22.0003 3.24219 24.0803C3.24219 26.1703 4.84187 27.8603 6.9001 28.1003L22.2044 28.1503C22.2044 28.1503 22.6935 28.1503 22.9482 28.1503C24.9147 28.1503 26.5043 26.5903 26.5043 24.6603C26.5043 22.7303 24.9147 21.1703 22.9482 21.1703Z" fill="#008FFF"/>
<path fill-rule="evenodd" clip-rule="evenodd" d="M6.9034 28.1003C4.84517 27.8603 3.24549 26.1703 3.24549 24.0803C3.24549 22.0003 4.85537 20.3003 6.9136 20.0603V20.0103C6.9136 17.0103 9.3896 14.5703 12.4566 14.5703C14.5352 14.5703 16.3489 15.6903 17.2965 17.3603C17.7346 17.2003 18.2033 17.1003 18.7026 17.1003C20.9952 17.1003 22.8496 18.9203 22.8496 21.1703V21.1803C22.8715 21.1803 22.8904 21.1774 22.9079 21.1748C22.9231 21.1724 22.9373 21.1703 22.9515 21.1703C23.043 21.1703 23.1337 21.1737 23.2234 21.1803C25.0625 21.3162 26.5076 22.8201 26.5076 24.6603C26.5076 26.5903 24.918 28.1503 22.9515 28.1503H22.2077L6.9034 28.1003ZM23.7827 20.244C25.9143 20.627 27.5265 22.4567 27.5265 24.6603C27.5265 27.1426 25.4808 29.1503 22.9515 29.1503H22.2043L6.8414 29.1001L6.78319 29.0934C4.22785 28.7954 2.22656 26.6922 2.22656 24.0803C2.22656 21.7742 3.80609 19.8541 5.94135 19.2385C6.32958 16.0499 9.09268 13.5703 12.4566 13.5703C14.6244 13.5703 16.5493 14.6004 17.7434 16.1963C18.0486 16.1353 18.3687 16.1003 18.7026 16.1003C21.2355 16.1003 23.3398 17.8848 23.7827 20.244ZM22.7493 20.187C22.7463 20.1874 22.7477 20.1871 22.7525 20.1865L22.7493 20.187Z" fill="white"/>
</svg>
