<svg width="36" height="36" viewBox="0 0 36 36" fill="none" xmlns="http://www.w3.org/2000/svg">
<path d="M17.7242 25.7957C21.9686 25.7957 25.4093 22.4188 25.4093 18.2533C25.4093 14.0878 21.9686 10.7109 17.7242 10.7109C13.4798 10.7109 10.0391 14.0878 10.0391 18.2533C10.0391 22.4188 13.4798 25.7957 17.7242 25.7957Z" fill="#FFB862"/>
<path d="M17.9088 9.32366C17.4983 9.32366 17.1562 8.98797 17.1562 8.58512V5.8099C17.1562 5.40704 17.4983 5.07129 17.9088 5.07129C18.3193 5.07129 18.6614 5.40704 18.6614 5.8099V8.58512C18.6614 8.99916 18.3307 9.32366 17.9088 9.32366Z" fill="#FFB862"/>
<path d="M17.9088 31.9848C17.4983 31.9848 17.1562 31.6491 17.1562 31.2462V28.471C17.1562 28.0682 17.4983 27.7324 17.9088 27.7324C18.3193 27.7324 18.6614 28.0682 18.6614 28.471V31.2462C18.6614 31.6491 18.3307 31.9848 17.9088 31.9848Z" fill="#FFB862"/>
<path d="M27.1016 18.9924C27.1016 18.5896 27.4436 18.2539 27.8541 18.2539H30.6818C31.0923 18.2539 31.4344 18.5896 31.4344 18.9924C31.4344 19.3953 31.0923 19.7311 30.6818 19.7311H27.8541C27.4436 19.7422 27.1016 19.4065 27.1016 18.9924Z" fill="#FFB862"/>
<path d="M4.02344 18.9924C4.02344 18.5896 4.36554 18.2539 4.77603 18.2539H7.60377C8.01425 18.2539 8.35636 18.5896 8.35636 18.9924C8.35636 19.3953 8.01425 19.7311 7.60377 19.7311H4.77603C4.35414 19.7422 4.02344 19.4065 4.02344 18.9924Z" fill="#FFB862"/>
<path d="M23.7692 12.0428C23.4728 11.7519 23.4728 11.2819 23.7692 11.0021L25.7646 9.03267C26.0611 8.74172 26.54 8.74172 26.825 9.03267C27.1215 9.32362 27.1215 9.79361 26.825 10.0734L24.8296 12.0428C24.5446 12.3226 24.0657 12.3226 23.7692 12.0428Z" fill="#FFB862"/>
<path d="M7.48016 28.0898C7.1837 27.7988 7.1837 27.3288 7.48016 27.0491L9.47556 25.0795C9.77202 24.7886 10.2509 24.7886 10.536 25.0795C10.8324 25.3705 10.8324 25.8405 10.536 26.1202L8.54056 28.0898C8.2555 28.3695 7.77662 28.3695 7.48016 28.0898Z" fill="#FFB862"/>
<path d="M10.1496 11.8415C9.84177 12.1213 9.37429 12.1101 9.08923 11.808L7.1509 9.78251C6.86584 9.48037 6.87721 9.02157 7.18507 8.74181C7.49293 8.46205 7.96042 8.4732 8.24547 8.77534L10.1839 10.8008C10.4689 11.0918 10.4575 11.5618 10.1496 11.8415Z" fill="#FFB862"/>
<path d="M25.9309 28.3699C25.6231 28.6496 25.1556 28.6385 24.8705 28.3363L22.9321 26.3108C22.6471 26.0087 22.6585 25.5499 22.9664 25.2701C23.2742 24.9903 23.7417 25.0016 24.0268 25.3037L25.9652 27.3292C26.2502 27.6313 26.2388 28.0901 25.9309 28.3699Z" fill="#FFB862"/>
</svg>
