<svg width="48" height="33" viewBox="0 0 48 33" fill="none" xmlns="http://www.w3.org/2000/svg">
<g clip-path="url(#clip0_11013_17109)">
<path d="M48 0H20.625V4.125H48V0Z" fill="#F0F0F0"/>
<path d="M48 4.125H20.625V8.25H48V4.125Z" fill="#DB001E"/>
<path d="M48 8.25H20.625V12.375H48V8.25Z" fill="#F0F0F0"/>
<path d="M48 12.375H20.625V16.5H48V12.375Z" fill="#DB001E"/>
<path d="M48 16.5H0V20.625H48V16.5Z" fill="#F0F0F0"/>
<path d="M48 20.625H0V24.75H48V20.625Z" fill="#DB001E"/>
<path d="M48 24.75H0V28.875H48V24.75Z" fill="#F0F0F0"/>
<path d="M48 28.875H0V33H48V28.875Z" fill="#DB001E"/>
<path d="M24 0H0V17.843H24V0Z" fill="#2C4FB5"/>
<path d="M4.1 2.68582L4.625 3.78902L5.81563 3.96169L4.95313 4.82507L5.15938 6.03379L4.1 5.45821L3.03125 6.03379L3.2375 4.82507L2.375 3.96169L3.56563 3.78902L4.1 2.68582Z" fill="white"/>
<path d="M9.35 2.68582L9.875 3.78902L11.0656 3.96169L10.2031 4.82507L10.4094 6.03379L9.35 5.45821L8.28125 6.03379L8.4875 4.82507L7.625 3.96169L8.81562 3.78902L9.35 2.68582Z" fill="white"/>
<path d="M14.6 2.68582L15.125 3.78902L16.3156 3.96169L15.4531 4.82507L15.6594 6.03379L14.6 5.45821L13.5312 6.03379L13.7375 4.82507L12.875 3.96169L14.0656 3.78902L14.6 2.68582Z" fill="white"/>
<path d="M19.9437 2.68582L20.4688 3.78902L21.6594 3.96169L20.7969 4.82507L21.0031 6.03379L19.9437 5.45821L18.875 6.03379L19.0812 4.82507L18.2188 3.96169L19.4094 3.78902L19.9437 2.68582Z" fill="white"/>
<path d="M4.1 7.00266L4.625 8.10585L5.81563 8.27853L4.95313 9.1419L5.15938 10.3506L4.1 9.77504L3.03125 10.3506L3.2375 9.1419L2.375 8.27853L3.56563 8.10585L4.1 7.00266Z" fill="white"/>
<path d="M9.35 7.00266L9.875 8.10585L11.0656 8.27853L10.2031 9.1419L10.4094 10.3506L9.35 9.77504L8.28125 10.3506L8.4875 9.1419L7.625 8.27853L8.81562 8.10585L9.35 7.00266Z" fill="white"/>
<path d="M14.6 7.00266L15.125 8.10585L16.3156 8.27853L15.4531 9.1419L15.6594 10.3506L14.6 9.77504L13.5312 10.3506L13.7375 9.1419L12.875 8.27853L14.0656 8.10585L14.6 7.00266Z" fill="white"/>
<path d="M19.9437 7.00266L20.4688 8.10585L21.6594 8.27853L20.7969 9.1419L21.0031 10.3506L19.9437 9.77504L18.875 10.3506L19.0812 9.1419L18.2188 8.27853L19.4094 8.10585L19.9437 7.00266Z" fill="white"/>
<path d="M4.1 11.4161L4.625 12.5193L5.81563 12.6919L4.95313 13.5553L5.15938 14.764L4.1 14.1885L3.03125 14.764L3.2375 13.5553L2.375 12.6919L3.56563 12.5193L4.1 11.4161Z" fill="white"/>
<path d="M9.35 11.4161L9.875 12.5193L11.0656 12.6919L10.2031 13.5553L10.4094 14.764L9.35 14.1885L8.28125 14.764L8.4875 13.5553L7.625 12.6919L8.81562 12.5193L9.35 11.4161Z" fill="white"/>
<path d="M14.6 11.4161L15.125 12.5193L16.3156 12.6919L15.4531 13.5553L15.6594 14.764L14.6 14.1885L13.5312 14.764L13.7375 13.5553L12.875 12.6919L14.0656 12.5193L14.6 11.4161Z" fill="white"/>
<path d="M19.9437 11.4161L20.4688 12.5193L21.6594 12.6919L20.7969 13.5553L21.0031 14.764L19.9437 14.1885L18.875 14.764L19.0812 13.5553L18.2188 12.6919L19.4094 12.5193L19.9437 11.4161Z" fill="white"/>
</g>
<defs>
<clipPath id="clip0_11013_17109">
<rect width="48" height="33" rx="5" fill="white"/>
</clipPath>
</defs>
</svg>
