<svg width="326" height="65" viewBox="0 0 326 65" fill="none" xmlns="http://www.w3.org/2000/svg">
<path d="M97.4966 34.8492V42.8718C97.2562 42.925 96.9091 42.9916 96.4551 43.0714C96.0278 43.1512 95.5605 43.1911 95.0531 43.1911C94.0383 43.1911 93.3172 43.0049 92.8899 42.6323C92.4894 42.2598 92.2891 41.6345 92.2891 40.7564V20.7198C92.2891 20.2143 92.4226 19.8284 92.6896 19.5623C92.9567 19.2963 93.3306 19.0834 93.8113 18.9237C94.2385 18.7907 94.7059 18.6709 95.2133 18.5645C95.7474 18.4581 96.2948 18.3782 96.8557 18.325C97.4165 18.2452 97.9773 18.192 98.5381 18.1654C99.0989 18.1388 99.633 18.1255 100.14 18.1255C103.665 18.1255 106.309 18.8838 108.072 20.4005C109.861 21.8906 110.756 23.9129 110.756 26.4674C110.756 29.0218 109.888 31.0574 108.152 32.5741C106.416 34.0909 103.906 34.8492 100.621 34.8492H97.4966ZM100.301 30.6982C101.903 30.6982 103.158 30.3523 104.066 29.6605C105.001 28.9686 105.468 27.9043 105.468 26.4674C105.468 25.0837 105.027 24.046 104.146 23.3541C103.292 22.6623 102.036 22.3164 100.381 22.3164C99.2324 22.3164 98.2577 22.3962 97.4565 22.5559V30.6982H100.301Z" fill="white"/>
<path d="M117.833 42.8718C117.593 42.925 117.273 42.9916 116.872 43.0714C116.471 43.1512 116.017 43.1911 115.51 43.1911C114.575 43.1911 113.881 43.0182 113.427 42.6722C112.973 42.3263 112.746 41.7143 112.746 40.8362V28.1837C112.746 27.4918 112.906 26.9064 113.227 26.4275C113.547 25.9485 114.015 25.5228 114.629 25.1502C115.457 24.6447 116.471 24.2322 117.673 23.9129C118.902 23.5936 120.224 23.434 121.639 23.434C124.176 23.434 125.444 24.2189 125.444 25.7888C125.444 26.1614 125.378 26.5206 125.244 26.8665C125.137 27.1858 125.017 27.4519 124.884 27.6648C124.269 27.5317 123.508 27.4652 122.6 27.4652C121.666 27.4652 120.784 27.5717 119.956 27.7845C119.129 27.9974 118.421 28.2635 117.833 28.5828V42.8718Z" fill="white"/>
<path d="M145.586 33.4522C145.586 34.9956 145.346 36.3925 144.865 37.6432C144.411 38.8672 143.757 39.9182 142.902 40.7963C142.048 41.6744 141.019 42.3529 139.818 42.8319C138.616 43.2843 137.267 43.5104 135.772 43.5104C134.276 43.5104 132.928 43.2843 131.726 42.8319C130.524 42.3529 129.496 41.6877 128.642 40.8362C127.787 39.9581 127.119 38.9071 126.639 37.6831C126.185 36.4324 125.958 35.0222 125.958 33.4522C125.958 31.9089 126.185 30.5252 126.639 29.3012C127.119 28.0506 127.787 26.9996 128.642 26.1481C129.523 25.27 130.564 24.6047 131.766 24.1524C132.968 23.6734 134.303 23.434 135.772 23.434C137.241 23.434 138.576 23.6734 139.778 24.1524C140.979 24.6047 142.007 25.27 142.862 26.1481C143.743 27.0262 144.411 28.0905 144.865 29.3411C145.346 30.5652 145.586 31.9355 145.586 33.4522ZM135.772 27.4253C134.33 27.4253 133.195 27.9575 132.367 29.0218C131.539 30.0596 131.125 31.5364 131.125 33.4522C131.125 35.3947 131.526 36.8848 132.327 37.9225C133.155 38.9603 134.303 39.4792 135.772 39.4792C137.241 39.4792 138.376 38.9603 139.177 37.9225C140.005 36.8582 140.419 35.3681 140.419 33.4522C140.419 31.5364 140.005 30.0596 139.177 29.0218C138.349 27.9575 137.214 27.4253 135.772 27.4253Z" fill="white"/>
<path d="M153.45 25.27H160.7C160.834 25.4828 160.954 25.7622 161.061 26.1082C161.168 26.4275 161.221 26.7867 161.221 27.1858C161.221 27.8777 161.061 28.3832 160.74 28.7025C160.42 29.0218 159.993 29.1815 159.458 29.1815H153.69V42.8718C153.45 42.925 153.129 42.9916 152.729 43.0714C152.328 43.1512 151.874 43.1911 151.367 43.1911C150.432 43.1911 149.738 43.0182 149.284 42.6722C148.83 42.3263 148.603 41.7143 148.603 40.8362V23.1945C148.603 21.9172 148.803 20.8263 149.204 19.9216C149.604 19.0169 150.165 18.2718 150.886 17.6864C151.607 17.101 152.462 16.6753 153.45 16.4092C154.438 16.1165 155.519 15.9701 156.695 15.9701C160.246 15.9701 162.022 16.9015 162.022 18.7641C162.022 19.1898 161.929 19.5757 161.742 19.9216C161.582 20.2409 161.381 20.507 161.141 20.7198C160.634 20.507 160.059 20.334 159.418 20.201C158.804 20.0679 158.15 20.0014 157.456 20.0014C156.067 20.0014 155.052 20.2675 154.411 20.7997C153.77 21.3318 153.45 22.1966 153.45 23.394V25.27ZM165.267 24.1524C165.481 24.0992 165.788 24.0327 166.188 23.9528C166.616 23.873 167.069 23.8331 167.55 23.8331C168.512 23.8331 169.206 24.006 169.633 24.352C170.087 24.6979 170.314 25.3099 170.314 26.188V42.8718C170.101 42.925 169.78 42.9916 169.353 43.0714C168.952 43.1512 168.512 43.1911 168.031 43.1911C167.069 43.1911 166.362 43.0182 165.908 42.6722C165.481 42.3263 165.267 41.7143 165.267 40.8362V24.1524ZM164.866 18.3649C164.866 17.5933 165.133 16.9414 165.667 16.4092C166.228 15.8504 166.936 15.571 167.791 15.571C168.645 15.571 169.339 15.8504 169.874 16.4092C170.408 16.9414 170.675 17.5933 170.675 18.3649C170.675 19.1632 170.408 19.8417 169.874 20.4005C169.339 20.9327 168.645 21.1988 167.791 21.1988C166.936 21.1988 166.228 20.9327 165.667 20.4005C165.133 19.8417 164.866 19.1632 164.866 18.3649Z" fill="white"/>
<path d="M179.479 37.0444C179.479 37.8959 179.732 38.5079 180.24 38.8805C180.774 39.253 181.508 39.4393 182.443 39.4393C182.897 39.4393 183.351 39.386 183.805 39.2796C184.286 39.1732 184.713 39.0401 185.087 38.8805C185.3 39.0933 185.474 39.3594 185.607 39.6787C185.768 39.9714 185.848 40.3174 185.848 40.7165C185.848 41.5148 185.487 42.18 184.766 42.7122C184.045 43.2177 182.884 43.4705 181.281 43.4705C179.172 43.4705 177.502 43.0049 176.274 42.0735C175.072 41.1156 174.471 39.5457 174.471 37.3638V19.0435C174.685 18.9903 174.992 18.9237 175.393 18.8439C175.82 18.7641 176.274 18.7242 176.755 18.7242C177.689 18.7242 178.37 18.8971 178.798 19.243C179.252 19.589 179.479 20.201 179.479 21.0791V24.3919H185.367C185.501 24.6047 185.621 24.8841 185.728 25.2301C185.834 25.576 185.888 25.9485 185.888 26.3476C185.888 27.0395 185.728 27.545 185.407 27.8644C185.087 28.1837 184.659 28.3433 184.125 28.3433H179.479V37.0444Z" fill="white"/>
<path d="M211.72 36.805C211.453 37.0178 211.105 37.1908 210.678 37.3238C210.251 37.4569 209.757 37.5234 209.196 37.5234C208.502 37.5234 207.914 37.4436 207.433 37.2839C206.979 37.0977 206.659 36.7784 206.472 36.326C205.377 33.6119 204.456 31.2969 203.708 29.3811C202.96 27.4652 202.359 25.8288 201.905 24.4717H201.705C201.625 26.2545 201.545 27.891 201.465 29.3811C201.411 30.8712 201.358 32.3347 201.305 33.7715C201.251 35.1818 201.184 36.6187 201.104 38.0822C201.051 39.5457 200.971 41.1289 200.864 42.8319C200.597 42.9117 200.263 42.9916 199.863 43.0714C199.462 43.1512 199.035 43.1911 198.581 43.1911C196.791 43.1911 195.897 42.5259 195.897 41.1954C195.897 40.7697 195.91 40.1178 195.937 39.2397C195.99 38.335 196.044 37.2972 196.097 36.1264C196.177 34.929 196.257 33.6252 196.337 32.2149C196.444 30.8046 196.538 29.3811 196.618 27.9442C196.725 26.5073 196.832 25.097 196.938 23.7133C197.045 22.3031 197.139 20.9992 197.219 19.8018C197.432 19.5357 197.82 19.2696 198.38 19.0036C198.968 18.7109 199.716 18.5645 200.624 18.5645C201.638 18.5645 202.453 18.7375 203.067 19.0834C203.708 19.4027 204.189 19.9482 204.509 20.7198C204.856 21.5447 205.217 22.4494 205.591 23.434C205.991 24.4185 206.392 25.4296 206.793 26.4674C207.193 27.5051 207.58 28.5296 207.954 29.5407C208.355 30.5252 208.729 31.4566 209.076 32.3347H209.236C210.144 29.8334 211.039 27.412 211.92 25.0704C212.828 22.7288 213.616 20.7464 214.283 19.1233C214.604 18.9636 215.018 18.8306 215.525 18.7242C216.033 18.6177 216.553 18.5645 217.087 18.5645C218.075 18.5645 218.863 18.7109 219.451 19.0036C220.038 19.2963 220.399 19.7353 220.532 20.3207C220.639 20.8263 220.759 21.6378 220.893 22.7554C221.026 23.8464 221.16 25.097 221.293 26.5073C221.427 27.9176 221.561 29.421 221.694 31.0175C221.828 32.6141 221.948 34.1574 222.055 35.6475C222.161 37.111 222.255 38.4547 222.335 39.6787C222.415 40.9028 222.468 41.8607 222.495 42.5525C222.148 42.7654 221.774 42.925 221.374 43.0315C221 43.1379 220.532 43.1911 219.972 43.1911C219.277 43.1911 218.663 43.0581 218.129 42.792C217.622 42.4993 217.341 41.9671 217.288 41.1954C217.181 39.5191 217.087 37.8826 217.007 36.2861C216.927 34.6629 216.86 33.1329 216.807 31.696C216.754 30.2592 216.7 28.942 216.647 27.7446C216.593 26.5206 216.553 25.4695 216.527 24.5914H216.326C215.899 25.8421 215.312 27.4386 214.564 29.3811C213.816 31.2969 212.868 33.7715 211.72 36.805Z" fill="white"/>
<path d="M244.774 33.4522C244.774 34.9956 244.533 36.3925 244.053 37.6432C243.599 38.8672 242.944 39.9182 242.09 40.7963C241.235 41.6744 240.207 42.3529 239.005 42.8319C237.804 43.2843 236.455 43.5104 234.959 43.5104C233.464 43.5104 232.115 43.2843 230.914 42.8319C229.712 42.3529 228.684 41.6877 227.829 40.8362C226.975 39.9581 226.307 38.9071 225.826 37.6831C225.372 36.4324 225.145 35.0222 225.145 33.4522C225.145 31.9089 225.372 30.5252 225.826 29.3012C226.307 28.0506 226.975 26.9996 227.829 26.1481C228.71 25.27 229.752 24.6047 230.954 24.1524C232.155 23.6734 233.491 23.434 234.959 23.434C236.428 23.434 237.764 23.6734 238.965 24.1524C240.167 24.6047 241.195 25.27 242.05 26.1481C242.931 27.0262 243.599 28.0905 244.053 29.3411C244.533 30.5652 244.774 31.9355 244.774 33.4522ZM234.959 27.4253C233.517 27.4253 232.382 27.9575 231.555 29.0218C230.727 30.0596 230.313 31.5364 230.313 33.4522C230.313 35.3947 230.713 36.8848 231.514 37.9225C232.342 38.9603 233.491 39.4792 234.959 39.4792C236.428 39.4792 237.563 38.9603 238.364 37.9225C239.192 36.8582 239.606 35.3681 239.606 33.4522C239.606 31.5364 239.192 30.0596 238.364 29.0218C237.537 27.9575 236.402 27.4253 234.959 27.4253Z" fill="white"/>
<path d="M260.289 30.7381C260.289 29.5939 259.955 28.7558 259.287 28.2236C258.646 27.6914 257.765 27.4253 256.643 27.4253C255.869 27.4253 255.148 27.5184 254.48 27.7047C253.839 27.891 253.278 28.1304 252.798 28.4231V42.8718C252.557 42.925 252.237 42.9916 251.836 43.0714C251.436 43.1512 250.982 43.1911 250.474 43.1911C249.54 43.1911 248.845 43.0182 248.391 42.6722C247.937 42.3263 247.71 41.7143 247.71 40.8362V28.024C247.71 27.3854 247.844 26.8665 248.111 26.4674C248.378 26.0682 248.792 25.6824 249.353 25.3099C250.127 24.7777 251.155 24.3387 252.437 23.9927C253.719 23.6202 255.134 23.434 256.683 23.434C259.434 23.434 261.557 24.046 263.053 25.27C264.575 26.4674 265.336 28.2369 265.336 30.5785V42.8718C265.122 42.925 264.802 42.9916 264.374 43.0714C263.974 43.1512 263.533 43.1911 263.053 43.1911C262.091 43.1911 261.383 43.0182 260.929 42.6722C260.502 42.3263 260.289 41.7143 260.289 40.8362V30.7381Z" fill="white"/>
<path d="M274.404 42.8718C274.164 42.925 273.843 42.9916 273.443 43.0714C273.042 43.1512 272.588 43.1911 272.081 43.1911C271.146 43.1911 270.452 43.0182 269.998 42.6722C269.544 42.3263 269.317 41.7143 269.317 40.8362V16.968C269.53 16.8881 269.838 16.8216 270.238 16.7684C270.665 16.6886 271.133 16.6487 271.64 16.6487C272.575 16.6487 273.269 16.8216 273.723 17.1675C274.177 17.5135 274.404 18.1255 274.404 19.0036V31.3767L282.175 23.6734C283.19 23.6734 284.005 23.8996 284.619 24.352C285.233 24.8043 285.54 25.3764 285.54 26.0682C285.54 26.6803 285.34 27.2124 284.939 27.6648C284.566 28.1171 283.965 28.6892 283.137 29.3811L278.811 33.1329L286.462 40.2774C286.355 41.2088 286.074 41.9405 285.62 42.4727C285.166 42.9783 284.512 43.231 283.658 43.231C283.043 43.231 282.496 43.0847 282.015 42.792C281.561 42.4993 281 41.9804 280.333 41.2354L274.404 34.6896V42.8718Z" fill="white"/>
<path d="M292.464 35.7273C292.838 37.0844 293.532 38.0689 294.547 38.6809C295.562 39.2929 296.817 39.5989 298.312 39.5989C299.434 39.5989 300.462 39.4393 301.397 39.1199C302.358 38.774 303.132 38.4148 303.72 38.0423C304.094 38.2552 304.401 38.5479 304.641 38.9204C304.882 39.2929 305.002 39.692 305.002 40.1178C305.002 40.65 304.815 41.1289 304.441 41.5547C304.094 41.9538 303.6 42.2997 302.959 42.5924C302.345 42.8851 301.61 43.1113 300.756 43.2709C299.901 43.4306 298.98 43.5104 297.992 43.5104C296.416 43.5104 294.974 43.2976 293.665 42.8718C292.384 42.4461 291.275 41.8075 290.341 40.956C289.433 40.0779 288.712 39.0002 288.178 37.723C287.67 36.4457 287.416 34.9556 287.416 33.2527C287.416 31.6029 287.67 30.166 288.178 28.942C288.685 27.718 289.366 26.6936 290.22 25.8687C291.102 25.0438 292.117 24.4318 293.265 24.0327C294.413 23.6335 295.628 23.434 296.91 23.434C298.219 23.434 299.42 23.6468 300.515 24.0726C301.61 24.4717 302.545 25.0438 303.319 25.7888C304.094 26.5073 304.695 27.3854 305.122 28.4231C305.576 29.4343 305.803 30.5386 305.803 31.736C305.803 32.481 305.603 33.0398 305.202 33.4123C304.828 33.7848 304.294 34.0243 303.6 34.1308L292.464 35.7273ZM296.91 27.2257C295.602 27.2257 294.507 27.6648 293.625 28.5429C292.744 29.3944 292.25 30.6184 292.143 32.2149L301.036 30.8978C300.929 29.9132 300.542 29.0618 299.874 28.3433C299.207 27.5983 298.219 27.2257 296.91 27.2257Z" fill="white"/>
<path d="M311.782 38.3616C311.142 37.0311 310.38 35.235 309.499 32.9733C308.618 30.7115 307.737 27.9708 306.855 24.7511C307.122 24.4318 307.496 24.1657 307.977 23.9528C308.458 23.7133 308.978 23.5936 309.539 23.5936C310.234 23.5936 310.794 23.7533 311.222 24.0726C311.676 24.3919 312.036 24.964 312.303 25.7888C313.558 29.8068 314.987 33.878 316.589 38.0024H316.75C317.097 37.1243 317.457 36.1264 317.831 35.0089C318.232 33.8913 318.606 32.7205 318.953 31.4965C319.327 30.2725 319.674 29.0351 319.994 27.7845C320.315 26.5339 320.595 25.3232 320.836 24.1524C321.156 23.9927 321.49 23.8597 321.837 23.7533C322.211 23.6468 322.598 23.5936 322.999 23.5936C323.693 23.5936 324.294 23.7533 324.801 24.0726C325.309 24.3919 325.562 24.9108 325.562 25.6292C325.562 26.4275 325.389 27.5583 325.042 29.0218C324.694 30.4587 324.227 32.0154 323.64 33.6917C323.079 35.3415 322.438 37.0178 321.717 38.7208C320.996 40.3972 320.275 41.874 319.554 43.1512C318.165 45.5992 316.897 47.422 315.748 48.6194C314.627 49.8434 313.518 50.4554 312.423 50.4554C311.569 50.4554 310.875 50.2026 310.34 49.697C309.833 49.2181 309.513 48.6061 309.379 47.861C309.806 47.4885 310.26 47.0494 310.741 46.5439C311.222 46.0649 311.702 45.546 312.183 44.9872C312.664 44.4284 313.118 43.8563 313.545 43.2709C313.972 42.6856 314.346 42.1135 314.667 41.5547C314.426 41.4748 314.186 41.3817 313.946 41.2753C313.732 41.1422 313.505 40.956 313.265 40.7165C313.051 40.477 312.811 40.171 312.544 39.7985C312.303 39.426 312.05 38.947 311.782 38.3616Z" fill="white"/>
<path fill-rule="evenodd" clip-rule="evenodd" d="M48.4898 0C52.6508 0 56.0273 3.37303 56.0273 7.53746C56.0273 11.7019 52.654 15.0749 48.4898 15.0749C44.3288 15.0749 40.9524 11.7019 40.9524 7.53746C40.9524 3.37303 44.3256 0 48.4898 0ZM40.3113 43.4552C53.0425 37.112 50.6777 26.1656 50.6777 26.1656L35.5944 25.4407V21.3775L71.5321 14.3711C71.3976 40.512 56.4521 50.853 45.8261 53.9485C36.5465 56.6514 33.6931 60.6474 31.8089 63.2861L31.8067 63.2892C31.7825 63.323 31.7584 63.3566 31.7345 63.3899C31.4871 63.7351 31.2592 64.0531 31.0312 64.3439C31.0312 52.7451 35.8571 45.6771 40.3113 43.4552Z" fill="url(#paint0_linear_11013_17280)"/>
<path fill-rule="evenodd" clip-rule="evenodd" d="M28.809 7.53746C28.809 11.6987 25.435 15.0749 21.27 15.0749C17.1049 15.0749 13.7341 11.6987 13.7341 7.53746C13.7341 3.37622 17.1081 0 21.27 0C25.4319 0 28.809 3.37303 28.809 7.53746ZM35.9346 21.3739V25.4371L20.8545 26.1656C20.8545 26.1656 18.4928 37.1084 31.2208 43.4552C35.675 45.6771 40.5009 52.7451 40.5009 64.3439C40.2623 64.0394 40.0207 63.7018 39.7623 63.3407L39.7254 63.2892L39.7233 63.2861C37.839 60.6474 34.9857 56.6514 25.706 53.9485C15.0801 50.853 0.137791 40.512 0 14.3711L35.9346 21.3739Z" fill="url(#paint1_linear_11013_17280)"/>
<defs>
<linearGradient id="paint0_linear_11013_17280" x1="33.3551" y1="11.9627" x2="72.8679" y2="35.4821" gradientUnits="userSpaceOnUse">
<stop offset="0.374951" stop-color="#C400FF"/>
<stop offset="1" stop-color="#FB2B68"/>
</linearGradient>
<linearGradient id="paint1_linear_11013_17280" x1="0.00393167" y1="41.1688" x2="40.4839" y2="41.1688" gradientUnits="userSpaceOnUse">
<stop stop-color="#FFCC00"/>
<stop offset="1" stop-color="#FF6D00"/>
</linearGradient>
</defs>
</svg>
