<svg width="13" height="13" viewBox="0 0 13 13" fill="none" xmlns="http://www.w3.org/2000/svg">
<path d="M0 4C0 1.79086 1.79086 0 4 0H8.39237C10.6015 0 12.3924 1.79086 12.3924 4V8.42359C12.3924 10.6327 10.6015 12.4236 8.39237 12.4236H4C1.79086 12.4236 0 10.6327 0 8.4236V4Z" fill="#00A35A"/>
<path fill-rule="evenodd" clip-rule="evenodd" d="M9.15743 3.74996C9.50754 3.97131 9.61192 4.43457 9.39057 4.78468L7.29352 8.10158C7.28829 8.10985 7.28289 8.11802 7.27734 8.12609C6.67944 8.99453 5.40448 9.0113 4.78419 8.15846L3.77632 6.77272C3.53269 6.43774 3.60674 5.96867 3.94172 5.72503C4.2767 5.4814 4.74577 5.55545 4.98941 5.89043L5.99726 7.27616C5.99727 7.27616 5.99726 7.27616 5.99726 7.27616C6.00034 7.28039 6.00258 7.28243 6.00364 7.28332C6.00479 7.28427 6.00581 7.28491 6.0069 7.28544C6.0093 7.28661 6.01369 7.28796 6.01963 7.28788C6.02558 7.2878 6.02995 7.28634 6.03235 7.28509C6.03344 7.28453 6.03447 7.28385 6.0356 7.28286C6.03614 7.28238 6.03698 7.28159 6.03807 7.28036L8.12271 3.98309C8.34406 3.63299 8.80732 3.52861 9.15743 3.74996Z" fill="white"/>
</svg>
