<svg width="126" height="119" viewBox="0 0 126 119" fill="none" xmlns="http://www.w3.org/2000/svg">
<g opacity="0.9">
<g clip-path="url(#clip0_11780_70035)">
<path fill-rule="evenodd" clip-rule="evenodd" d="M124.62 59.1914C123.217 60.3668 118.364 60.6738 117.976 57.3767C117.589 54.0698 119.933 46.9296 118.52 45.2451C117.118 43.5509 110.391 40.7881 106.092 42.9428C101.793 45.0897 97.6497 57.9848 97.5666 64.4353C97.4914 70.8858 105.019 80.1982 105.051 84.8826C105.101 93.4081 91.2355 110.889 80.451 112.421C69.6585 113.96 61.5547 102.598 61.5547 102.598L63.6182 97.4688L63.7824 97.0724C63.7824 97.0724 64.1781 97.7525 64.9121 98.7492C66.1586 100.467 68.3863 103.142 71.2096 104.965C73.281 106.309 75.6829 107.185 78.2568 106.894C86.3942 105.969 99.458 93.8297 99.8379 86.7789C99.9526 84.6145 99.4916 82.4908 98.7398 80.4178C96.8583 75.133 93.1685 70.1747 92.7649 65.7818C92.023 57.742 96.5536 40.7706 102.651 37.3025C102.651 37.3025 102.659 37.3025 102.675 37.2947C102.972 37.1082 103.286 36.978 103.591 36.8731C110.16 34.7262 121.178 37.489 123.759 42.5542C124.808 44.6117 125.378 47.5455 125.591 50.3822C125.908 54.54 125.463 58.4958 124.62 59.1914Z" fill="#812730"/>
<path opacity="0.8" fill-rule="evenodd" clip-rule="evenodd" d="M124.62 59.1912C123.217 60.3666 118.364 60.6736 117.976 57.3765C117.589 54.0696 119.933 46.9294 118.52 45.2449C117.118 43.5507 110.391 40.7878 106.092 42.9425C101.793 45.0895 97.6497 57.9846 97.5666 64.4351C97.4914 70.8856 105.019 80.198 105.051 84.8824C105.101 93.4079 91.2355 110.888 80.451 112.421C69.6585 113.96 61.5547 102.598 61.5547 102.598L63.6182 97.4686L64.9141 98.749C66.1605 100.467 68.3883 103.142 71.2115 104.964C71.2115 104.964 74.3553 111.578 82.8726 110.272C91.3978 108.967 103.09 93.3749 103.668 87.4664C104.121 82.8637 100.4 81.0082 98.7418 80.4156C96.8603 75.1309 93.1705 70.1725 92.7669 65.7796C92.023 57.7417 96.5536 40.7704 102.651 37.3022H102.659C102.659 37.3022 101.165 40.3099 102.734 41.1279C104.293 41.938 107.653 41.0229 113.363 41.6388C119.072 42.247 120.089 44.1355 120.246 46.8342C120.394 49.4591 124.339 52.0529 125.593 50.3839C125.908 54.5398 125.463 58.4956 124.62 59.1912Z" fill="#EA845D" fill-opacity="0.39"/>
<path fill-rule="evenodd" clip-rule="evenodd" d="M125.596 50.3819C125.596 50.3819 124.004 43.0727 121.42 41.0948C118.828 39.1169 113.638 36.9855 109.298 36.7193C105.23 36.4687 102.943 37.2051 102.68 37.2945C102.976 37.1079 103.291 36.9778 103.596 36.8728C110.164 34.7259 121.182 37.4887 123.764 42.5539C124.813 44.6115 125.383 47.5453 125.596 50.3819Z" fill="#FFD4A6"/>
</g>
<path d="M23.5502 102.754H7.58705C3.39631 102.754 0 106.114 0 110.261C0 114.407 3.39631 117.768 7.58705 117.768H26.3654L23.5502 102.754Z" fill="#FF9566"/>
<path d="M1.75781 105.78L11.6938 89.8407L26.4428 91.7945L24.2556 110.552L1.75781 105.78Z" fill="#FF9566"/>
<path d="M19.6631 103.093H7.60938" stroke="#9D3D3A" stroke-width="1.1396" stroke-miterlimit="10" stroke-linecap="round" stroke-linejoin="round"/>
<path d="M73.7455 103.093H89.7565C93.9598 103.093 97.3663 106.429 97.3663 110.546C97.3663 114.663 93.9598 118 89.7565 118H70.9219L73.7455 103.093Z" fill="#FF9566"/>
<path d="M95.4357 105.591L82.9221 86.7031L70.9219 91.7944L73.1091 110.552L95.4357 105.591Z" fill="#FF9566"/>
<path d="M74.6484 103.093H89.7504" stroke="#9D3D3A" stroke-width="1.1396" stroke-miterlimit="10" stroke-linecap="round" stroke-linejoin="round"/>
<path d="M47.3384 61.8856C47.3384 61.8856 31.3969 61.8856 19.6641 73.1892V104.863C19.6641 104.863 75.8203 105.701 75.8203 104.863C75.8203 104.025 75.8363 71.094 75.8363 71.094C75.8363 71.094 64.3441 61.8856 47.3384 61.8856Z" fill="#829CED"/>
<path d="M22.0393 71.094C22.0393 71.094 13.3761 77.9453 4.24219 93.0306C4.24219 93.0306 6.21014 101.757 23.2265 103.098L22.0393 71.094Z" fill="#829CED"/>
<path d="M75.8278 71.094C75.8278 71.094 84.4911 77.9453 93.625 93.0306C93.625 93.0306 91.657 101.757 74.6406 103.098L75.8278 71.094Z" fill="#829CED"/>
<path d="M78.7846 118.05H22.4715C20.9203 118.05 19.6641 116.822 19.6641 115.306V80.5555C19.6641 79.0394 20.9203 77.8115 22.4715 77.8115H78.7846C80.3358 77.8115 81.592 79.0394 81.592 80.5555V115.306C81.592 116.822 80.3358 118.05 78.7846 118.05Z" fill="#F1F1F1"/>
<path d="M53.11 55.2124H42.0938V67.2964H53.11V55.2124Z" fill="#9D3D3A"/>
<path fill-rule="evenodd" clip-rule="evenodd" d="M83.7538 38.383C83.5834 39.7389 83.2052 41.1782 82.5092 42.4437C80.7531 45.6335 78.0507 47.7542 75.2435 47.9663C72.4363 48.1784 71.5698 45.0876 71.5698 45.0876C71.5698 45.0876 70.2879 38.3534 70.7105 36.8168C70.9022 36.0971 71.5326 34.7256 72.4221 33.3923L72.6956 33.0133C73.6739 31.6418 74.9541 30.3781 76.3692 29.9765C79.2723 29.1665 83.0578 32.5144 83.523 33.7104C83.5603 33.8164 83.6047 33.9381 83.6349 34.0894C83.8568 34.9742 83.9829 36.603 83.7538 38.383Z" fill="#FF9566"/>
<path opacity="0.8" fill-rule="evenodd" clip-rule="evenodd" d="M72.2969 38.4437C72.2969 38.4437 78.4706 32.1928 80.6811 33.1002C82.8917 34.0076 82.961 37.7745 82.5757 40.0343C82.1904 42.2941 78.9624 45.7394 78.9624 45.7394C78.9624 45.7394 80.8924 43.1719 81.418 40.5801C81.9436 37.9883 80.4361 35.1861 79.488 35.2418C78.5416 35.2974 77.0323 36.6602 76.8566 37.0201C76.6808 37.3781 78.119 38.0091 78.3303 39.3807C78.5416 40.7522 77.2774 43.1337 76.5068 43.2171C75.7344 43.2988 74.543 42.5096 74.5252 41.5414C74.5075 40.5732 75.2443 38.5637 74.7525 38.2403C74.2624 37.917 72.2969 38.4437 72.2969 38.4437Z" fill="#9A3C39"/>
<path opacity="0.58" fill-rule="evenodd" clip-rule="evenodd" d="M72.2969 38.4438C72.2969 38.4438 73.957 37.7015 74.7525 38.2404C75.548 38.7793 74.1541 40.7748 74.7525 41.8161C75.3509 42.8573 76.3328 43.2624 77.2472 42.056C78.1598 40.8479 77.7692 38.9861 76.9986 38.0457C76.2262 37.1053 74.5252 36.3787 74.5252 36.3787C74.5252 36.3787 72.6005 38.037 72.2969 38.4438Z" fill="#9A3C39"/>
<path fill-rule="evenodd" clip-rule="evenodd" d="M11.9822 38.3831C12.1526 39.739 12.5308 41.1783 13.2268 42.4438C14.9829 45.6336 17.6853 47.7543 20.4925 47.9664C23.2997 48.1785 24.1662 45.0878 24.1662 45.0878C24.1662 45.0878 25.4481 38.3536 25.0256 36.8169C24.8338 36.0972 24.2035 34.7257 23.3139 33.3924L23.0405 33.0135C22.0621 31.6419 20.7819 30.3782 19.3668 29.9766C16.4637 29.1666 12.6782 32.5146 12.213 33.7105C12.1757 33.8166 12.1313 33.9382 12.1011 34.0895C11.8774 34.9743 11.7513 36.6031 11.9822 38.3831Z" fill="#FF9566"/>
<path fill-rule="evenodd" clip-rule="evenodd" d="M23.4351 38.4441C23.4351 38.4441 17.2614 32.1931 15.0508 33.1005C12.8402 34.0079 12.771 37.7748 13.1563 40.0346C13.5416 42.2945 16.7696 45.7398 16.7696 45.7398C16.7696 45.7398 14.8395 43.1723 14.314 40.5805C13.7884 37.9887 15.2958 35.1865 16.244 35.2421C17.1904 35.2978 18.6996 36.6606 18.8754 37.0204C19.0512 37.3785 17.613 38.0095 17.4017 39.381C17.1922 40.7526 18.4546 43.1341 19.2252 43.2175C19.9976 43.2992 21.189 42.51 21.2067 41.5418C21.2245 40.5735 20.4876 38.564 20.9795 38.2407C21.4713 37.9174 23.4351 38.4441 23.4351 38.4441Z" fill="#AA4A40"/>
<path fill-rule="evenodd" clip-rule="evenodd" d="M23.4324 38.4439C23.4324 38.4439 21.7722 37.7016 20.9768 38.2405C20.1813 38.7794 21.5751 40.775 20.9768 41.8162C20.3784 42.8575 19.3965 43.2625 18.4821 42.0561C17.5694 40.848 17.9601 38.9862 18.7307 38.0458C19.503 37.1054 21.204 36.3788 21.204 36.3788C21.204 36.3788 23.1288 38.0371 23.4324 38.4439Z" fill="#AA4A40"/>
<path fill-rule="evenodd" clip-rule="evenodd" d="M74.4687 17.4732C74.4687 17.757 74.4173 18.2062 74.3286 18.7807V18.7877C73.8623 21.8308 72.3837 28.3803 72.0876 32.5411C71.7401 37.4941 71.8358 48.0373 70.4316 50.5146C70.4103 50.5512 70.3873 50.5947 70.3571 50.6313C68.5451 53.187 53.2371 59.3238 47.3508 59.3238C42.225 59.3238 30.4222 54.6615 26.2965 51.7716C25.6086 51.2928 25.1352 50.8646 24.9348 50.5146C23.8249 48.5613 23.6547 41.5749 23.4561 36.2894V36.2824C23.4047 34.874 23.3444 33.5805 23.2718 32.5429C23.0129 28.8608 21.8214 23.3211 21.231 19.9802L21.2169 19.8862C21.0165 18.7755 20.8906 17.9259 20.8906 17.475C20.8906 16.6985 22.9242 13.5387 26.6298 10.2135C26.6298 10.2135 26.6369 10.2135 26.6369 10.2066C26.6511 10.1996 26.667 10.177 26.6954 10.1561C27.1759 9.72779 27.6794 9.30648 28.2042 8.89214C28.2184 8.87821 28.2415 8.86254 28.2627 8.84165C32.7129 5.28838 39.0212 1.90399 46.7568 1.4113C46.7568 1.4113 48.6876 -1.20359 51.5421 0.68533L48.6876 1.8831C59.611 2.57948 67.6427 8.80335 71.6425 13.2253C73.4847 15.2727 74.4687 16.9283 74.4687 17.4732Z" fill="#9D3D3A"/>
<path fill-rule="evenodd" clip-rule="evenodd" d="M70.3026 50.529C70.2813 50.5655 70.2583 50.609 70.2282 50.6455C68.4168 53.197 53.1139 59.3237 47.2295 59.3237C41.2565 59.3237 26.2195 53.0023 24.8211 50.529C24.2149 48.5719 25.546 37.3195 25.546 35.8769C25.546 34.4343 23.8604 24.2039 24.0005 22.3494C24.1405 20.4931 29.626 14.1282 33.1744 13.8605C36.7901 13.5929 46.2742 15.5499 48.0271 15.5499C49.7711 15.5499 56.9423 12.9393 60.6324 13.904C63.6933 14.7018 68.8014 18.204 69.9481 21.3865C70.7014 23.4809 69.5936 36.7494 69.9481 38.9238C70.2955 41.0964 70.9602 48.9265 70.3026 50.529Z" fill="#FF9566"/>
<path opacity="0.18" fill-rule="evenodd" clip-rule="evenodd" d="M67.4802 17.4439C67.2209 17.223 62.9821 13.7877 59.7505 13.2788C56.416 12.7486 50.5552 15.1289 48.2048 15.1661C45.8563 15.2032 37.0073 13.1392 33.3175 13.4484C29.6276 13.7577 25.8845 18.9318 25.8845 18.9318C25.9804 21.2096 29.1 22.109 29.1 22.109C32.3759 21.6955 40.4592 18.52 40.4592 18.52C40.4592 18.52 42.2304 41.2521 41.7791 42.8001C41.319 44.3552 36.97 46.663 32.065 45.1292C27.1671 43.5882 23.4613 36.2919 23.4613 36.2919V36.2848C23.4098 34.8552 23.3493 33.5422 23.2765 32.489C23.0171 28.7516 21.8233 23.1286 21.2317 19.7376L21.2175 19.6421L20.8906 17.1947C20.8906 17.1947 28.5866 11.2166 32.0544 10.7006C35.5151 10.1916 45.1368 13.5403 48.2262 13.6128C51.3156 13.6781 55.7622 11.9835 59.6901 12.4694C63.5008 12.9395 67.2493 17.1717 67.4802 17.4439Z" fill="#8A3633"/>
<path opacity="0.18" fill-rule="evenodd" clip-rule="evenodd" d="M74.4629 19.021C73.9956 22.0466 72.5135 28.5584 72.2167 32.6953C71.8684 37.6197 71.9644 48.1022 70.5569 50.5653C70.5356 50.6017 70.5125 50.6449 70.4823 50.6813C68.6661 53.2223 53.3229 59.3238 47.423 59.3238C42.2855 59.3238 30.4556 54.6884 26.3203 51.815C27.2017 52.227 41.397 58.8114 47.6985 58.8114C54.199 58.8114 66.2884 52.8051 68.4902 50.0685C70.692 47.332 70.3277 39.953 69.4765 39.7592C68.6164 39.5722 67.5039 43.9895 63.3545 45.2168C60.1344 46.1688 55.482 45.8312 53.6659 42.9562C51.8568 40.0898 53.6659 19.014 53.6659 19.014L64.6961 22.3997C64.6961 22.3997 69.3361 21.3387 70.07 21.2158C70.8093 21.0929 74.4629 19.021 74.4629 19.021Z" fill="#8A3633"/>
<path fill-rule="evenodd" clip-rule="evenodd" d="M53.501 19.014C53.501 19.014 53.4391 21.335 54.2774 22.2794C54.2774 22.2794 64.8067 22.8372 68.2534 26.6197C68.2534 26.6197 66.5044 22.7834 64.4778 22.2028C62.7942 21.72 56.0547 20.1737 53.501 19.014Z" fill="#75272C"/>
<path fill-rule="evenodd" clip-rule="evenodd" d="M40.2992 19.014C40.2992 19.014 40.3611 21.335 39.5212 22.2794C39.5212 22.2794 28.9932 22.8372 25.5469 26.6197C25.5469 26.6197 27.2957 22.7834 29.3221 22.2028C31.0054 21.72 37.7441 20.1737 40.2992 19.014Z" fill="#75272C"/>
<path fill-rule="evenodd" clip-rule="evenodd" d="M55.9297 30.6872C55.9297 30.6872 55.9865 28.61 56.6896 28.0259C56.6896 28.0259 63.0622 27.1098 66.6009 31.7354C69.8697 36.01 67.5402 40.0028 67.5402 40.0028L55.9315 30.8663V30.6872H55.9297Z" fill="#75272C"/>
<path fill-rule="evenodd" clip-rule="evenodd" d="M68.0222 38.9095C67.6671 39.9386 66.7331 41.9481 63.83 43.158C63.6667 43.224 63.482 43.2953 63.2814 43.3614C60.9856 44.1158 56.3051 44.6599 54.7568 42.4261C54.5349 42.0993 54.3573 41.6717 54.2313 41.1641V41.1572C53.521 38.3515 54.2011 33.1888 55.927 30.6873C55.927 30.6873 55.927 30.6873 55.9341 30.6804C56.2448 30.2302 56.5928 29.8616 56.971 29.6148C58.7182 28.4692 62.5481 28.6431 65.563 31.5287C67.193 33.0879 67.8819 34.8141 68.1181 36.2343C68.3116 37.4441 68.1855 38.4385 68.0222 38.9095Z" fill="#F2ECFF"/>
<path fill-rule="evenodd" clip-rule="evenodd" d="M55.9297 43.4066C55.9297 43.4066 57.5419 44.8095 61.331 44.5348C65.1201 44.2602 67.1354 40.641 67.1354 40.641C67.1354 40.641 63.7653 45.7134 55.9297 43.4066Z" fill="#BF484F"/>
<path fill-rule="evenodd" clip-rule="evenodd" d="M63.2845 43.3614C60.9887 44.1158 56.3083 44.6599 54.7599 42.4262C54.538 42.0994 54.3604 41.6718 54.2344 41.1642V41.1572C54.2344 41.1572 55.3228 37.5746 59.4404 37.9379C63.2916 38.2855 63.2987 42.7877 63.2845 43.3614Z" fill="#75272C"/>
<path fill-rule="evenodd" clip-rule="evenodd" d="M62.995 39.5874C62.995 39.9594 62.6861 40.2619 62.3061 40.2619C61.9261 40.2619 61.6172 39.9594 61.6172 39.5874C61.6172 39.2154 61.9261 38.913 62.3061 38.913C62.6861 38.9112 62.995 39.2137 62.995 39.5874Z" fill="white"/>
<path fill-rule="evenodd" clip-rule="evenodd" d="M55.9073 34.3934C55.7368 35.3181 55.38 36.0291 55.1083 35.9822C54.8366 35.9352 54.755 35.146 54.9236 34.2213C55.0941 33.2965 55.451 32.5855 55.7226 32.6324C55.9943 32.6794 56.0778 33.4686 55.9073 34.3934Z" fill="white"/>
<path opacity="0.8" fill-rule="evenodd" clip-rule="evenodd" d="M68.1197 36.2343C67.7131 35.233 65.9802 31.5495 62.136 30.4266C57.8782 29.1802 56.092 30.557 55.9375 30.6804C56.2482 30.2302 56.5962 29.8616 56.9744 29.6148C58.7216 28.4692 62.5515 28.6431 65.5665 31.5287C67.1947 33.0862 67.8836 34.8123 68.1197 36.2343Z" fill="#D39DA6"/>
<path fill-rule="evenodd" clip-rule="evenodd" d="M39.3916 30.6875C39.3916 30.6875 39.333 28.6102 38.6317 28.0261C38.6317 28.0261 32.2591 27.11 28.7204 31.7357C25.4516 36.0102 27.7811 40.0031 27.7811 40.0031L39.3899 30.8665V30.6875H39.3916Z" fill="#75272C"/>
<path fill-rule="evenodd" clip-rule="evenodd" d="M27.2954 38.9098C27.6505 39.9389 28.5844 41.9483 31.4875 43.1582C31.6509 43.2243 31.8355 43.2955 32.0362 43.3616C34.332 44.116 39.0124 44.6601 40.5607 42.4264C40.7827 42.0996 40.9602 41.672 41.0863 41.1644V41.1574C41.7965 38.3518 41.1165 33.189 39.3906 30.6876C39.3906 30.6876 39.3906 30.6876 39.3835 30.6806C39.0728 30.2304 38.7248 29.8619 38.3466 29.615C36.5994 28.4695 32.7695 28.6433 29.7545 31.5289C28.1246 33.0882 27.4356 34.8143 27.1995 36.2345C27.006 37.4444 27.132 38.4387 27.2954 38.9098Z" fill="#F2EDFE"/>
<path fill-rule="evenodd" clip-rule="evenodd" d="M39.3932 43.4069C39.3932 43.4069 37.781 44.8097 33.9919 44.5351C30.2028 44.2604 28.1875 40.6412 28.1875 40.6412C28.1875 40.6412 31.5575 45.7136 39.3932 43.4069Z" fill="#BF484F"/>
<path fill-rule="evenodd" clip-rule="evenodd" d="M32.0409 43.3615C34.3367 44.1159 39.0171 44.66 40.5654 42.4263C40.7874 42.0995 40.9649 41.6719 41.091 41.1643V41.1573C41.091 41.1573 40.0026 37.5747 35.885 37.938C32.032 38.2856 32.0249 42.7879 32.0409 43.3615Z" fill="#75272C"/>
<path fill-rule="evenodd" clip-rule="evenodd" d="M32.3281 39.5874C32.3281 39.9594 32.6371 40.2619 33.0171 40.2619C33.397 40.2619 33.706 39.9594 33.706 39.5874C33.706 39.2154 33.397 38.913 33.0171 38.913C32.6371 38.9112 32.3281 39.2137 32.3281 39.5874Z" fill="white"/>
<path fill-rule="evenodd" clip-rule="evenodd" d="M39.331 34.3866C39.4659 35.3235 39.8335 36.0484 40.1513 36.0032C40.4691 35.9598 40.62 35.1636 40.4851 34.2267C40.3501 33.2897 39.9826 32.5648 39.6648 32.61C39.3452 32.6552 39.196 33.4496 39.331 34.3866Z" fill="white"/>
<path opacity="0.8" fill-rule="evenodd" clip-rule="evenodd" d="M27.2031 36.2345C27.6097 35.2333 29.3427 31.5498 33.1868 30.4268C37.4447 29.1805 39.2309 30.5572 39.3854 30.6806C39.0746 30.2304 38.7266 29.8619 38.3484 29.615C36.6013 28.4695 32.7713 28.6433 29.7564 31.5289C28.1282 33.0864 27.4393 34.8126 27.2031 36.2345Z" fill="#D39DA6"/>
<path fill-rule="evenodd" clip-rule="evenodd" d="M49.6172 47.9154C49.6172 47.9154 50.6965 43.4945 52.7232 45.3113C52.7252 45.3113 51.2501 45.3366 49.6172 47.9154Z" fill="#BF484F"/>
<path fill-rule="evenodd" clip-rule="evenodd" d="M44.9623 47.9154C44.9623 47.9154 44.1528 43.458 42.6328 45.3341C42.6313 45.3363 43.7376 45.2492 44.9623 47.9154Z" fill="#BF484F"/>
<path opacity="0.58" fill-rule="evenodd" clip-rule="evenodd" d="M42.5421 43.3538C42.5421 43.3538 41.7461 44.3209 41.8634 45.8517C41.8634 45.8517 44.3489 46.8963 44.9672 47.8C45.5855 48.7055 48.9577 49.1353 49.5529 47.9621C50.1481 46.7907 51.7524 45.3162 52.7225 45.3162C52.7225 45.3162 52.5359 44.4724 52.1148 43.3521H42.5421V43.3538Z" fill="#E87759"/>
<path fill-rule="evenodd" clip-rule="evenodd" d="M42.6328 43.4645C42.6328 43.4645 48.2843 41.4998 52.7272 43.4645C52.7272 43.4645 51.0239 45.6336 47.6791 45.6336C44.3361 45.6355 42.6328 43.4645 42.6328 43.4645Z" fill="#FFB875"/>
<path fill-rule="evenodd" clip-rule="evenodd" d="M50.3984 44.8731C50.3984 44.8731 50.3984 43.7363 51.9514 44.2424C51.9514 44.2424 51.3442 44.6261 50.3984 44.8731Z" fill="white"/>
<path fill-rule="evenodd" clip-rule="evenodd" d="M39.5234 51.0424C39.5234 51.0424 41.59 53.227 47.7932 53.2394C54.1192 53.2536 58.9358 47.9155 58.9358 47.9155C58.9358 47.9155 53.6956 52.6201 47.8466 52.5846C41.1877 52.5455 39.5234 51.0424 39.5234 51.0424Z" fill="#BF484F"/>
<path fill-rule="evenodd" clip-rule="evenodd" d="M48.0652 15.4763C48.0652 15.4763 40.4348 12.0648 35.0055 11.4422C29.5763 10.8197 25.5469 19.0141 25.5469 19.0141C25.5469 19.0141 28.9722 14.5433 33.0464 13.8627C37.1188 13.182 45.3765 15.5411 48.0652 15.4763Z" fill="#812730"/>
<path fill-rule="evenodd" clip-rule="evenodd" d="M71.3586 12.9295C71.3586 12.9295 62.0348 3.09376 47.265 2.89538C36.7923 2.74618 30.5935 6.69168 27.875 8.60763C32.3336 5.15044 38.6514 1.85433 46.3985 1.37449C46.3985 1.37449 48.3321 -1.1722 51.1909 0.667453L48.3321 1.83398C59.2719 2.51219 67.3155 8.57372 71.3214 12.8804L71.3586 12.9295Z" fill="#B76F5C"/>
<path fill-rule="evenodd" clip-rule="evenodd" d="M77.5703 29.6619C77.5703 29.6619 83.1673 32.6849 83.7823 33.4647C83.784 33.4647 81.7337 29.6414 77.5703 29.6619Z" fill="#FFD4A6"/>
<path fill-rule="evenodd" clip-rule="evenodd" d="M72.1406 46.1507C72.1406 46.1507 73.6756 47.4766 76.0227 47.2047C78.3697 46.9329 81.4585 44.1125 81.4585 44.1125C81.4585 44.1125 78.8134 47.9138 75.0838 47.9154C72.9989 47.9154 72.1406 46.1507 72.1406 46.1507Z" fill="#D77B78"/>
<path fill-rule="evenodd" clip-rule="evenodd" d="M13.8984 43.3521C13.8984 43.3521 17.4499 47.6762 20.934 47.3347C23.4984 47.0833 23.9929 45.6112 23.9929 45.6112C23.9929 45.6112 23.3336 47.704 21.1928 47.8947C16.9714 48.2727 13.8984 43.3521 13.8984 43.3521Z" fill="#BA6360"/>
<path fill-rule="evenodd" clip-rule="evenodd" d="M64.3778 46.0934C64.2967 45.595 66.022 44.7041 66.9622 44.9012C67.9042 45.0999 67.44 46.5554 66.552 46.9943C65.6658 47.4331 64.5128 46.9198 64.3778 46.0934Z" fill="#FFD4A6"/>
<path fill-rule="evenodd" clip-rule="evenodd" d="M27.344 44.229C27.6742 43.8497 29.5885 44.4534 30.1013 45.2278C30.6142 46.0021 29.1547 46.6311 28.1852 46.3072C27.2158 45.9832 26.7978 44.8595 27.344 44.229Z" fill="#FFD4A6"/>
<path d="M47.3394 61.8854C47.3394 61.8854 40.612 61.5292 31.8204 65.3373C31.8204 65.3373 31.6386 72.7647 46.8047 72.7647C61.9761 72.7647 63.3237 64.6249 63.3237 64.6249C63.3237 64.6249 53.6925 61.2569 47.3394 61.8854Z" fill="#9D3D3A"/>
<path fill-rule="evenodd" clip-rule="evenodd" d="M54.3946 88.9275C55.7606 88.9275 56.8691 90.0121 56.8691 91.3512C56.8691 92.6902 55.7617 93.7748 54.3946 93.7748C53.0286 93.7748 51.9202 92.6902 51.9202 91.3512C51.9202 90.0121 53.0276 88.9275 54.3946 88.9275ZM51.7106 102.901C55.8901 100.861 55.1137 97.3414 55.1137 97.3414L50.1621 97.1083V95.8018L61.96 93.5489C61.9158 101.955 57.0094 105.28 53.521 106.275C50.4746 107.144 49.5379 108.429 48.9194 109.278L48.9186 109.279C48.9107 109.289 48.9028 109.3 48.8949 109.311C48.8137 109.422 48.7389 109.524 48.6641 109.618C48.6641 105.888 50.2483 103.615 51.7106 102.901Z" fill="url(#paint0_linear_11780_70035)"/>
<path fill-rule="evenodd" clip-rule="evenodd" d="M47.9313 91.3512C47.9313 92.6892 46.8237 93.7748 45.4563 93.7748C44.089 93.7748 42.9824 92.6892 42.9824 91.3512C42.9824 90.0131 44.09 88.9275 45.4563 88.9275C46.8226 88.9275 47.9313 90.0121 47.9313 91.3512ZM50.2734 95.8006V97.1072L45.3228 97.3414C45.3228 97.3414 44.5475 100.86 48.726 102.901C50.1882 103.615 51.7725 105.888 51.7725 109.618C51.6941 109.52 51.6148 109.411 51.5299 109.295L51.5179 109.279L51.5172 109.278C50.8986 108.429 49.9619 107.144 46.9155 106.275C43.4272 105.28 38.5218 101.955 38.4766 93.5489L50.2734 95.8006Z" fill="url(#paint1_linear_11780_70035)"/>
<path opacity="0.58" fill-rule="evenodd" clip-rule="evenodd" d="M83.7539 38.383C83.5834 39.7389 83.2052 41.1782 82.5092 42.4437C80.7531 45.6335 78.0507 47.7542 75.2435 47.9663C72.4363 48.1784 71.5698 45.0877 71.5698 45.0877C71.5698 45.0877 70.2879 38.3535 70.7105 36.8168C70.9022 36.0971 71.5326 34.7256 72.4221 33.3923L72.6956 33.0134C72.6956 33.0134 72.1913 35.7321 74.5244 36.377C74.5244 36.377 78.4573 32.6953 80.5454 32.6118C80.5454 32.6118 82.9975 33.0881 83.523 33.7104C83.5674 33.7643 83.6047 33.893 83.6349 34.0894C83.7468 34.8369 83.7681 36.5039 83.7539 38.383Z" fill="#9D3D3A" fill-opacity="0.41"/>
<path opacity="0.18" fill-rule="evenodd" clip-rule="evenodd" d="M11.9811 38.383C12.1516 39.7389 12.5298 41.1782 13.2258 42.4437C14.9818 45.6335 17.6843 47.7542 20.4915 47.9663C23.2986 48.1784 24.1651 45.0877 24.1651 45.0877C24.1651 45.0877 25.4471 38.3535 25.0245 36.8168C24.8327 36.0971 24.2024 34.7256 23.3128 33.3923L23.0394 33.0134C23.0394 33.0134 23.5437 35.7321 21.2106 36.377C21.2106 36.377 17.2777 32.6953 15.1896 32.6118C15.1896 32.6118 12.7375 33.0881 12.2119 33.7104C12.1675 33.7643 12.1303 33.893 12.1001 34.0894C11.9882 34.8369 11.9651 36.5039 11.9811 38.383Z" fill="#8A3633"/>
<path d="M41.4878 42.7382C45.0424 39.2566 45.0424 33.6118 41.4878 30.1302C37.9333 26.6486 32.1703 26.6486 28.6157 30.1302C25.0612 33.6118 25.0612 39.2566 28.6157 42.7382C32.1703 46.2198 37.9333 46.2198 41.4878 42.7382Z" stroke="white" stroke-width="1.2497" stroke-miterlimit="10"/>
<path d="M69.6792 38.4591C70.8294 33.6658 67.7946 28.8668 62.9009 27.7402C58.0072 26.6137 53.1077 29.5862 51.9575 34.3794C50.8074 39.1727 53.8421 43.9717 58.7358 45.0983C63.6295 46.2248 68.529 43.2524 69.6792 38.4591Z" stroke="white" stroke-width="1.2497" stroke-miterlimit="10"/>
<path d="M44.2656 37.5162C44.2656 37.5162 47.562 32.3824 52.0306 37.5162" stroke="white" stroke-width="1.2497" stroke-miterlimit="10"/>
</g>
<defs>
<linearGradient id="paint0_linear_11780_70035" x1="49.427" y1="92.7742" x2="62.2565" y2="100.571" gradientUnits="userSpaceOnUse">
<stop offset="0.374951" stop-color="#C400FF"/>
<stop offset="1" stop-color="#FB2B68"/>
</linearGradient>
<linearGradient id="paint1_linear_11780_70035" x1="38.4779" y1="102.166" x2="51.7669" y2="102.166" gradientUnits="userSpaceOnUse">
<stop stop-color="#FFCC00"/>
<stop offset="1" stop-color="#FF6D00"/>
</linearGradient>
<clipPath id="clip0_11780_70035">
<rect width="64.1397" height="76.4247" fill="white" transform="translate(61.5547 36.1384)"/>
</clipPath>
</defs>
</svg>
