<svg viewBox="0 0 21 21">
<path d="M1.17188 10.3495C1.96887 6.00846 5.77323 2.71875 10.3449 2.71875C14.9166 2.71875 18.7201 6.00846 19.5179 10.3495C18.7209 14.6906 14.9166 17.9803 10.3449 17.9803C5.77323 17.9803 1.96971 14.6906 1.17188 10.3495V10.3495ZM10.3449 14.5888C11.4692 14.5888 12.5475 14.1422 13.3426 13.3472C14.1376 12.5521 14.5842 11.4739 14.5842 10.3495C14.5842 9.22518 14.1376 8.1469 13.3426 7.35187C12.5475 6.55684 11.4692 6.1102 10.3449 6.1102C9.22057 6.1102 8.14228 6.55684 7.34726 7.35187C6.55223 8.1469 6.10559 9.22518 6.10559 10.3495C6.10559 11.4739 6.55223 12.5521 7.34726 13.3472C8.14228 14.1422 9.22057 14.5888 10.3449 14.5888ZM10.3449 12.8931C9.67031 12.8931 9.02333 12.6251 8.54632 12.1481C8.0693 11.6711 7.80132 11.0241 7.80132 10.3495C7.80132 9.67492 8.0693 9.02794 8.54632 8.55093C9.02333 8.07391 9.67031 7.80593 10.3449 7.80593C11.0195 7.80593 11.6665 8.07391 12.1435 8.55093C12.6205 9.02794 12.8885 9.67492 12.8885 10.3495C12.8885 11.0241 12.6205 11.6711 12.1435 12.1481C11.6665 12.6251 11.0195 12.8931 10.3449 12.8931Z"/>
</svg>
