<svg viewBox="0 0 23 27" xmlns="http://www.w3.org/2000/svg">
<path d="M22.993 15.8063C22.993 18.4745 22.9898 21.1421 22.9984 23.8103C22.999 24.0458 22.9473 24.1131 22.7043 24.111C20.9364 24.0952 19.168 24.092 17.4001 24.0985C17.169 24.099 17.1113 24.0295 17.1221 23.8086C17.1399 23.4477 17.1367 23.0851 17.1221 22.7237C17.114 22.5223 17.1744 22.4615 17.3785 22.4632C18.6083 22.4729 19.8381 22.4599 21.0673 22.4751C21.3259 22.4783 21.3733 22.3915 21.3733 22.1538C21.3668 17.7857 21.3684 13.4171 21.3679 9.04901C21.3679 8.69567 21.3674 8.69513 21.0221 8.69513C18.9126 8.69513 16.8032 8.69079 14.6938 8.70056C14.4406 8.70164 14.3604 8.64737 14.362 8.37708C14.3738 6.24297 14.3625 4.10832 14.376 1.97367C14.3776 1.68927 14.293 1.63282 14.0286 1.63337C10.8423 1.64259 7.65613 1.64205 4.46991 1.63391C4.21243 1.63337 4.13648 1.7023 4.13863 1.96499C4.15156 3.39406 4.14079 4.82313 4.15156 6.25165C4.15318 6.48395 4.08584 6.53986 3.8623 6.52683C3.48684 6.50512 3.10924 6.51543 2.73271 6.52574C2.56842 6.53009 2.51671 6.47527 2.51724 6.30864C2.52155 4.27386 2.52209 2.23854 2.51563 0.203754C2.51509 0.0246454 2.58619 -0.00194946 2.73864 -0.000863954C3.63606 0.00510633 4.53401 0.00239257 5.43143 0.00239257C8.68983 0.00239257 11.9482 0.00456358 15.2061 -0.00194946C15.4205 -0.00249221 15.5713 0.0572107 15.7232 0.211353C18.061 2.57559 20.4021 4.93602 22.7512 7.28886C22.936 7.47394 22.9941 7.66173 22.9941 7.90977C22.9887 10.5416 22.9909 13.1734 22.9909 15.8052L22.993 15.8063ZM15.9818 2.87247C15.9818 4.16911 15.9888 5.46955 15.9753 6.77053C15.9726 7.02128 16.055 7.06687 16.2818 7.0647C17.4749 7.05384 18.6686 7.06036 19.8618 7.05819C19.9555 7.05819 20.0552 7.08532 20.1252 7.04299C18.7467 5.65517 17.3683 4.26789 15.9818 2.87247Z"/>
<path d="M6.97541 13.8986C4.97426 13.8986 2.97311 13.8986 0.972506 13.8986C0.295402 13.8986 0.0012895 13.6077 0.000750835 12.9303C-0.000326498 11.2939 -0.000326498 9.65751 0.0012895 8.02111C0.00182817 7.36329 0.305636 7.06152 0.959578 7.06152C4.97049 7.06152 8.98194 7.06207 12.9929 7.06207C13.6797 7.06207 13.9765 7.36004 13.9765 8.04933C13.9765 9.68574 13.977 11.3221 13.9765 12.9591C13.9765 13.5838 13.6716 13.898 13.0591 13.8986C11.0316 13.8997 9.00349 13.8986 6.97541 13.8986ZM6.71631 8.44446C6.39365 8.44934 6.07207 8.46183 5.75048 8.49982C5.60935 8.51665 5.57488 8.56821 5.57541 8.70227C5.57972 9.94897 5.58026 11.1957 5.57434 12.4418C5.5738 12.5971 5.6282 12.634 5.77149 12.6492C6.20996 12.6964 6.64952 12.7078 7.08691 12.672C8.3307 12.5694 9.00942 11.9979 9.2098 10.9053C9.44089 9.64394 8.79772 8.71149 7.54694 8.48951C7.27114 8.44012 6.99372 8.44826 6.71631 8.44446ZM2.0089 10.5813C2.0089 11.0328 2.0089 11.4839 2.0089 11.9354C2.0089 12.6671 2.0089 12.6622 2.74149 12.6443C2.89231 12.6405 2.94079 12.602 2.93649 12.4473C2.92625 12.0777 2.93972 11.7069 2.93002 11.3368C2.92625 11.1902 2.9715 11.1544 3.11209 11.1631C3.4633 11.1843 3.80805 11.1501 4.13987 11.0144C4.72701 10.7745 5.02544 10.2822 4.97588 9.62006C4.93386 9.05451 4.54225 8.62737 3.93625 8.50688C3.36742 8.39398 2.79589 8.44392 2.22383 8.49222C2.05038 8.50688 2.00298 8.56929 2.00567 8.73917C2.01483 9.35357 2.0089 9.96742 2.0089 10.5813ZM9.85997 10.5216C9.85997 10.7474 9.85997 10.9737 9.85997 11.1995C9.85997 11.4345 9.85943 11.6695 9.85943 11.9045C9.85943 12.6763 9.85943 12.672 10.6206 12.6454C10.7639 12.6405 10.8026 12.5976 10.7999 12.4581C10.7919 12.0245 10.8032 11.5903 10.7935 11.1566C10.7902 11.0014 10.8387 10.9509 10.9917 10.9579C11.2422 10.9688 11.4937 10.9612 11.7453 10.9612C12.3012 10.9612 12.2926 10.9612 12.2942 10.4109C12.2947 10.2241 12.2296 10.1862 12.0604 10.1916C11.7022 10.2035 11.3429 10.191 10.9842 10.1976C10.8544 10.1997 10.7843 10.1775 10.7946 10.0222C10.808 9.82414 10.8064 9.6244 10.7962 9.42576C10.7886 9.2803 10.8447 9.24014 10.9809 9.24339C11.268 9.25099 11.5552 9.24393 11.8423 9.24393C12.4143 9.24393 12.4079 9.24393 12.3998 8.67459C12.3971 8.51285 12.3572 8.45694 12.1876 8.45911C11.4878 8.46888 10.7881 8.4716 10.0884 8.45749C9.88583 8.45314 9.85458 8.52859 9.85674 8.70444C9.86482 9.31069 9.85997 9.91641 9.85997 10.5216Z" fill="#FF596D"/>
<path d="M10.2531 17.9149C10.2531 17.1464 10.2595 16.3773 10.2493 15.6088C10.2466 15.3862 10.3188 15.3037 10.5423 15.3048C12.0145 15.3108 13.4862 15.3124 14.9583 15.3037C15.2158 15.3021 15.2756 15.4052 15.274 15.6435C15.2665 17.1627 15.2745 18.6824 15.2648 20.2015C15.2632 20.4154 15.3203 20.4751 15.5304 20.4686C16.0147 20.4534 16.4995 20.4615 16.9843 20.4669C17.1545 20.4686 17.3392 20.4702 17.4297 20.6537C17.5219 20.8398 17.406 20.9853 17.2994 21.1193C15.9592 22.8051 14.6195 24.4915 13.2729 26.1724C12.961 26.5621 12.536 26.5393 12.2047 26.1257C11.1629 24.8242 10.1254 23.5188 9.08579 22.2152C8.81592 21.877 8.54551 21.5394 8.27564 21.2018C8.25302 21.1736 8.22878 21.1465 8.20938 21.1166C8.11996 20.9815 8.00469 20.8452 8.07795 20.6716C8.15821 20.4811 8.34297 20.4735 8.51481 20.4713C8.99045 20.4653 9.46717 20.4469 9.94174 20.4713C10.2143 20.4854 10.2649 20.3931 10.259 20.1402C10.2418 19.3983 10.2531 18.6563 10.2531 17.9149Z" fill="#FF596D"/>
<path d="M2.51996 19.28C2.51996 17.7526 2.52319 16.2248 2.51565 14.6975C2.51457 14.5021 2.55389 14.4245 2.76505 14.4348C3.13188 14.4527 3.50087 14.4543 3.8677 14.4348C4.09933 14.4223 4.14888 14.5064 4.14835 14.7263C4.1408 17.0313 4.14404 19.3359 4.14404 21.6409C4.14404 21.8217 4.15696 22.0035 4.1408 22.1831C4.12034 22.4062 4.19629 22.4762 4.4236 22.4741C5.64369 22.4632 6.86323 22.4751 8.08331 22.4632C8.31493 22.461 8.39843 22.512 8.38388 22.7595C8.36126 23.1378 8.37257 23.5183 8.38065 23.8982C8.38334 24.0415 8.35587 24.1099 8.19212 24.1083C7.21498 24.0985 6.2373 24.0953 5.26015 24.0953C4.43492 24.0953 3.60968 24.0947 2.78498 24.1099C2.57059 24.1137 2.51457 24.0491 2.51565 23.8364C2.52373 22.3167 2.51996 20.7986 2.51996 19.28Z"/>
<path d="M6.51908 10.5633C6.51962 10.1752 6.52662 9.78659 6.51584 9.39906C6.51154 9.23515 6.57025 9.17979 6.727 9.16459C7.36424 9.10163 7.87867 9.32959 8.10545 9.78876C8.36186 10.3076 8.27082 11.156 7.90614 11.5527C7.55439 11.9353 7.09383 11.9712 6.61711 11.9391C6.49268 11.931 6.52069 11.8295 6.52015 11.7552C6.51746 11.3579 6.51854 10.9606 6.51908 10.5633Z" fill="#FF596D"/>
<path d="M2.93404 9.8063C2.93404 9.76125 2.92165 9.71186 2.93619 9.67224C2.99545 9.50616 2.7816 9.24618 3.06547 9.16802C3.45547 9.0611 3.86216 9.21578 3.99306 9.47739C4.1218 9.73466 4.05447 10.088 3.83469 10.2638C3.60199 10.4511 3.32673 10.4641 3.04554 10.4391C2.95559 10.431 2.92973 10.3778 2.93242 10.2921C2.93727 10.1303 2.93404 9.96804 2.93404 9.8063Z" fill="#FF596D"/>
</svg>
