<svg viewBox="0 0 22 17" xmlns="http://www.w3.org/2000/svg">
<path fill-rule="evenodd" clip-rule="evenodd" d="M0.0119358 1.1868C0.0119358 0.531349 0.559143 0 1.23416 0H20.7778C21.4528 0 22 0.531349 22 1.1868V14.6264C22 15.9373 20.9056 17 19.5556 17H2.44444C1.09441 17 0 15.9373 0 14.6264V1.57158C0 1.51507 0.00406824 1.45948 0.0119358 1.40507V1.1868ZM2.44444 3.82596V14.6264H19.5556V3.82636L13.5929 9.61618C12.161 11.0066 9.83941 11.0066 8.40749 9.61618L2.44444 3.82596ZM4.36617 2.33521H17.6342L11.8645 7.93779C11.3871 8.40127 10.6133 8.40127 10.136 7.93779L4.36617 2.33521Z" />
</svg>
