<svg viewBox="0 0 17 17" xmlns="http://www.w3.org/2000/svg">
<path d="M13.1682 12.0067L16.6863 15.524L15.524 16.6863L12.0067 13.1682C10.6979 14.2173 9.07011 14.7879 7.39277 14.7855C3.31196 14.7855 0 11.4736 0 7.39277C0 3.31196 3.31196 0 7.39277 0C11.4736 0 14.7855 3.31196 14.7855 7.39277C14.7879 9.07011 14.2173 10.6979 13.1682 12.0067ZM11.5204 11.3972C12.5629 10.3251 13.1451 8.8881 13.1427 7.39277C13.1427 4.21552 10.5692 1.64284 7.39277 1.64284C4.21552 1.64284 1.64284 4.21552 1.64284 7.39277C1.64284 10.5692 4.21552 13.1427 7.39277 13.1427C8.8881 13.1451 10.3251 12.5629 11.3972 11.5204L11.5204 11.3972V11.3972ZM6.57135 6.57135V4.10709H8.21419V6.57135H10.6784V8.21419H8.21419V10.6784H6.57135V8.21419H4.10709V6.57135H6.57135Z" />
</svg>
