<svg viewBox="0 0 29 28">
<path d="M9.99424 3.64005L13.429 0.36753C13.676 0.132201 14.0111 0 14.3604 0C14.7098 0 15.0448 0.132201 15.2919 0.36753L18.7266 3.64005H23.5829C23.9323 3.64005 24.2674 3.7723 24.5145 4.00771C24.7616 4.24313 24.9004 4.56241 24.9004 4.89533V9.5223L28.3351 12.7948C28.5821 13.0302 28.7208 13.3495 28.7208 13.6823C28.7208 14.0152 28.5821 14.3344 28.3351 14.5698L24.9004 17.8423V22.4693C24.9004 22.8022 24.7616 23.1215 24.5145 23.3569C24.2674 23.5923 23.9323 23.7246 23.5829 23.7246H18.7266L15.2919 26.9971C15.0448 27.2324 14.7098 27.3646 14.3604 27.3646C14.0111 27.3646 13.676 27.2324 13.429 26.9971L9.99424 23.7246H5.13795C4.78853 23.7246 4.45342 23.5923 4.20634 23.3569C3.95926 23.1215 3.82046 22.8022 3.82046 22.4693V17.8423L0.385745 14.5698C0.138753 14.3344 0 14.0152 0 13.6823C0 13.3495 0.138753 13.0302 0.385745 12.7948L3.82046 9.5223V4.89533C3.82046 4.56241 3.95926 4.24313 4.20634 4.00771C4.45342 3.7723 4.78853 3.64005 5.13795 3.64005H9.99424ZM6.45545 6.15062V10.5629L3.18147 13.6823L6.45545 16.8017V21.214H11.0864L14.3604 24.3334L17.6344 21.214H22.2654V16.8017L25.5394 13.6823L22.2654 10.5629V6.15062H17.6344L14.3604 3.03124L11.0864 6.15062H6.45545ZM14.3604 18.7034C12.9627 18.7034 11.6223 18.1744 10.634 17.2328C9.64567 16.2911 9.09044 15.014 9.09044 13.6823C9.09044 12.3506 9.64567 11.0735 10.634 10.1318C11.6223 9.19019 12.9627 8.66118 14.3604 8.66118C15.7581 8.66118 17.0985 9.19019 18.0869 10.1318C19.0752 11.0735 19.6304 12.3506 19.6304 13.6823C19.6304 15.014 19.0752 16.2911 18.0869 17.2328C17.0985 18.1744 15.7581 18.7034 14.3604 18.7034ZM14.3604 16.1929C15.0593 16.1929 15.7295 15.9284 16.2236 15.4575C16.7178 14.9867 16.9954 14.3482 16.9954 13.6823C16.9954 13.0165 16.7178 12.3779 16.2236 11.9071C15.7295 11.4363 15.0593 11.1717 14.3604 11.1717C13.6616 11.1717 12.9914 11.4363 12.4972 11.9071C12.003 12.3779 11.7254 13.0165 11.7254 13.6823C11.7254 14.3482 12.003 14.9867 12.4972 15.4575C12.9914 15.9284 13.6616 16.1929 14.3604 16.1929Z"/>
</svg>
