<svg viewBox="0 0 23 21" xmlns="http://www.w3.org/2000/svg">
<path fill-rule="evenodd" clip-rule="evenodd" d="M17.37 3.7758C17.415 3.85738 17.4937 3.91565 17.595 3.91565C20.295 3.91565 22.5 6.19978 22.5 8.99667V15.919C22.5 18.7159 20.295 21 17.595 21H4.905C2.19375 21 0 18.7159 0 15.919V8.99667C0 6.19978 2.19375 3.91565 4.905 3.91565C4.995 3.91565 5.085 3.86903 5.11875 3.7758L5.18625 3.63596C5.22503 3.55131 5.26484 3.46436 5.30525 3.37609C5.59305 2.74743 5.91145 2.05193 6.10875 1.64317C6.62625 0.59434 7.50375 0.0116537 8.595 0H13.8938C14.985 0.0116537 15.8737 0.59434 16.3913 1.64317C16.5685 2.01029 16.8384 2.60167 17.0986 3.17163C17.1523 3.28919 17.2056 3.40584 17.2575 3.51942L17.37 3.7758ZM16.5487 8.25083C16.5487 8.83352 16.9987 9.29967 17.5612 9.29967C18.1237 9.29967 18.585 8.83352 18.585 8.25083C18.585 7.66815 18.1237 7.19034 17.5612 7.19034C16.9987 7.19034 16.5487 7.66815 16.5487 8.25083ZM9.30375 10.0572C9.8325 9.50943 10.5188 9.21809 11.25 9.21809C11.9812 9.21809 12.6675 9.50943 13.185 10.0455C13.7025 10.5816 13.9837 11.2925 13.9837 12.0499C13.9725 13.6115 12.7575 14.8818 11.25 14.8818C10.5188 14.8818 9.8325 14.5905 9.315 14.0544C8.7975 13.5183 8.51625 12.8074 8.51625 12.0499V12.0383C8.505 11.3041 8.78625 10.5932 9.30375 10.0572ZM14.3662 15.2897C13.5675 16.1171 12.465 16.6299 11.25 16.6299C10.0688 16.6299 8.96625 16.1521 8.1225 15.2897C7.29 14.4156 6.82875 13.2736 6.82875 12.0499C6.8175 10.838 7.27875 9.69589 8.11125 8.82187C8.955 7.94784 10.0688 7.47003 11.25 7.47003C12.4312 7.47003 13.545 7.94784 14.3775 8.81021C15.21 9.68424 15.6712 10.838 15.6712 12.0499C15.66 13.3202 15.165 14.4623 14.3662 15.2897Z"/>
</svg>
