<svg viewBox="0 0 27 21">
<path d="M3.36123 17.4979C3.6201 17.4979 3.81253 17.4979 4.00497 17.4979C11.2512 17.4979 18.4965 17.4979 25.7427 17.4979C26.7762 17.4979 26.996 17.7286 26.997 18.8063C26.997 19.211 27.0038 19.6158 26.995 20.0205C26.9813 20.6408 26.699 20.9444 26.1022 20.994C26.0211 21.0011 25.9391 20.999 25.858 20.999C17.8957 20.999 9.93345 20.999 1.97118 21.0001C1.41731 21.0001 0.848786 20.9414 0.510798 20.4587C0.258772 20.0985 0.0253056 19.6208 0.0233519 19.1938C-0.00790717 13.1376 -9.2407e-05 7.08033 0.00381497 1.0241C0.00381497 0.324879 0.310544 0.0192843 0.99922 0.00511762C1.40656 -0.00398949 1.81293 0.00208192 2.22028 0.00410572C3.09358 0.00714143 3.36026 0.278331 3.36026 1.17892C3.36123 6.39224 3.36123 11.6045 3.36123 16.8179C3.36123 17.0172 3.36123 17.2176 3.36123 17.4979Z"/>
<path d="M15.0538 9.81961C16.4282 8.40092 17.704 7.08343 19.0188 5.72748C18.4962 5.19623 17.9531 4.63968 17.4051 4.09022C16.9801 3.66421 16.8014 3.16737 17.0339 2.58147C17.2644 1.99963 17.7177 1.76386 18.3145 1.76588C20.3161 1.77195 22.3176 1.76285 24.3192 1.77094C25.0235 1.77398 25.3136 2.08969 25.3156 2.83445C25.3195 4.89165 25.3156 6.94783 25.3175 9.00503C25.3185 9.62026 25.0899 10.0969 24.5272 10.3306C23.9695 10.5623 23.4801 10.4045 23.0659 9.95723C22.5482 9.39866 22.0216 8.84717 21.3818 8.1692C21.2577 8.37056 21.1835 8.55068 21.0604 8.68021C19.5932 10.2122 18.1191 11.7361 16.6451 13.2621C15.6389 14.3033 14.7393 14.3064 13.7448 13.2753C12.5492 12.0357 11.3516 10.7981 10.109 9.513C9.39103 10.2608 8.68575 10.9975 7.97753 11.7331C7.25467 12.4829 6.93231 12.4789 6.19772 11.7189C5.933 11.4447 5.66436 11.1745 5.40452 10.8953C4.93857 10.3954 4.93466 9.94711 5.41331 9.4452C6.5572 8.2461 7.70499 7.05104 8.8606 5.86408C9.61668 5.08897 10.6121 5.08391 11.3799 5.86712C12.5287 7.03688 13.6598 8.22586 14.791 9.41384C14.917 9.54235 14.9932 9.72247 15.0538 9.81961Z"/>
</svg>
