<svg viewBox="0 0 20 18" xmlns="http://www.w3.org/2000/svg">
<path d="M16.8258 2.56283C16.2677 2.02869 15.3933 2.00697 14.8092 2.51273L3.88689 11.9703L2.77734 14.802L5.62752 14.4611L16.7734 4.76369C17.4354 4.18771 17.4597 3.16948 16.8258 2.56283ZM13.4397 0.939536C14.8394 -0.272446 16.9347 -0.220388 18.2721 1.0596C19.7911 2.51334 19.7331 4.9534 18.1467 6.33365L6.75816 16.2421C6.6001 16.3796 6.40419 16.4665 6.19594 16.4914L1.29388 17.0778C0.92924 17.1214 0.568425 16.9709 0.343601 16.6812C0.118777 16.3916 0.0629825 16.0055 0.196655 15.6644L2.03493 10.9729C2.09647 10.8158 2.19533 10.676 2.32301 10.5655L13.4397 0.939536Z" />
</svg>
