<svg viewBox="0 0 27 31">
<path d="M13.9771 12.1809C10.8435 12.1809 7.78632 12.1809 4.71094 12.1809C4.71094 12.9709 4.71094 13.6887 4.71094 14.493C7.85183 14.493 10.909 14.493 13.9771 14.493C13.9771 13.6742 13.9771 12.9204 13.9771 12.1809Z" />
<path d="M4.71094 19.2833C6.88736 19.2833 8.98372 19.2833 11.0655 19.2833C11.0655 18.4754 11.0655 17.7648 11.0655 17.0361C8.92185 17.0361 6.82185 17.0361 4.71094 17.0361C4.71094 17.8261 4.71094 18.5403 4.71094 19.2833Z" />
<path d="M26.4588 20.9063C25.8838 18.3562 24.2096 16.4156 22.0077 15.4705C22.0077 12.7832 22.0041 10.0924 21.9895 7.40512C21.9859 7.04081 21.7893 6.58632 21.5309 6.323C19.6275 4.38601 17.6731 2.49952 15.766 0.566132C15.3401 0.136892 14.907 -0.00378385 14.3247 -0.000176787C10.536 0.0214656 6.74361 0.0106444 2.95124 0.0106444C0.927671 0.0106444 0.00687463 0.916017 0.00323512 2.92154C-0.0040439 6.37711 0.00323512 9.83267 0.00323512 13.2846C0.00323512 16.8304 -0.0040439 20.3761 0.00687463 23.9182C0.0105141 25.6172 0.960426 26.6596 2.57637 26.6668C5.88104 26.6776 9.18572 26.6776 12.4904 26.674C13.9535 28.8671 16.4975 30.2126 19.3581 30.0683C22.6737 29.9024 25.5344 27.5758 26.3715 24.3799C26.4807 23.9651 26.4843 23.5323 26.6481 23.1355C26.6481 22.7027 26.6481 22.2698 26.6481 21.837C26.5025 21.5448 26.528 21.2166 26.4588 20.9063ZM14.7433 3.27143C16.0571 4.56636 17.3892 5.88294 18.7467 7.21755C17.4365 7.21755 16.1153 7.21755 14.7433 7.21755C14.7433 5.84326 14.7433 4.51586 14.7433 3.27143ZM2.53269 24.1347C2.53269 16.9638 2.53269 9.77496 2.53269 2.50673C5.72091 2.50673 8.90912 2.50673 12.2356 2.50673C12.2356 3.83774 12.2356 5.1471 12.2356 6.45646C12.2356 8.91648 13.0218 9.70282 15.4784 9.70282C16.8105 9.70282 18.1389 9.70282 19.562 9.70282C19.562 11.4378 19.562 13.1548 19.562 14.8681C18.9724 14.8176 18.3646 14.8248 17.7458 14.9078C13.7497 15.438 10.7507 19.2904 11.2348 23.2726C11.2712 23.5684 11.3257 23.8533 11.3913 24.1347C8.45054 24.1347 5.50253 24.1347 2.53269 24.1347ZM21.48 24.2898C20.9486 24.2934 20.4136 24.2898 19.8822 24.2898C19.8822 24.2898 19.8822 24.2934 19.8822 24.297C19.3509 24.297 18.8159 24.3042 18.2845 24.297C17.6003 24.2862 17.1271 23.8136 17.1199 23.1319C17.1126 22.158 17.1126 21.1877 17.1199 20.2138C17.1271 19.5573 17.6148 19.0667 18.2554 19.0451C18.8668 19.0271 19.4127 19.5321 19.4419 20.1741C19.4637 20.6791 19.4564 21.1841 19.4419 21.6855C19.4346 21.9163 19.5001 21.9993 19.7439 21.9921C20.3263 21.974 20.9049 21.9813 21.4873 21.9849C22.1933 21.9885 22.7174 22.4862 22.7174 23.1391C22.7138 23.792 22.1897 24.2826 21.48 24.2898Z" />
</svg>
