<svg viewBox="0 0 20 22" xmlns="http://www.w3.org/2000/svg">
<path d="M19.4842 7.36568C19.4842 6.78194 19.2435 6.51637 18.7233 6.51637C17.6959 6.51387 16.6684 6.51637 15.6409 6.51637C15.0819 6.51637 14.8516 6.77693 14.8516 7.40576C14.8516 12.0306 14.8516 16.6554 14.8516 21.2803V21.2803C14.8516 21.4283 14.9716 21.5483 15.1196 21.5483C16.5047 21.5483 17.8751 21.5483 19.2606 21.5483C19.3804 21.5483 19.4842 21.4551 19.4842 21.3354V21.3354C19.4842 16.678 19.4842 12.0206 19.4842 7.36568Z" />
<path d="M4.22583 10.6353C3.1906 10.6328 2.15795 10.6328 1.12272 10.6353C0.568865 10.6353 0.335938 10.8984 0.335938 11.5322C0.335938 14.7841 0.335938 18.036 0.335938 21.288V21.288C0.335938 21.4305 0.451486 21.546 0.594002 21.546C1.99069 21.546 3.36237 21.546 4.74268 21.546C4.86676 21.546 4.97379 21.4496 4.97379 21.3255V21.3255C4.97379 18.041 4.97379 14.7591 4.97379 11.4746C4.97638 10.9109 4.72792 10.6353 4.22583 10.6353Z" />
<path d="M11.507 9.12917C10.4795 9.12666 9.45204 9.12917 8.42457 9.12917C7.81896 9.12917 7.60156 9.37218 7.60156 10.0486C7.60156 12.8421 7.60156 18.4765 7.60156 21.27V21.27C7.60156 21.4194 7.72271 21.5406 7.87215 21.5406C9.27601 21.5406 10.6567 21.5406 12.0487 21.5406C12.1483 21.5406 12.2291 21.4598 12.2291 21.3602V21.3602C12.2291 18.4966 12.2291 12.7894 12.2291 9.92586C12.2265 9.40976 11.9703 9.12917 11.507 9.12917Z" />
<path d="M2.69651 8.76864C3.90515 8.76864 4.89897 7.87424 5.00767 6.72931L7.71999 6.32595C8.02797 7.21785 8.89757 7.86422 9.92245 7.86422C11.2061 7.86422 12.2465 6.85708 12.2465 5.61444C12.2465 5.39397 12.2129 5.18102 12.1508 4.97808L15.228 3.54754C15.6499 4.12126 16.3383 4.49456 17.1199 4.49456C18.4036 4.49456 19.444 3.48741 19.444 2.24477C19.444 1.00213 18.4036 0 17.1225 0C15.8414 0 14.7984 1.00714 14.7984 2.24978C14.7984 2.28736 14.801 2.32244 14.8036 2.35751L11.4442 3.91833C11.0379 3.5751 10.5048 3.36716 9.92504 3.36716C8.83804 3.36716 7.92962 4.0912 7.67599 5.06577L4.76698 5.49919C4.38136 4.77014 3.60234 4.27158 2.6991 4.27158C1.41541 4.27158 0.375 5.27872 0.375 6.52137C0.375 7.76401 1.41541 8.76864 2.69651 8.76864Z"/>
</svg>
