<svg viewBox="0 0 18 19" xmlns="http://www.w3.org/2000/svg">
<path fill-rule="evenodd" clip-rule="evenodd" d="M14 2.9872V1.99147C14 0.891609 13.1046 0 12 0H6C4.89543 0 4 0.891609 4 1.99147V2.9872H1C0.447716 2.9872 0 3.433 0 3.98293C0 4.53286 0.447716 4.97866 1 4.97866H2V15.9317C2 17.5815 3.34315 18.9189 5 18.9189H13C14.6569 18.9189 16 17.5815 16 15.9317V4.97866H17C17.5523 4.97866 18 4.53286 18 3.98293C18 3.433 17.5523 2.9872 17 2.9872H14ZM12 1.99147H6V2.9872H12V1.99147ZM14 4.97866H4V15.9317C4 16.4816 4.44772 16.9275 5 16.9275H13C13.5523 16.9275 14 16.4816 14 15.9317V4.97866Z" />
</svg>
