<svg viewBox="0 0 22 22" xmlns="http://www.w3.org/2000/svg">
<path d="M15.8872 8.47449C15.4445 8.47737 15.0014 8.47243 14.5587 8.47778C14.4457 8.47901 14.4025 8.44859 14.4058 8.32976C14.412 8.09171 14.4038 7.85324 14.4013 7.61477C13.8591 7.61477 13.3166 7.61477 12.7744 7.61477C12.7719 7.85283 12.7637 8.09088 12.7699 8.32894C12.7728 8.44653 12.7321 8.4786 12.6182 8.47819C11.6247 8.47449 10.6317 8.47449 9.63818 8.47819C9.52597 8.4786 9.47459 8.45023 9.4861 8.33059C9.49308 8.25699 9.48322 8.18134 9.48075 8.10651C9.48281 7.6896 9.47829 7.27269 9.48815 6.8562C9.51158 5.87807 10.1618 5.21118 11.1233 5.19761C12.0366 5.18487 12.76 5.92412 12.7686 6.85661C12.7707 7.10947 12.7728 7.36232 12.7748 7.61518C13.317 7.61518 13.8595 7.61518 14.4017 7.61518C14.4038 7.36931 14.4099 7.12303 14.407 6.87717C14.3955 5.85299 14.0141 4.99738 13.2356 4.32433C11.4529 2.78334 8.58305 3.66854 7.96813 5.9455C7.77535 6.65885 7.86702 7.38453 7.85304 8.1061C7.85057 8.1468 7.83989 8.18915 7.84729 8.22821C7.88716 8.44118 7.79344 8.48847 7.59244 8.48066C7.18428 8.46462 6.7753 8.47778 6.36632 8.47449C6.26643 8.47367 6.20231 8.47901 6.20313 8.61181C6.20971 9.94723 6.21053 11.2826 6.213 12.6185C6.75516 12.6185 7.29732 12.6185 7.83989 12.6185C7.84235 11.8529 7.84811 11.0874 7.84359 10.3218C7.84276 10.1688 7.87195 10.1121 8.04212 10.1129C10.099 10.1195 12.1562 10.1195 14.213 10.1129C14.3844 10.1125 14.4124 10.1709 14.4112 10.3226C14.4058 10.9377 14.4124 11.5528 14.4149 12.1679C14.957 12.1679 15.4996 12.1679 16.0417 12.1679C16.0442 10.9825 16.0446 9.79675 16.0512 8.6114C16.0516 8.47778 15.9858 8.47367 15.8872 8.47449Z"/>
<path d="M14.4092 19.483C14.3541 19.3111 14.2883 19.2828 14.1186 19.3387C12.4633 19.8835 10.7883 19.9398 9.09568 19.5258C8.28141 19.3263 7.52058 18.9962 6.78523 18.6011C6.75893 18.5801 6.73426 18.5559 6.70549 18.539C5.6109 17.8923 4.70003 17.0461 3.95153 16.0191C3.65805 15.6161 3.42993 15.1745 3.16768 14.7531C2.87585 14.0587 2.61196 13.3544 2.44138 12.6184C2.42905 12.5308 2.41836 12.4429 2.40438 12.3557C2.28642 11.6197 2.23627 10.8825 2.29094 10.1359C2.34437 9.40363 2.49605 8.6944 2.6954 7.99174C3.02423 7.03622 3.47062 6.14156 4.08677 5.33776C4.56069 4.71857 5.10696 4.16146 5.61994 3.57598C5.66515 3.52458 5.74695 3.48964 5.7301 3.39014C4.02675 3.39014 2.32588 3.39014 0.625411 3.39014C0.625411 3.93697 0.625411 4.4838 0.625411 5.03104C1.10263 5.03104 1.58025 5.02981 2.05747 5.03227C2.12241 5.03268 2.2112 4.99733 2.24778 5.05612C2.28683 5.11903 2.21037 5.17905 2.17708 5.23374C1.69617 6.02356 1.325 6.8619 1.06604 7.74957C1.04919 7.80795 1.03933 7.8688 1.02658 7.92842C0.852304 8.42509 0.784483 8.94355 0.705152 9.45996C0.680079 9.62442 0.702275 9.7971 0.625 9.95293C0.625 10.5133 0.625 11.0741 0.625 11.6345C0.678846 11.6629 0.661993 11.7155 0.667748 11.7599C0.705975 12.0605 0.729404 12.3631 0.797636 12.6591C1.07057 12.616 1.34473 12.611 1.61889 12.6147C1.72165 12.616 1.82441 12.6184 1.92758 12.6205C1.82482 12.6184 1.72206 12.616 1.61889 12.6147C1.34473 12.6114 1.07057 12.616 0.797636 12.6591C0.808734 12.7327 0.816133 12.8071 0.831752 12.8799C0.976849 13.5517 1.14579 14.2157 1.44132 14.8407C1.61067 15.3316 1.85853 15.7843 2.12282 16.2279C2.6732 17.1518 3.3432 17.9782 4.15335 18.6878C4.73579 19.24 5.38688 19.6997 6.08688 20.0878C7.46673 20.853 8.94277 21.2978 10.5207 21.4088C11.9565 21.51 13.3516 21.3311 14.7154 20.8756C14.8605 20.827 14.8724 20.7683 14.8231 20.6387C14.678 20.256 14.5341 19.8724 14.4092 19.483Z" />
<path d="M21.4596 16.8413C21.0156 16.8479 20.5717 16.8442 20.1274 16.8429C20.0818 16.8429 20.023 16.8635 19.9934 16.8211C19.9539 16.764 20.0123 16.7245 20.0398 16.6793C20.3358 16.1958 20.6083 15.7004 20.8011 15.165C20.7814 15.1416 20.7592 15.1297 20.7357 15.1235C20.7592 15.1297 20.7814 15.1416 20.8011 15.165C20.9162 14.9549 20.9881 14.7272 21.0625 14.501C21.3342 13.6754 21.5274 12.8338 21.5734 11.9626C21.6811 11.0001 21.6067 10.0454 21.43 9.09809C21.3116 8.46327 21.1538 7.8375 20.8878 7.24462C20.7982 7.02465 20.7189 6.80016 20.6169 6.58595C20.2112 5.73241 19.7229 4.93395 19.0862 4.22595C18.7405 3.84152 18.4064 3.44846 18.0175 3.10638C17.0586 2.26352 15.9882 1.61144 14.7913 1.15588C14.0572 0.876301 13.3095 0.671548 12.5351 0.549436C12.2827 0.509554 12.0221 0.521477 11.7767 0.435547C11.2165 0.435547 10.6558 0.435547 10.0956 0.435547C10.0594 0.495575 9.99859 0.472962 9.94762 0.478307C9.19953 0.556836 8.465 0.700739 7.7461 0.925228C7.61703 0.965521 7.56976 1.00664 7.62319 1.15259C7.7724 1.5621 7.90681 1.97736 8.0404 2.39263C8.07698 2.50569 8.11603 2.53776 8.24304 2.49829C9.60728 2.07152 10.997 1.96338 12.4089 2.19897C14.5443 2.55544 16.3204 3.56153 17.7545 5.17776C18.3201 5.81505 18.7664 6.53209 19.145 7.29313C19.1635 7.34453 19.1791 7.39674 19.2013 7.44649C19.7028 8.5714 19.9589 9.75058 19.9753 10.9807C19.9798 11.308 19.9552 11.6353 19.9441 11.963C19.8865 12.3536 19.8339 12.7446 19.7476 13.1311C19.5967 13.8066 19.3423 14.4447 19.0706 15.077C18.4343 16.3705 17.4413 17.3951 16.4815 18.4551C16.5226 18.4744 16.5283 18.4793 16.5341 18.4793C18.1869 18.4814 19.8401 18.4818 21.4929 18.4863C21.6137 18.4867 21.6211 18.4263 21.6207 18.3338C21.6182 17.8897 21.6149 17.4453 21.6223 17.0012C21.6248 16.8734 21.5837 16.8397 21.4596 16.8413ZM20.6465 15.1194C20.665 15.1182 20.6835 15.1169 20.7016 15.1178C20.6835 15.1169 20.665 15.1178 20.6465 15.1194Z"/>
<path d="M16.0386 12.1675C15.4965 12.1675 14.9539 12.1675 14.4118 12.1675C14.4081 13.1242 14.4039 14.0806 14.4002 15.0373C14.4833 15.0632 14.5671 15.0756 14.653 15.0797C14.5671 15.0756 14.4833 15.0628 14.4002 15.0373C12.2719 15.0377 10.1435 15.0373 8.01517 15.0418C7.88652 15.0422 7.8224 15.0106 7.83719 14.8757C7.83719 14.1233 7.83719 13.3709 7.83719 12.6181C7.29503 12.6181 6.75287 12.6181 6.2103 12.6181C6.2103 13.3705 6.2103 14.1233 6.2103 14.8757C6.20825 15.3884 6.20373 15.9007 6.20455 16.4134C6.20496 16.7156 6.16673 16.679 6.46063 16.679C7.91611 16.6803 9.37201 16.6795 10.8275 16.6795C12.5017 16.6795 14.1762 16.6795 15.8504 16.679C15.9494 16.679 16.0534 16.7091 16.0489 16.5355C16.0362 16.0504 16.0407 15.5652 16.0386 15.0801C16.0386 14.1093 16.0386 13.1386 16.0386 12.1675Z" />
<path d="M11.9443 12.5821C11.9464 12.1278 11.5822 11.7594 11.1292 11.7573C10.6746 11.7553 10.3063 12.1191 10.3047 12.5726C10.303 13.0274 10.6668 13.3958 11.1198 13.3974C11.5736 13.3995 11.9423 13.0352 11.9443 12.5821Z" />
</svg>
