<svg viewBox="0 0 22 22" xmlns="http://www.w3.org/2000/svg">
<path d="M22 8.30901C22 6.87172 21.4754 5.62327 20.4473 4.59514L17.4258 1.57368C16.3872 0.524559 15.1178 0 13.628 0C12.2012 0 10.7744 0 9.34764 0H5.2351C4.81545 0 4.47973 0.0314735 4.18598 0.0839294C1.68908 0.587506 0.0104912 2.63329 0 5.18264C0 9.06438 0 12.9461 0 16.8279C0 17.2055 0.0314735 17.5308 0.0839294 17.814C0.577015 20.3109 2.63329 22 5.19313 22H7.36481H10.9738H12.5055C13.9113 22 15.3066 22 16.7124 22C17.0377 22 17.4154 21.9895 17.793 21.9161C20.3004 21.423 21.979 19.3877 21.9895 16.8383C22 14.6562 21.9895 12.4635 21.9895 10.2814L22 8.30901ZM17.1321 14.9919C17.1321 13.4182 16.1774 12.1698 14.7086 11.8026C14.4568 11.7396 14.1736 11.7082 13.8588 11.7082C12.8517 11.7082 11.8445 11.7082 10.8374 11.7082C9.93515 11.7082 9.0434 11.7082 8.14115 11.7082C6.25274 11.7082 4.8784 13.0825 4.86791 14.9709C4.86791 16.0725 4.86791 17.1845 4.86791 18.2861V19.4716C4.70005 19.4506 4.53219 19.4297 4.38531 19.3877C3.30472 19.0835 2.54936 18.1183 2.4969 16.9747C2.4969 16.9223 2.4969 16.8698 2.4969 16.8174V13.3658C2.4969 10.6381 2.4969 7.91035 2.4969 5.17215C2.4969 3.94468 3.23128 2.93753 4.37482 2.60181C4.62661 2.52837 4.92036 2.48641 5.21412 2.48641C6.67239 2.47592 8.12017 2.47592 9.57845 2.47592H13.6805C14.4568 2.47592 15.0968 2.7382 15.6423 3.29423C16.6495 4.31187 17.6671 5.31903 18.6848 6.33667C19.2408 6.8927 19.5136 7.54316 19.5136 8.3195V11.7396C19.5136 13.4182 19.5136 15.0968 19.5136 16.7754C19.5136 18.1602 18.6323 19.2093 17.2685 19.4506C17.2265 19.4611 17.1846 19.4611 17.1426 19.4716V18.2756C17.1321 17.195 17.1321 16.0935 17.1321 14.9919ZM7.36481 15.0234C7.36481 14.4778 7.62709 14.2051 8.17263 14.2051C10.0505 14.2051 11.939 14.2051 13.8169 14.2051C14.3624 14.2051 14.6247 14.4778 14.6247 15.0234C14.6247 16.5131 14.6247 18.0029 14.6247 19.4926H7.36481V15.0234Z" />
<path d="M13.8835 4.87844C11.9636 4.86795 10.0437 4.87844 8.12384 4.87844C7.90353 4.87844 7.67272 4.94139 7.47339 5.0463C6.98031 5.29809 6.72852 5.8751 6.8649 6.42064C7.01178 6.98717 7.48388 7.36485 8.0609 7.36485C8.71135 7.36485 9.35131 7.36485 10.0018 7.36485H12.1315H13.831C13.9674 7.36485 14.1458 7.35436 14.3241 7.3019C14.8907 7.12355 15.2474 6.54654 15.1634 5.96952C15.0795 5.32956 14.5549 4.87844 13.8835 4.87844Z" />
</svg>
