<svg viewBox="0 0 24 29">
<path d="M23.0386 19.9655C21.2411 18.4569 20.2103 16.2517 20.2103 13.9155V10.6244C20.2103 6.47023 17.1027 3.03148 13.0773 2.45541V1.18048C13.0773 0.527676 12.5447 0 11.8884 0C11.2322 0 10.6996 0.527676 10.6996 1.18048V2.45541C6.67298 3.03148 3.56653 6.47023 3.56653 10.6244V13.9155C3.56653 16.2517 2.5358 18.4569 0.727572 19.975C0.265112 20.3681 0 20.9394 0 21.5438C0 22.683 0.933242 23.6097 2.08048 23.6097H21.6964C22.8436 23.6097 23.7769 22.683 23.7769 21.5438C23.7769 20.9394 23.5118 20.3681 23.0386 19.9655Z" />
<path d="M11.8912 28.3325C14.0442 28.3325 15.8453 26.8085 16.2591 24.791H7.52344C7.93715 26.8085 9.73825 28.3325 11.8912 28.3325Z" />
</svg>
