<svg xmlns="http://www.w3.org/2000/svg" xmlns:xlink="http://www.w3.org/1999/xlink"><defs><style>
    .sprite-symbol-usage {display: none;}
    .sprite-symbol-usage:target {display: inline;}
  </style><symbol viewBox="0 0 10 17" id="icon-arrow-left">
<path fill-rule="evenodd" clip-rule="evenodd" d="M8.9982 16.6406C9.44852 16.2173 9.44852 15.5311 8.9982 15.1079L2.31845 8.82979L8.99821 2.55166C9.44852 2.12843 9.44852 1.44223 8.99821 1.01899C8.54789 0.595756 7.81779 0.595756 7.36748 1.01899L0.687724 7.29711C-0.2129 8.14358 -0.212897 9.51599 0.687725 10.3625L7.36748 16.6406C7.81779 17.0638 8.54789 17.0638 8.9982 16.6406Z" />
</symbol><symbol viewBox="0 0 6 11" id="icon-arrow-right">
<path fill-rule="evenodd" clip-rule="evenodd" d="M0.203276 10.6962C-0.0677584 10.4122 -0.0677584 9.95167 0.203276 9.66766L4.22369 5.45469L0.203277 1.24172C-0.0677572 0.957704 -0.0677572 0.497224 0.203277 0.213209C0.474311 -0.070806 0.913744 -0.070806 1.18478 0.213209L5.2052 4.42618C5.74726 4.99421 5.74726 5.91517 5.20519 6.4832L1.18478 10.6962C0.913742 10.9802 0.474309 10.9802 0.203276 10.6962Z" />
</symbol><symbol viewBox="0 0 24 29" id="icon-bell">
<path d="M23.0386 19.9655C21.2411 18.4569 20.2103 16.2517 20.2103 13.9155V10.6244C20.2103 6.47023 17.1027 3.03148 13.0773 2.45541V1.18048C13.0773 0.527676 12.5447 0 11.8884 0C11.2322 0 10.6996 0.527676 10.6996 1.18048V2.45541C6.67298 3.03148 3.56653 6.47023 3.56653 10.6244V13.9155C3.56653 16.2517 2.5358 18.4569 0.727572 19.975C0.265112 20.3681 0 20.9394 0 21.5438C0 22.683 0.933242 23.6097 2.08048 23.6097H21.6964C22.8436 23.6097 23.7769 22.683 23.7769 21.5438C23.7769 20.9394 23.5118 20.3681 23.0386 19.9655Z" />
<path d="M11.8912 28.3325C14.0442 28.3325 15.8453 26.8085 16.2591 24.791H7.52344C7.93715 26.8085 9.73825 28.3325 11.8912 28.3325Z" />
</symbol><symbol viewBox="0 0 40 40" fill="none" id="icon-camera">
<path d="M20 16C16.686 16 14 18.6872 14 22C14 25.314 16.686 28 20 28C23.3132 28 26 25.314 26 22C26 18.6872 23.3132 16 20 16ZM36 10H31.2C30.54 10 29.8288 9.488 29.6204 8.8616L28.3796 5.138C28.1704 4.512 27.46 4 26.8 4H13.2C12.54 4 11.8288 4.512 11.6204 5.1384L10.3796 8.862C10.1704 9.488 9.46 10 8.8 10H4C1.8 10 0 11.8 0 14V32C0 34.2 1.8 36 4 36H36C38.2 36 40 34.2 40 32V14C40 11.8 38.2 10 36 10ZM20 32C14.4772 32 10 27.5228 10 22C10 16.4776 14.4772 12 20 12C25.522 12 30 16.4776 30 22C30 27.5228 25.522 32 20 32ZM34.6 16.7972C33.8272 16.7972 33.2 16.1708 33.2 15.3972C33.2 14.6244 33.8272 13.9972 34.6 13.9972C35.3736 13.9972 36 14.6244 36 15.3972C36 16.1708 35.3732 16.7972 34.6 16.7972Z" fill="#00B152" />
<line x1="20" y1="18" x2="20" y2="26" stroke="white" stroke-width="2" />
<line x1="16" y1="22" x2="24" y2="22" stroke="white" stroke-width="2" />
</symbol><symbol viewBox="0 0 27 21" id="icon-chart">
<path d="M3.36123 17.4979C3.6201 17.4979 3.81253 17.4979 4.00497 17.4979C11.2512 17.4979 18.4965 17.4979 25.7427 17.4979C26.7762 17.4979 26.996 17.7286 26.997 18.8063C26.997 19.211 27.0038 19.6158 26.995 20.0205C26.9813 20.6408 26.699 20.9444 26.1022 20.994C26.0211 21.0011 25.9391 20.999 25.858 20.999C17.8957 20.999 9.93345 20.999 1.97118 21.0001C1.41731 21.0001 0.848786 20.9414 0.510798 20.4587C0.258772 20.0985 0.0253056 19.6208 0.0233519 19.1938C-0.00790717 13.1376 -9.2407e-05 7.08033 0.00381497 1.0241C0.00381497 0.324879 0.310544 0.0192843 0.99922 0.00511762C1.40656 -0.00398949 1.81293 0.00208192 2.22028 0.00410572C3.09358 0.00714143 3.36026 0.278331 3.36026 1.17892C3.36123 6.39224 3.36123 11.6045 3.36123 16.8179C3.36123 17.0172 3.36123 17.2176 3.36123 17.4979Z" />
<path d="M15.0538 9.81961C16.4282 8.40092 17.704 7.08343 19.0188 5.72748C18.4962 5.19623 17.9531 4.63968 17.4051 4.09022C16.9801 3.66421 16.8014 3.16737 17.0339 2.58147C17.2644 1.99963 17.7177 1.76386 18.3145 1.76588C20.3161 1.77195 22.3176 1.76285 24.3192 1.77094C25.0235 1.77398 25.3136 2.08969 25.3156 2.83445C25.3195 4.89165 25.3156 6.94783 25.3175 9.00503C25.3185 9.62026 25.0899 10.0969 24.5272 10.3306C23.9695 10.5623 23.4801 10.4045 23.0659 9.95723C22.5482 9.39866 22.0216 8.84717 21.3818 8.1692C21.2577 8.37056 21.1835 8.55068 21.0604 8.68021C19.5932 10.2122 18.1191 11.7361 16.6451 13.2621C15.6389 14.3033 14.7393 14.3064 13.7448 13.2753C12.5492 12.0357 11.3516 10.7981 10.109 9.513C9.39103 10.2608 8.68575 10.9975 7.97753 11.7331C7.25467 12.4829 6.93231 12.4789 6.19772 11.7189C5.933 11.4447 5.66436 11.1745 5.40452 10.8953C4.93857 10.3954 4.93466 9.94711 5.41331 9.4452C6.5572 8.2461 7.70499 7.05104 8.8606 5.86408C9.61668 5.08897 10.6121 5.08391 11.3799 5.86712C12.5287 7.03688 13.6598 8.22586 14.791 9.41384C14.917 9.54235 14.9932 9.72247 15.0538 9.81961Z" />
</symbol><symbol viewBox="0 0 24 24" id="icon-search">
<path d="M9.65926 19.3113C11.8044 19.3114 13.8882 18.5956 15.5806 17.2772L21.9654 23.6629C22.4423 24.1236 23.2023 24.1104 23.663 23.6334C24.1123 23.1681 24.1123 22.4303 23.663 21.9651L17.2782 15.5793C20.5491 11.3681 19.7874 5.3023 15.5769 2.03089C11.3663 -1.24052 5.30149 -0.478718 2.03058 3.73247C-1.24033 7.94365 -0.478646 14.0095 3.7319 17.2809C5.42703 18.5979 7.5127 19.3124 9.65926 19.3113ZM4.52915 4.52615C7.36246 1.69235 11.9562 1.6923 14.7895 4.52604C17.6229 7.35978 17.6229 11.9542 14.7896 14.788C11.9563 17.6218 7.36262 17.6218 4.52926 14.7881C1.69595 11.975 1.67915 7.39723 4.49181 4.56349C4.50424 4.55101 4.51667 4.53858 4.52915 4.52615Z" />
</symbol><symbol viewBox="0 0 29 28" id="icon-setting">
<path d="M9.99424 3.64005L13.429 0.36753C13.676 0.132201 14.0111 0 14.3604 0C14.7098 0 15.0448 0.132201 15.2919 0.36753L18.7266 3.64005H23.5829C23.9323 3.64005 24.2674 3.7723 24.5145 4.00771C24.7616 4.24313 24.9004 4.56241 24.9004 4.89533V9.5223L28.3351 12.7948C28.5821 13.0302 28.7208 13.3495 28.7208 13.6823C28.7208 14.0152 28.5821 14.3344 28.3351 14.5698L24.9004 17.8423V22.4693C24.9004 22.8022 24.7616 23.1215 24.5145 23.3569C24.2674 23.5923 23.9323 23.7246 23.5829 23.7246H18.7266L15.2919 26.9971C15.0448 27.2324 14.7098 27.3646 14.3604 27.3646C14.0111 27.3646 13.676 27.2324 13.429 26.9971L9.99424 23.7246H5.13795C4.78853 23.7246 4.45342 23.5923 4.20634 23.3569C3.95926 23.1215 3.82046 22.8022 3.82046 22.4693V17.8423L0.385745 14.5698C0.138753 14.3344 0 14.0152 0 13.6823C0 13.3495 0.138753 13.0302 0.385745 12.7948L3.82046 9.5223V4.89533C3.82046 4.56241 3.95926 4.24313 4.20634 4.00771C4.45342 3.7723 4.78853 3.64005 5.13795 3.64005H9.99424ZM6.45545 6.15062V10.5629L3.18147 13.6823L6.45545 16.8017V21.214H11.0864L14.3604 24.3334L17.6344 21.214H22.2654V16.8017L25.5394 13.6823L22.2654 10.5629V6.15062H17.6344L14.3604 3.03124L11.0864 6.15062H6.45545ZM14.3604 18.7034C12.9627 18.7034 11.6223 18.1744 10.634 17.2328C9.64567 16.2911 9.09044 15.014 9.09044 13.6823C9.09044 12.3506 9.64567 11.0735 10.634 10.1318C11.6223 9.19019 12.9627 8.66118 14.3604 8.66118C15.7581 8.66118 17.0985 9.19019 18.0869 10.1318C19.0752 11.0735 19.6304 12.3506 19.6304 13.6823C19.6304 15.014 19.0752 16.2911 18.0869 17.2328C17.0985 18.1744 15.7581 18.7034 14.3604 18.7034ZM14.3604 16.1929C15.0593 16.1929 15.7295 15.9284 16.2236 15.4575C16.7178 14.9867 16.9954 14.3482 16.9954 13.6823C16.9954 13.0165 16.7178 12.3779 16.2236 11.9071C15.7295 11.4363 15.0593 11.1717 14.3604 11.1717C13.6616 11.1717 12.9914 11.4363 12.4972 11.9071C12.003 12.3779 11.7254 13.0165 11.7254 13.6823C11.7254 14.3482 12.003 14.9867 12.4972 15.4575C12.9914 15.9284 13.6616 16.1929 14.3604 16.1929Z" />
</symbol><symbol viewBox="0 0 27 31" id="icon-shedule">
<path d="M13.9771 12.1809C10.8435 12.1809 7.78632 12.1809 4.71094 12.1809C4.71094 12.9709 4.71094 13.6887 4.71094 14.493C7.85183 14.493 10.909 14.493 13.9771 14.493C13.9771 13.6742 13.9771 12.9204 13.9771 12.1809Z" />
<path d="M4.71094 19.2833C6.88736 19.2833 8.98372 19.2833 11.0655 19.2833C11.0655 18.4754 11.0655 17.7648 11.0655 17.0361C8.92185 17.0361 6.82185 17.0361 4.71094 17.0361C4.71094 17.8261 4.71094 18.5403 4.71094 19.2833Z" />
<path d="M26.4588 20.9063C25.8838 18.3562 24.2096 16.4156 22.0077 15.4705C22.0077 12.7832 22.0041 10.0924 21.9895 7.40512C21.9859 7.04081 21.7893 6.58632 21.5309 6.323C19.6275 4.38601 17.6731 2.49952 15.766 0.566132C15.3401 0.136892 14.907 -0.00378385 14.3247 -0.000176787C10.536 0.0214656 6.74361 0.0106444 2.95124 0.0106444C0.927671 0.0106444 0.00687463 0.916017 0.00323512 2.92154C-0.0040439 6.37711 0.00323512 9.83267 0.00323512 13.2846C0.00323512 16.8304 -0.0040439 20.3761 0.00687463 23.9182C0.0105141 25.6172 0.960426 26.6596 2.57637 26.6668C5.88104 26.6776 9.18572 26.6776 12.4904 26.674C13.9535 28.8671 16.4975 30.2126 19.3581 30.0683C22.6737 29.9024 25.5344 27.5758 26.3715 24.3799C26.4807 23.9651 26.4843 23.5323 26.6481 23.1355C26.6481 22.7027 26.6481 22.2698 26.6481 21.837C26.5025 21.5448 26.528 21.2166 26.4588 20.9063ZM14.7433 3.27143C16.0571 4.56636 17.3892 5.88294 18.7467 7.21755C17.4365 7.21755 16.1153 7.21755 14.7433 7.21755C14.7433 5.84326 14.7433 4.51586 14.7433 3.27143ZM2.53269 24.1347C2.53269 16.9638 2.53269 9.77496 2.53269 2.50673C5.72091 2.50673 8.90912 2.50673 12.2356 2.50673C12.2356 3.83774 12.2356 5.1471 12.2356 6.45646C12.2356 8.91648 13.0218 9.70282 15.4784 9.70282C16.8105 9.70282 18.1389 9.70282 19.562 9.70282C19.562 11.4378 19.562 13.1548 19.562 14.8681C18.9724 14.8176 18.3646 14.8248 17.7458 14.9078C13.7497 15.438 10.7507 19.2904 11.2348 23.2726C11.2712 23.5684 11.3257 23.8533 11.3913 24.1347C8.45054 24.1347 5.50253 24.1347 2.53269 24.1347ZM21.48 24.2898C20.9486 24.2934 20.4136 24.2898 19.8822 24.2898C19.8822 24.2898 19.8822 24.2934 19.8822 24.297C19.3509 24.297 18.8159 24.3042 18.2845 24.297C17.6003 24.2862 17.1271 23.8136 17.1199 23.1319C17.1126 22.158 17.1126 21.1877 17.1199 20.2138C17.1271 19.5573 17.6148 19.0667 18.2554 19.0451C18.8668 19.0271 19.4127 19.5321 19.4419 20.1741C19.4637 20.6791 19.4564 21.1841 19.4419 21.6855C19.4346 21.9163 19.5001 21.9993 19.7439 21.9921C20.3263 21.974 20.9049 21.9813 21.4873 21.9849C22.1933 21.9885 22.7174 22.4862 22.7174 23.1391C22.7138 23.792 22.1897 24.2826 21.48 24.2898Z" />
</symbol></defs><use id="icon-arrow-left-usage" xlink:href="#icon-arrow-left" class="sprite-symbol-usage" /><use id="icon-arrow-right-usage" xlink:href="#icon-arrow-right" class="sprite-symbol-usage" /><use id="icon-bell-usage" xlink:href="#icon-bell" class="sprite-symbol-usage" /><use id="icon-camera-usage" xlink:href="#icon-camera" class="sprite-symbol-usage" /><use id="icon-chart-usage" xlink:href="#icon-chart" class="sprite-symbol-usage" /><use id="icon-search-usage" xlink:href="#icon-search" class="sprite-symbol-usage" /><use id="icon-setting-usage" xlink:href="#icon-setting" class="sprite-symbol-usage" /><use id="icon-shedule-usage" xlink:href="#icon-shedule" class="sprite-symbol-usage" /></svg>