<svg xmlns="http://www.w3.org/2000/svg" xmlns:xlink="http://www.w3.org/1999/xlink"><defs><style>
    .sprite-symbol-usage {display: none;}
    .sprite-symbol-usage:target {display: inline;}
  </style><symbol viewBox="0 0 6 10" id="icon-arrow-accent">
<path fill-rule="evenodd" clip-rule="evenodd" d="M6.2587e-07 4.92464L4.51469 0.00016655L5.87109 1.47969L2.71281 4.92464L5.87109 8.3696L4.51469 9.84912L6.2587e-07 4.92464Z" />
</symbol><symbol viewBox="0 0 10 17" id="icon-arrow-left">
<path fill-rule="evenodd" clip-rule="evenodd" d="M8.9982 16.6406C9.44852 16.2173 9.44852 15.5311 8.9982 15.1079L2.31845 8.82979L8.99821 2.55166C9.44852 2.12843 9.44852 1.44223 8.99821 1.01899C8.54789 0.595756 7.81779 0.595756 7.36748 1.01899L0.687724 7.29711C-0.2129 8.14358 -0.212897 9.51599 0.687725 10.3625L7.36748 16.6406C7.81779 17.0638 8.54789 17.0638 8.9982 16.6406Z" />
</symbol><symbol viewBox="0 0 6 11" id="icon-arrow-right">
<path fill-rule="evenodd" clip-rule="evenodd" d="M0.203276 10.6962C-0.0677584 10.4122 -0.0677584 9.95167 0.203276 9.66766L4.22369 5.45469L0.203277 1.24172C-0.0677572 0.957704 -0.0677572 0.497224 0.203277 0.213209C0.474311 -0.070806 0.913744 -0.070806 1.18478 0.213209L5.2052 4.42618C5.74726 4.99421 5.74726 5.91517 5.20519 6.4832L1.18478 10.6962C0.913742 10.9802 0.474309 10.9802 0.203276 10.6962Z" />
</symbol><symbol viewBox="0 0 24 29" id="icon-bell">
<path d="M23.0386 19.9655C21.2411 18.4569 20.2103 16.2517 20.2103 13.9155V10.6244C20.2103 6.47023 17.1027 3.03148 13.0773 2.45541V1.18048C13.0773 0.527676 12.5447 0 11.8884 0C11.2322 0 10.6996 0.527676 10.6996 1.18048V2.45541C6.67298 3.03148 3.56653 6.47023 3.56653 10.6244V13.9155C3.56653 16.2517 2.5358 18.4569 0.727572 19.975C0.265112 20.3681 0 20.9394 0 21.5438C0 22.683 0.933242 23.6097 2.08048 23.6097H21.6964C22.8436 23.6097 23.7769 22.683 23.7769 21.5438C23.7769 20.9394 23.5118 20.3681 23.0386 19.9655Z" />
<path d="M11.8912 28.3325C14.0442 28.3325 15.8453 26.8085 16.2591 24.791H7.52344C7.93715 26.8085 9.73825 28.3325 11.8912 28.3325Z" />
</symbol><symbol viewBox="0 0 23 21" id="icon-camera">
<path fill-rule="evenodd" clip-rule="evenodd" d="M17.37 3.7758C17.415 3.85738 17.4937 3.91565 17.595 3.91565C20.295 3.91565 22.5 6.19978 22.5 8.99667V15.919C22.5 18.7159 20.295 21 17.595 21H4.905C2.19375 21 0 18.7159 0 15.919V8.99667C0 6.19978 2.19375 3.91565 4.905 3.91565C4.995 3.91565 5.085 3.86903 5.11875 3.7758L5.18625 3.63596C5.22503 3.55131 5.26484 3.46436 5.30525 3.37609C5.59305 2.74743 5.91145 2.05193 6.10875 1.64317C6.62625 0.59434 7.50375 0.0116537 8.595 0H13.8938C14.985 0.0116537 15.8737 0.59434 16.3913 1.64317C16.5685 2.01029 16.8384 2.60167 17.0986 3.17163C17.1523 3.28919 17.2056 3.40584 17.2575 3.51942L17.37 3.7758ZM16.5487 8.25083C16.5487 8.83352 16.9987 9.29967 17.5612 9.29967C18.1237 9.29967 18.585 8.83352 18.585 8.25083C18.585 7.66815 18.1237 7.19034 17.5612 7.19034C16.9987 7.19034 16.5487 7.66815 16.5487 8.25083ZM9.30375 10.0572C9.8325 9.50943 10.5188 9.21809 11.25 9.21809C11.9812 9.21809 12.6675 9.50943 13.185 10.0455C13.7025 10.5816 13.9837 11.2925 13.9837 12.0499C13.9725 13.6115 12.7575 14.8818 11.25 14.8818C10.5188 14.8818 9.8325 14.5905 9.315 14.0544C8.7975 13.5183 8.51625 12.8074 8.51625 12.0499V12.0383C8.505 11.3041 8.78625 10.5932 9.30375 10.0572ZM14.3662 15.2897C13.5675 16.1171 12.465 16.6299 11.25 16.6299C10.0688 16.6299 8.96625 16.1521 8.1225 15.2897C7.29 14.4156 6.82875 13.2736 6.82875 12.0499C6.8175 10.838 7.27875 9.69589 8.11125 8.82187C8.955 7.94784 10.0688 7.47003 11.25 7.47003C12.4312 7.47003 13.545 7.94784 14.3775 8.81021C15.21 9.68424 15.6712 10.838 15.6712 12.0499C15.66 13.3202 15.165 14.4623 14.3662 15.2897Z" />
</symbol><symbol viewBox="0 0 22 22" id="icon-change">
<path d="M15.8872 8.47449C15.4445 8.47737 15.0014 8.47243 14.5587 8.47778C14.4457 8.47901 14.4025 8.44859 14.4058 8.32976C14.412 8.09171 14.4038 7.85324 14.4013 7.61477C13.8591 7.61477 13.3166 7.61477 12.7744 7.61477C12.7719 7.85283 12.7637 8.09088 12.7699 8.32894C12.7728 8.44653 12.7321 8.4786 12.6182 8.47819C11.6247 8.47449 10.6317 8.47449 9.63818 8.47819C9.52597 8.4786 9.47459 8.45023 9.4861 8.33059C9.49308 8.25699 9.48322 8.18134 9.48075 8.10651C9.48281 7.6896 9.47829 7.27269 9.48815 6.8562C9.51158 5.87807 10.1618 5.21118 11.1233 5.19761C12.0366 5.18487 12.76 5.92412 12.7686 6.85661C12.7707 7.10947 12.7728 7.36232 12.7748 7.61518C13.317 7.61518 13.8595 7.61518 14.4017 7.61518C14.4038 7.36931 14.4099 7.12303 14.407 6.87717C14.3955 5.85299 14.0141 4.99738 13.2356 4.32433C11.4529 2.78334 8.58305 3.66854 7.96813 5.9455C7.77535 6.65885 7.86702 7.38453 7.85304 8.1061C7.85057 8.1468 7.83989 8.18915 7.84729 8.22821C7.88716 8.44118 7.79344 8.48847 7.59244 8.48066C7.18428 8.46462 6.7753 8.47778 6.36632 8.47449C6.26643 8.47367 6.20231 8.47901 6.20313 8.61181C6.20971 9.94723 6.21053 11.2826 6.213 12.6185C6.75516 12.6185 7.29732 12.6185 7.83989 12.6185C7.84235 11.8529 7.84811 11.0874 7.84359 10.3218C7.84276 10.1688 7.87195 10.1121 8.04212 10.1129C10.099 10.1195 12.1562 10.1195 14.213 10.1129C14.3844 10.1125 14.4124 10.1709 14.4112 10.3226C14.4058 10.9377 14.4124 11.5528 14.4149 12.1679C14.957 12.1679 15.4996 12.1679 16.0417 12.1679C16.0442 10.9825 16.0446 9.79675 16.0512 8.6114C16.0516 8.47778 15.9858 8.47367 15.8872 8.47449Z" />
<path d="M14.4092 19.483C14.3541 19.3111 14.2883 19.2828 14.1186 19.3387C12.4633 19.8835 10.7883 19.9398 9.09568 19.5258C8.28141 19.3263 7.52058 18.9962 6.78523 18.6011C6.75893 18.5801 6.73426 18.5559 6.70549 18.539C5.6109 17.8923 4.70003 17.0461 3.95153 16.0191C3.65805 15.6161 3.42993 15.1745 3.16768 14.7531C2.87585 14.0587 2.61196 13.3544 2.44138 12.6184C2.42905 12.5308 2.41836 12.4429 2.40438 12.3557C2.28642 11.6197 2.23627 10.8825 2.29094 10.1359C2.34437 9.40363 2.49605 8.6944 2.6954 7.99174C3.02423 7.03622 3.47062 6.14156 4.08677 5.33776C4.56069 4.71857 5.10696 4.16146 5.61994 3.57598C5.66515 3.52458 5.74695 3.48964 5.7301 3.39014C4.02675 3.39014 2.32588 3.39014 0.625411 3.39014C0.625411 3.93697 0.625411 4.4838 0.625411 5.03104C1.10263 5.03104 1.58025 5.02981 2.05747 5.03227C2.12241 5.03268 2.2112 4.99733 2.24778 5.05612C2.28683 5.11903 2.21037 5.17905 2.17708 5.23374C1.69617 6.02356 1.325 6.8619 1.06604 7.74957C1.04919 7.80795 1.03933 7.8688 1.02658 7.92842C0.852304 8.42509 0.784483 8.94355 0.705152 9.45996C0.680079 9.62442 0.702275 9.7971 0.625 9.95293C0.625 10.5133 0.625 11.0741 0.625 11.6345C0.678846 11.6629 0.661993 11.7155 0.667748 11.7599C0.705975 12.0605 0.729404 12.3631 0.797636 12.6591C1.07057 12.616 1.34473 12.611 1.61889 12.6147C1.72165 12.616 1.82441 12.6184 1.92758 12.6205C1.82482 12.6184 1.72206 12.616 1.61889 12.6147C1.34473 12.6114 1.07057 12.616 0.797636 12.6591C0.808734 12.7327 0.816133 12.8071 0.831752 12.8799C0.976849 13.5517 1.14579 14.2157 1.44132 14.8407C1.61067 15.3316 1.85853 15.7843 2.12282 16.2279C2.6732 17.1518 3.3432 17.9782 4.15335 18.6878C4.73579 19.24 5.38688 19.6997 6.08688 20.0878C7.46673 20.853 8.94277 21.2978 10.5207 21.4088C11.9565 21.51 13.3516 21.3311 14.7154 20.8756C14.8605 20.827 14.8724 20.7683 14.8231 20.6387C14.678 20.256 14.5341 19.8724 14.4092 19.483Z" />
<path d="M21.4596 16.8413C21.0156 16.8479 20.5717 16.8442 20.1274 16.8429C20.0818 16.8429 20.023 16.8635 19.9934 16.8211C19.9539 16.764 20.0123 16.7245 20.0398 16.6793C20.3358 16.1958 20.6083 15.7004 20.8011 15.165C20.7814 15.1416 20.7592 15.1297 20.7357 15.1235C20.7592 15.1297 20.7814 15.1416 20.8011 15.165C20.9162 14.9549 20.9881 14.7272 21.0625 14.501C21.3342 13.6754 21.5274 12.8338 21.5734 11.9626C21.6811 11.0001 21.6067 10.0454 21.43 9.09809C21.3116 8.46327 21.1538 7.8375 20.8878 7.24462C20.7982 7.02465 20.7189 6.80016 20.6169 6.58595C20.2112 5.73241 19.7229 4.93395 19.0862 4.22595C18.7405 3.84152 18.4064 3.44846 18.0175 3.10638C17.0586 2.26352 15.9882 1.61144 14.7913 1.15588C14.0572 0.876301 13.3095 0.671548 12.5351 0.549436C12.2827 0.509554 12.0221 0.521477 11.7767 0.435547C11.2165 0.435547 10.6558 0.435547 10.0956 0.435547C10.0594 0.495575 9.99859 0.472962 9.94762 0.478307C9.19953 0.556836 8.465 0.700739 7.7461 0.925228C7.61703 0.965521 7.56976 1.00664 7.62319 1.15259C7.7724 1.5621 7.90681 1.97736 8.0404 2.39263C8.07698 2.50569 8.11603 2.53776 8.24304 2.49829C9.60728 2.07152 10.997 1.96338 12.4089 2.19897C14.5443 2.55544 16.3204 3.56153 17.7545 5.17776C18.3201 5.81505 18.7664 6.53209 19.145 7.29313C19.1635 7.34453 19.1791 7.39674 19.2013 7.44649C19.7028 8.5714 19.9589 9.75058 19.9753 10.9807C19.9798 11.308 19.9552 11.6353 19.9441 11.963C19.8865 12.3536 19.8339 12.7446 19.7476 13.1311C19.5967 13.8066 19.3423 14.4447 19.0706 15.077C18.4343 16.3705 17.4413 17.3951 16.4815 18.4551C16.5226 18.4744 16.5283 18.4793 16.5341 18.4793C18.1869 18.4814 19.8401 18.4818 21.4929 18.4863C21.6137 18.4867 21.6211 18.4263 21.6207 18.3338C21.6182 17.8897 21.6149 17.4453 21.6223 17.0012C21.6248 16.8734 21.5837 16.8397 21.4596 16.8413ZM20.6465 15.1194C20.665 15.1182 20.6835 15.1169 20.7016 15.1178C20.6835 15.1169 20.665 15.1178 20.6465 15.1194Z" />
<path d="M16.0386 12.1675C15.4965 12.1675 14.9539 12.1675 14.4118 12.1675C14.4081 13.1242 14.4039 14.0806 14.4002 15.0373C14.4833 15.0632 14.5671 15.0756 14.653 15.0797C14.5671 15.0756 14.4833 15.0628 14.4002 15.0373C12.2719 15.0377 10.1435 15.0373 8.01517 15.0418C7.88652 15.0422 7.8224 15.0106 7.83719 14.8757C7.83719 14.1233 7.83719 13.3709 7.83719 12.6181C7.29503 12.6181 6.75287 12.6181 6.2103 12.6181C6.2103 13.3705 6.2103 14.1233 6.2103 14.8757C6.20825 15.3884 6.20373 15.9007 6.20455 16.4134C6.20496 16.7156 6.16673 16.679 6.46063 16.679C7.91611 16.6803 9.37201 16.6795 10.8275 16.6795C12.5017 16.6795 14.1762 16.6795 15.8504 16.679C15.9494 16.679 16.0534 16.7091 16.0489 16.5355C16.0362 16.0504 16.0407 15.5652 16.0386 15.0801C16.0386 14.1093 16.0386 13.1386 16.0386 12.1675Z" />
<path d="M11.9443 12.5821C11.9464 12.1278 11.5822 11.7594 11.1292 11.7573C10.6746 11.7553 10.3063 12.1191 10.3047 12.5726C10.303 13.0274 10.6668 13.3958 11.1198 13.3974C11.5736 13.3995 11.9423 13.0352 11.9443 12.5821Z" />
</symbol><symbol viewBox="0 0 20 22" id="icon-chart">
<path d="M19.4842 7.36568C19.4842 6.78194 19.2435 6.51637 18.7233 6.51637C17.6959 6.51387 16.6684 6.51637 15.6409 6.51637C15.0819 6.51637 14.8516 6.77693 14.8516 7.40576C14.8516 12.0306 14.8516 16.6554 14.8516 21.2803V21.2803C14.8516 21.4283 14.9716 21.5483 15.1196 21.5483C16.5047 21.5483 17.8751 21.5483 19.2606 21.5483C19.3804 21.5483 19.4842 21.4551 19.4842 21.3354V21.3354C19.4842 16.678 19.4842 12.0206 19.4842 7.36568Z" />
<path d="M4.22583 10.6353C3.1906 10.6328 2.15795 10.6328 1.12272 10.6353C0.568865 10.6353 0.335938 10.8984 0.335938 11.5322C0.335938 14.7841 0.335938 18.036 0.335938 21.288V21.288C0.335938 21.4305 0.451486 21.546 0.594002 21.546C1.99069 21.546 3.36237 21.546 4.74268 21.546C4.86676 21.546 4.97379 21.4496 4.97379 21.3255V21.3255C4.97379 18.041 4.97379 14.7591 4.97379 11.4746C4.97638 10.9109 4.72792 10.6353 4.22583 10.6353Z" />
<path d="M11.507 9.12917C10.4795 9.12666 9.45204 9.12917 8.42457 9.12917C7.81896 9.12917 7.60156 9.37218 7.60156 10.0486C7.60156 12.8421 7.60156 18.4765 7.60156 21.27V21.27C7.60156 21.4194 7.72271 21.5406 7.87215 21.5406C9.27601 21.5406 10.6567 21.5406 12.0487 21.5406C12.1483 21.5406 12.2291 21.4598 12.2291 21.3602V21.3602C12.2291 18.4966 12.2291 12.7894 12.2291 9.92586C12.2265 9.40976 11.9703 9.12917 11.507 9.12917Z" />
<path d="M2.69651 8.76864C3.90515 8.76864 4.89897 7.87424 5.00767 6.72931L7.71999 6.32595C8.02797 7.21785 8.89757 7.86422 9.92245 7.86422C11.2061 7.86422 12.2465 6.85708 12.2465 5.61444C12.2465 5.39397 12.2129 5.18102 12.1508 4.97808L15.228 3.54754C15.6499 4.12126 16.3383 4.49456 17.1199 4.49456C18.4036 4.49456 19.444 3.48741 19.444 2.24477C19.444 1.00213 18.4036 0 17.1225 0C15.8414 0 14.7984 1.00714 14.7984 2.24978C14.7984 2.28736 14.801 2.32244 14.8036 2.35751L11.4442 3.91833C11.0379 3.5751 10.5048 3.36716 9.92504 3.36716C8.83804 3.36716 7.92962 4.0912 7.67599 5.06577L4.76698 5.49919C4.38136 4.77014 3.60234 4.27158 2.6991 4.27158C1.41541 4.27158 0.375 5.27872 0.375 6.52137C0.375 7.76401 1.41541 8.76864 2.69651 8.76864Z" />
</symbol><symbol viewBox="0 0 18 19" id="icon-delete">
<path fill-rule="evenodd" clip-rule="evenodd" d="M14 2.9872V1.99147C14 0.891609 13.1046 0 12 0H6C4.89543 0 4 0.891609 4 1.99147V2.9872H1C0.447716 2.9872 0 3.433 0 3.98293C0 4.53286 0.447716 4.97866 1 4.97866H2V15.9317C2 17.5815 3.34315 18.9189 5 18.9189H13C14.6569 18.9189 16 17.5815 16 15.9317V4.97866H17C17.5523 4.97866 18 4.53286 18 3.98293C18 3.433 17.5523 2.9872 17 2.9872H14ZM12 1.99147H6V2.9872H12V1.99147ZM14 4.97866H4V15.9317C4 16.4816 4.44772 16.9275 5 16.9275H13C13.5523 16.9275 14 16.4816 14 15.9317V4.97866Z" />
</symbol><symbol viewBox="0 0 24 24" id="icon-dots">
<path d="M8 12C8 13.1046 7.10457 14 6 14C4.89543 14 4 13.1046 4 12C4 10.8954 4.89543 10 6 10C7.10457 10 8 10.8954 8 12Z" />
<path d="M14 12C14 13.1046 13.1046 14 12 14C10.8954 14 10 13.1046 10 12C10 10.8954 10.8954 10 12 10C13.1046 10 14 10.8954 14 12Z" />
<path d="M18 14C19.1046 14 20 13.1046 20 12C20 10.8954 19.1046 10 18 10C16.8954 10 16 10.8954 16 12C16 13.1046 16.8954 14 18 14Z" />
</symbol><symbol viewBox="0 0 21 21" id="icon-eye">
<path d="M1.17188 10.3495C1.96887 6.00846 5.77323 2.71875 10.3449 2.71875C14.9166 2.71875 18.7201 6.00846 19.5179 10.3495C18.7209 14.6906 14.9166 17.9803 10.3449 17.9803C5.77323 17.9803 1.96971 14.6906 1.17188 10.3495V10.3495ZM10.3449 14.5888C11.4692 14.5888 12.5475 14.1422 13.3426 13.3472C14.1376 12.5521 14.5842 11.4739 14.5842 10.3495C14.5842 9.22518 14.1376 8.1469 13.3426 7.35187C12.5475 6.55684 11.4692 6.1102 10.3449 6.1102C9.22057 6.1102 8.14228 6.55684 7.34726 7.35187C6.55223 8.1469 6.10559 9.22518 6.10559 10.3495C6.10559 11.4739 6.55223 12.5521 7.34726 13.3472C8.14228 14.1422 9.22057 14.5888 10.3449 14.5888ZM10.3449 12.8931C9.67031 12.8931 9.02333 12.6251 8.54632 12.1481C8.0693 11.6711 7.80132 11.0241 7.80132 10.3495C7.80132 9.67492 8.0693 9.02794 8.54632 8.55093C9.02333 8.07391 9.67031 7.80593 10.3449 7.80593C11.0195 7.80593 11.6665 8.07391 12.1435 8.55093C12.6205 9.02794 12.8885 9.67492 12.8885 10.3495C12.8885 11.0241 12.6205 11.6711 12.1435 12.1481C11.6665 12.6251 11.0195 12.8931 10.3449 12.8931Z" />
</symbol><symbol viewBox="0 0 18 18" id="icon-filter">
<path d="M6.24971 9.12625L1.60151 2.10558H0.671875V0.233398H17.4054V2.10558H16.4757L11.8275 9.12625V17.083H6.24971V9.12625ZM3.83637 2.10558L8.10899 8.55898V15.2108H9.96827V8.55898L14.2409 2.10558H3.83637Z" />
</symbol><symbol viewBox="0 0 10 9" id="icon-less">
<path d="M1.37698 8.7749L0.382812 7.84421L6.75953 1.8746L3.53593 1.8746L3.53593 0.558399L9.15977 0.558399L9.15977 5.82319L7.75381 5.82319L7.75381 2.80518L1.37698 8.7749Z" />
</symbol><symbol viewBox="0 0 22 17" id="icon-mail">
<path fill-rule="evenodd" clip-rule="evenodd" d="M0.0119358 1.1868C0.0119358 0.531349 0.559143 0 1.23416 0H20.7778C21.4528 0 22 0.531349 22 1.1868V14.6264C22 15.9373 20.9056 17 19.5556 17H2.44444C1.09441 17 0 15.9373 0 14.6264V1.57158C0 1.51507 0.00406824 1.45948 0.0119358 1.40507V1.1868ZM2.44444 3.82596V14.6264H19.5556V3.82636L13.5929 9.61618C12.161 11.0066 9.83941 11.0066 8.40749 9.61618L2.44444 3.82596ZM4.36617 2.33521H17.6342L11.8645 7.93779C11.3871 8.40127 10.6133 8.40127 10.136 7.93779L4.36617 2.33521Z" />
</symbol><symbol viewBox="0 0 16 2" id="icon-minus">
<path d="M0 1C0 0.447715 0.447715 0 1 0H15C15.5523 0 16 0.447715 16 1C16 1.55228 15.5523 2 15 2H1C0.447715 2 0 1.55228 0 1Z" />
</symbol><symbol viewBox="0 0 9 9" fill="none" id="icon-more">
<path d="M0 0.994163L0.930693 0L6.90031 6.37672L6.90031 3.15312H8.2165L8.21651 8.77695H2.95171V7.371L5.96972 7.37099L0 0.994163Z" fill="#D28D95" />
</symbol><symbol viewBox="0 0 23 27" id="icon-pdf">
<path d="M22.993 15.8063C22.993 18.4745 22.9898 21.1421 22.9984 23.8103C22.999 24.0458 22.9473 24.1131 22.7043 24.111C20.9364 24.0952 19.168 24.092 17.4001 24.0985C17.169 24.099 17.1113 24.0295 17.1221 23.8086C17.1399 23.4477 17.1367 23.0851 17.1221 22.7237C17.114 22.5223 17.1744 22.4615 17.3785 22.4632C18.6083 22.4729 19.8381 22.4599 21.0673 22.4751C21.3259 22.4783 21.3733 22.3915 21.3733 22.1538C21.3668 17.7857 21.3684 13.4171 21.3679 9.04901C21.3679 8.69567 21.3674 8.69513 21.0221 8.69513C18.9126 8.69513 16.8032 8.69079 14.6938 8.70056C14.4406 8.70164 14.3604 8.64737 14.362 8.37708C14.3738 6.24297 14.3625 4.10832 14.376 1.97367C14.3776 1.68927 14.293 1.63282 14.0286 1.63337C10.8423 1.64259 7.65613 1.64205 4.46991 1.63391C4.21243 1.63337 4.13648 1.7023 4.13863 1.96499C4.15156 3.39406 4.14079 4.82313 4.15156 6.25165C4.15318 6.48395 4.08584 6.53986 3.8623 6.52683C3.48684 6.50512 3.10924 6.51543 2.73271 6.52574C2.56842 6.53009 2.51671 6.47527 2.51724 6.30864C2.52155 4.27386 2.52209 2.23854 2.51563 0.203754C2.51509 0.0246454 2.58619 -0.00194946 2.73864 -0.000863954C3.63606 0.00510633 4.53401 0.00239257 5.43143 0.00239257C8.68983 0.00239257 11.9482 0.00456358 15.2061 -0.00194946C15.4205 -0.00249221 15.5713 0.0572107 15.7232 0.211353C18.061 2.57559 20.4021 4.93602 22.7512 7.28886C22.936 7.47394 22.9941 7.66173 22.9941 7.90977C22.9887 10.5416 22.9909 13.1734 22.9909 15.8052L22.993 15.8063ZM15.9818 2.87247C15.9818 4.16911 15.9888 5.46955 15.9753 6.77053C15.9726 7.02128 16.055 7.06687 16.2818 7.0647C17.4749 7.05384 18.6686 7.06036 19.8618 7.05819C19.9555 7.05819 20.0552 7.08532 20.1252 7.04299C18.7467 5.65517 17.3683 4.26789 15.9818 2.87247Z" />
<path d="M6.97541 13.8986C4.97426 13.8986 2.97311 13.8986 0.972506 13.8986C0.295402 13.8986 0.0012895 13.6077 0.000750835 12.9303C-0.000326498 11.2939 -0.000326498 9.65751 0.0012895 8.02111C0.00182817 7.36329 0.305636 7.06152 0.959578 7.06152C4.97049 7.06152 8.98194 7.06207 12.9929 7.06207C13.6797 7.06207 13.9765 7.36004 13.9765 8.04933C13.9765 9.68574 13.977 11.3221 13.9765 12.9591C13.9765 13.5838 13.6716 13.898 13.0591 13.8986C11.0316 13.8997 9.00349 13.8986 6.97541 13.8986ZM6.71631 8.44446C6.39365 8.44934 6.07207 8.46183 5.75048 8.49982C5.60935 8.51665 5.57488 8.56821 5.57541 8.70227C5.57972 9.94897 5.58026 11.1957 5.57434 12.4418C5.5738 12.5971 5.6282 12.634 5.77149 12.6492C6.20996 12.6964 6.64952 12.7078 7.08691 12.672C8.3307 12.5694 9.00942 11.9979 9.2098 10.9053C9.44089 9.64394 8.79772 8.71149 7.54694 8.48951C7.27114 8.44012 6.99372 8.44826 6.71631 8.44446ZM2.0089 10.5813C2.0089 11.0328 2.0089 11.4839 2.0089 11.9354C2.0089 12.6671 2.0089 12.6622 2.74149 12.6443C2.89231 12.6405 2.94079 12.602 2.93649 12.4473C2.92625 12.0777 2.93972 11.7069 2.93002 11.3368C2.92625 11.1902 2.9715 11.1544 3.11209 11.1631C3.4633 11.1843 3.80805 11.1501 4.13987 11.0144C4.72701 10.7745 5.02544 10.2822 4.97588 9.62006C4.93386 9.05451 4.54225 8.62737 3.93625 8.50688C3.36742 8.39398 2.79589 8.44392 2.22383 8.49222C2.05038 8.50688 2.00298 8.56929 2.00567 8.73917C2.01483 9.35357 2.0089 9.96742 2.0089 10.5813ZM9.85997 10.5216C9.85997 10.7474 9.85997 10.9737 9.85997 11.1995C9.85997 11.4345 9.85943 11.6695 9.85943 11.9045C9.85943 12.6763 9.85943 12.672 10.6206 12.6454C10.7639 12.6405 10.8026 12.5976 10.7999 12.4581C10.7919 12.0245 10.8032 11.5903 10.7935 11.1566C10.7902 11.0014 10.8387 10.9509 10.9917 10.9579C11.2422 10.9688 11.4937 10.9612 11.7453 10.9612C12.3012 10.9612 12.2926 10.9612 12.2942 10.4109C12.2947 10.2241 12.2296 10.1862 12.0604 10.1916C11.7022 10.2035 11.3429 10.191 10.9842 10.1976C10.8544 10.1997 10.7843 10.1775 10.7946 10.0222C10.808 9.82414 10.8064 9.6244 10.7962 9.42576C10.7886 9.2803 10.8447 9.24014 10.9809 9.24339C11.268 9.25099 11.5552 9.24393 11.8423 9.24393C12.4143 9.24393 12.4079 9.24393 12.3998 8.67459C12.3971 8.51285 12.3572 8.45694 12.1876 8.45911C11.4878 8.46888 10.7881 8.4716 10.0884 8.45749C9.88583 8.45314 9.85458 8.52859 9.85674 8.70444C9.86482 9.31069 9.85997 9.91641 9.85997 10.5216Z" fill="#FF596D" />
<path d="M10.2531 17.9149C10.2531 17.1464 10.2595 16.3773 10.2493 15.6088C10.2466 15.3862 10.3188 15.3037 10.5423 15.3048C12.0145 15.3108 13.4862 15.3124 14.9583 15.3037C15.2158 15.3021 15.2756 15.4052 15.274 15.6435C15.2665 17.1627 15.2745 18.6824 15.2648 20.2015C15.2632 20.4154 15.3203 20.4751 15.5304 20.4686C16.0147 20.4534 16.4995 20.4615 16.9843 20.4669C17.1545 20.4686 17.3392 20.4702 17.4297 20.6537C17.5219 20.8398 17.406 20.9853 17.2994 21.1193C15.9592 22.8051 14.6195 24.4915 13.2729 26.1724C12.961 26.5621 12.536 26.5393 12.2047 26.1257C11.1629 24.8242 10.1254 23.5188 9.08579 22.2152C8.81592 21.877 8.54551 21.5394 8.27564 21.2018C8.25302 21.1736 8.22878 21.1465 8.20938 21.1166C8.11996 20.9815 8.00469 20.8452 8.07795 20.6716C8.15821 20.4811 8.34297 20.4735 8.51481 20.4713C8.99045 20.4653 9.46717 20.4469 9.94174 20.4713C10.2143 20.4854 10.2649 20.3931 10.259 20.1402C10.2418 19.3983 10.2531 18.6563 10.2531 17.9149Z" fill="#FF596D" />
<path d="M2.51996 19.28C2.51996 17.7526 2.52319 16.2248 2.51565 14.6975C2.51457 14.5021 2.55389 14.4245 2.76505 14.4348C3.13188 14.4527 3.50087 14.4543 3.8677 14.4348C4.09933 14.4223 4.14888 14.5064 4.14835 14.7263C4.1408 17.0313 4.14404 19.3359 4.14404 21.6409C4.14404 21.8217 4.15696 22.0035 4.1408 22.1831C4.12034 22.4062 4.19629 22.4762 4.4236 22.4741C5.64369 22.4632 6.86323 22.4751 8.08331 22.4632C8.31493 22.461 8.39843 22.512 8.38388 22.7595C8.36126 23.1378 8.37257 23.5183 8.38065 23.8982C8.38334 24.0415 8.35587 24.1099 8.19212 24.1083C7.21498 24.0985 6.2373 24.0953 5.26015 24.0953C4.43492 24.0953 3.60968 24.0947 2.78498 24.1099C2.57059 24.1137 2.51457 24.0491 2.51565 23.8364C2.52373 22.3167 2.51996 20.7986 2.51996 19.28Z" />
<path d="M6.51908 10.5633C6.51962 10.1752 6.52662 9.78659 6.51584 9.39906C6.51154 9.23515 6.57025 9.17979 6.727 9.16459C7.36424 9.10163 7.87867 9.32959 8.10545 9.78876C8.36186 10.3076 8.27082 11.156 7.90614 11.5527C7.55439 11.9353 7.09383 11.9712 6.61711 11.9391C6.49268 11.931 6.52069 11.8295 6.52015 11.7552C6.51746 11.3579 6.51854 10.9606 6.51908 10.5633Z" fill="#FF596D" />
<path d="M2.93404 9.8063C2.93404 9.76125 2.92165 9.71186 2.93619 9.67224C2.99545 9.50616 2.7816 9.24618 3.06547 9.16802C3.45547 9.0611 3.86216 9.21578 3.99306 9.47739C4.1218 9.73466 4.05447 10.088 3.83469 10.2638C3.60199 10.4511 3.32673 10.4641 3.04554 10.4391C2.95559 10.431 2.92973 10.3778 2.93242 10.2921C2.93727 10.1303 2.93404 9.96804 2.93404 9.8063Z" fill="#FF596D" />
</symbol><symbol viewBox="0 0 20 18" id="icon-pen">
<path d="M16.8258 2.56283C16.2677 2.02869 15.3933 2.00697 14.8092 2.51273L3.88689 11.9703L2.77734 14.802L5.62752 14.4611L16.7734 4.76369C17.4354 4.18771 17.4597 3.16948 16.8258 2.56283ZM13.4397 0.939536C14.8394 -0.272446 16.9347 -0.220388 18.2721 1.0596C19.7911 2.51334 19.7331 4.9534 18.1467 6.33365L6.75816 16.2421C6.6001 16.3796 6.40419 16.4665 6.19594 16.4914L1.29388 17.0778C0.92924 17.1214 0.568425 16.9709 0.343601 16.6812C0.118777 16.3916 0.0629825 16.0055 0.196655 15.6644L2.03493 10.9729C2.09647 10.8158 2.19533 10.676 2.32301 10.5655L13.4397 0.939536Z" />
</symbol><symbol viewBox="0 0 16 16" id="icon-plus">
<path d="M8 0C7.44772 0 7 0.447715 7 1V7H1C0.447715 7 0 7.44772 0 8C0 8.55229 0.447715 9 1 9H7V15C7 15.5523 7.44772 16 8 16C8.55229 16 9 15.5523 9 15V9H15C15.5523 9 16 8.55229 16 8C16 7.44772 15.5523 7 15 7H9V1C9 0.447715 8.55229 0 8 0Z" />
</symbol><symbol viewBox="0 0 22 22" id="icon-save">
<path d="M22 8.30901C22 6.87172 21.4754 5.62327 20.4473 4.59514L17.4258 1.57368C16.3872 0.524559 15.1178 0 13.628 0C12.2012 0 10.7744 0 9.34764 0H5.2351C4.81545 0 4.47973 0.0314735 4.18598 0.0839294C1.68908 0.587506 0.0104912 2.63329 0 5.18264C0 9.06438 0 12.9461 0 16.8279C0 17.2055 0.0314735 17.5308 0.0839294 17.814C0.577015 20.3109 2.63329 22 5.19313 22H7.36481H10.9738H12.5055C13.9113 22 15.3066 22 16.7124 22C17.0377 22 17.4154 21.9895 17.793 21.9161C20.3004 21.423 21.979 19.3877 21.9895 16.8383C22 14.6562 21.9895 12.4635 21.9895 10.2814L22 8.30901ZM17.1321 14.9919C17.1321 13.4182 16.1774 12.1698 14.7086 11.8026C14.4568 11.7396 14.1736 11.7082 13.8588 11.7082C12.8517 11.7082 11.8445 11.7082 10.8374 11.7082C9.93515 11.7082 9.0434 11.7082 8.14115 11.7082C6.25274 11.7082 4.8784 13.0825 4.86791 14.9709C4.86791 16.0725 4.86791 17.1845 4.86791 18.2861V19.4716C4.70005 19.4506 4.53219 19.4297 4.38531 19.3877C3.30472 19.0835 2.54936 18.1183 2.4969 16.9747C2.4969 16.9223 2.4969 16.8698 2.4969 16.8174V13.3658C2.4969 10.6381 2.4969 7.91035 2.4969 5.17215C2.4969 3.94468 3.23128 2.93753 4.37482 2.60181C4.62661 2.52837 4.92036 2.48641 5.21412 2.48641C6.67239 2.47592 8.12017 2.47592 9.57845 2.47592H13.6805C14.4568 2.47592 15.0968 2.7382 15.6423 3.29423C16.6495 4.31187 17.6671 5.31903 18.6848 6.33667C19.2408 6.8927 19.5136 7.54316 19.5136 8.3195V11.7396C19.5136 13.4182 19.5136 15.0968 19.5136 16.7754C19.5136 18.1602 18.6323 19.2093 17.2685 19.4506C17.2265 19.4611 17.1846 19.4611 17.1426 19.4716V18.2756C17.1321 17.195 17.1321 16.0935 17.1321 14.9919ZM7.36481 15.0234C7.36481 14.4778 7.62709 14.2051 8.17263 14.2051C10.0505 14.2051 11.939 14.2051 13.8169 14.2051C14.3624 14.2051 14.6247 14.4778 14.6247 15.0234C14.6247 16.5131 14.6247 18.0029 14.6247 19.4926H7.36481V15.0234Z" />
<path d="M13.8835 4.87844C11.9636 4.86795 10.0437 4.87844 8.12384 4.87844C7.90353 4.87844 7.67272 4.94139 7.47339 5.0463C6.98031 5.29809 6.72852 5.8751 6.8649 6.42064C7.01178 6.98717 7.48388 7.36485 8.0609 7.36485C8.71135 7.36485 9.35131 7.36485 10.0018 7.36485H12.1315H13.831C13.9674 7.36485 14.1458 7.35436 14.3241 7.3019C14.8907 7.12355 15.2474 6.54654 15.1634 5.96952C15.0795 5.32956 14.5549 4.87844 13.8835 4.87844Z" />
</symbol><symbol viewBox="0 0 17 17" id="icon-scale-plus">
<path d="M13.1682 12.0067L16.6863 15.524L15.524 16.6863L12.0067 13.1682C10.6979 14.2173 9.07011 14.7879 7.39277 14.7855C3.31196 14.7855 0 11.4736 0 7.39277C0 3.31196 3.31196 0 7.39277 0C11.4736 0 14.7855 3.31196 14.7855 7.39277C14.7879 9.07011 14.2173 10.6979 13.1682 12.0067ZM11.5204 11.3972C12.5629 10.3251 13.1451 8.8881 13.1427 7.39277C13.1427 4.21552 10.5692 1.64284 7.39277 1.64284C4.21552 1.64284 1.64284 4.21552 1.64284 7.39277C1.64284 10.5692 4.21552 13.1427 7.39277 13.1427C8.8881 13.1451 10.3251 12.5629 11.3972 11.5204L11.5204 11.3972V11.3972ZM6.57135 6.57135V4.10709H8.21419V6.57135H10.6784V8.21419H8.21419V10.6784H6.57135V8.21419H4.10709V6.57135H6.57135Z" />
</symbol><symbol viewBox="0 0 24 24" id="icon-search">
<path d="M9.65926 19.3113C11.8044 19.3114 13.8882 18.5956 15.5806 17.2772L21.9654 23.6629C22.4423 24.1236 23.2023 24.1104 23.663 23.6334C24.1123 23.1681 24.1123 22.4303 23.663 21.9651L17.2782 15.5793C20.5491 11.3681 19.7874 5.3023 15.5769 2.03089C11.3663 -1.24052 5.30149 -0.478718 2.03058 3.73247C-1.24033 7.94365 -0.478646 14.0095 3.7319 17.2809C5.42703 18.5979 7.5127 19.3124 9.65926 19.3113ZM4.52915 4.52615C7.36246 1.69235 11.9562 1.6923 14.7895 4.52604C17.6229 7.35978 17.6229 11.9542 14.7896 14.788C11.9563 17.6218 7.36262 17.6218 4.52926 14.7881C1.69595 11.975 1.67915 7.39723 4.49181 4.56349C4.50424 4.55101 4.51667 4.53858 4.52915 4.52615Z" />
</symbol><symbol viewBox="0 0 29 28" id="icon-setting">
<path d="M9.99424 3.64005L13.429 0.36753C13.676 0.132201 14.0111 0 14.3604 0C14.7098 0 15.0448 0.132201 15.2919 0.36753L18.7266 3.64005H23.5829C23.9323 3.64005 24.2674 3.7723 24.5145 4.00771C24.7616 4.24313 24.9004 4.56241 24.9004 4.89533V9.5223L28.3351 12.7948C28.5821 13.0302 28.7208 13.3495 28.7208 13.6823C28.7208 14.0152 28.5821 14.3344 28.3351 14.5698L24.9004 17.8423V22.4693C24.9004 22.8022 24.7616 23.1215 24.5145 23.3569C24.2674 23.5923 23.9323 23.7246 23.5829 23.7246H18.7266L15.2919 26.9971C15.0448 27.2324 14.7098 27.3646 14.3604 27.3646C14.0111 27.3646 13.676 27.2324 13.429 26.9971L9.99424 23.7246H5.13795C4.78853 23.7246 4.45342 23.5923 4.20634 23.3569C3.95926 23.1215 3.82046 22.8022 3.82046 22.4693V17.8423L0.385745 14.5698C0.138753 14.3344 0 14.0152 0 13.6823C0 13.3495 0.138753 13.0302 0.385745 12.7948L3.82046 9.5223V4.89533C3.82046 4.56241 3.95926 4.24313 4.20634 4.00771C4.45342 3.7723 4.78853 3.64005 5.13795 3.64005H9.99424ZM6.45545 6.15062V10.5629L3.18147 13.6823L6.45545 16.8017V21.214H11.0864L14.3604 24.3334L17.6344 21.214H22.2654V16.8017L25.5394 13.6823L22.2654 10.5629V6.15062H17.6344L14.3604 3.03124L11.0864 6.15062H6.45545ZM14.3604 18.7034C12.9627 18.7034 11.6223 18.1744 10.634 17.2328C9.64567 16.2911 9.09044 15.014 9.09044 13.6823C9.09044 12.3506 9.64567 11.0735 10.634 10.1318C11.6223 9.19019 12.9627 8.66118 14.3604 8.66118C15.7581 8.66118 17.0985 9.19019 18.0869 10.1318C19.0752 11.0735 19.6304 12.3506 19.6304 13.6823C19.6304 15.014 19.0752 16.2911 18.0869 17.2328C17.0985 18.1744 15.7581 18.7034 14.3604 18.7034ZM14.3604 16.1929C15.0593 16.1929 15.7295 15.9284 16.2236 15.4575C16.7178 14.9867 16.9954 14.3482 16.9954 13.6823C16.9954 13.0165 16.7178 12.3779 16.2236 11.9071C15.7295 11.4363 15.0593 11.1717 14.3604 11.1717C13.6616 11.1717 12.9914 11.4363 12.4972 11.9071C12.003 12.3779 11.7254 13.0165 11.7254 13.6823C11.7254 14.3482 12.003 14.9867 12.4972 15.4575C12.9914 15.9284 13.6616 16.1929 14.3604 16.1929Z" />
</symbol><symbol viewBox="0 0 27 31" id="icon-shedule">
<path d="M13.9771 12.1809C10.8435 12.1809 7.78632 12.1809 4.71094 12.1809C4.71094 12.9709 4.71094 13.6887 4.71094 14.493C7.85183 14.493 10.909 14.493 13.9771 14.493C13.9771 13.6742 13.9771 12.9204 13.9771 12.1809Z" />
<path d="M4.71094 19.2833C6.88736 19.2833 8.98372 19.2833 11.0655 19.2833C11.0655 18.4754 11.0655 17.7648 11.0655 17.0361C8.92185 17.0361 6.82185 17.0361 4.71094 17.0361C4.71094 17.8261 4.71094 18.5403 4.71094 19.2833Z" />
<path d="M26.4588 20.9063C25.8838 18.3562 24.2096 16.4156 22.0077 15.4705C22.0077 12.7832 22.0041 10.0924 21.9895 7.40512C21.9859 7.04081 21.7893 6.58632 21.5309 6.323C19.6275 4.38601 17.6731 2.49952 15.766 0.566132C15.3401 0.136892 14.907 -0.00378385 14.3247 -0.000176787C10.536 0.0214656 6.74361 0.0106444 2.95124 0.0106444C0.927671 0.0106444 0.00687463 0.916017 0.00323512 2.92154C-0.0040439 6.37711 0.00323512 9.83267 0.00323512 13.2846C0.00323512 16.8304 -0.0040439 20.3761 0.00687463 23.9182C0.0105141 25.6172 0.960426 26.6596 2.57637 26.6668C5.88104 26.6776 9.18572 26.6776 12.4904 26.674C13.9535 28.8671 16.4975 30.2126 19.3581 30.0683C22.6737 29.9024 25.5344 27.5758 26.3715 24.3799C26.4807 23.9651 26.4843 23.5323 26.6481 23.1355C26.6481 22.7027 26.6481 22.2698 26.6481 21.837C26.5025 21.5448 26.528 21.2166 26.4588 20.9063ZM14.7433 3.27143C16.0571 4.56636 17.3892 5.88294 18.7467 7.21755C17.4365 7.21755 16.1153 7.21755 14.7433 7.21755C14.7433 5.84326 14.7433 4.51586 14.7433 3.27143ZM2.53269 24.1347C2.53269 16.9638 2.53269 9.77496 2.53269 2.50673C5.72091 2.50673 8.90912 2.50673 12.2356 2.50673C12.2356 3.83774 12.2356 5.1471 12.2356 6.45646C12.2356 8.91648 13.0218 9.70282 15.4784 9.70282C16.8105 9.70282 18.1389 9.70282 19.562 9.70282C19.562 11.4378 19.562 13.1548 19.562 14.8681C18.9724 14.8176 18.3646 14.8248 17.7458 14.9078C13.7497 15.438 10.7507 19.2904 11.2348 23.2726C11.2712 23.5684 11.3257 23.8533 11.3913 24.1347C8.45054 24.1347 5.50253 24.1347 2.53269 24.1347ZM21.48 24.2898C20.9486 24.2934 20.4136 24.2898 19.8822 24.2898C19.8822 24.2898 19.8822 24.2934 19.8822 24.297C19.3509 24.297 18.8159 24.3042 18.2845 24.297C17.6003 24.2862 17.1271 23.8136 17.1199 23.1319C17.1126 22.158 17.1126 21.1877 17.1199 20.2138C17.1271 19.5573 17.6148 19.0667 18.2554 19.0451C18.8668 19.0271 19.4127 19.5321 19.4419 20.1741C19.4637 20.6791 19.4564 21.1841 19.4419 21.6855C19.4346 21.9163 19.5001 21.9993 19.7439 21.9921C20.3263 21.974 20.9049 21.9813 21.4873 21.9849C22.1933 21.9885 22.7174 22.4862 22.7174 23.1391C22.7138 23.792 22.1897 24.2826 21.48 24.2898Z" />
</symbol><symbol viewBox="0 0 20 20" id="icon-show">
<path d="M14.9019 16.0809C13.4362 17.0105 11.7358 17.5028 10.0002 17.5001C5.50687 17.5001 1.76854 14.2667 0.984375 10.0001C1.34273 8.05899 2.31907 6.2858 3.76771 4.94506L1.16021 2.34006L2.33937 1.16089L18.8385 17.6609L17.6594 18.8392L14.901 16.0809H14.9019ZM4.94604 6.12505C3.81355 7.15471 3.02464 8.50737 2.68604 10.0001C2.94629 11.1388 3.46876 12.201 4.21188 13.1022C4.95499 14.0034 5.89823 14.7187 6.9665 15.1911C8.03477 15.6636 9.19858 15.8801 10.3653 15.8235C11.532 15.7669 12.6694 15.4387 13.6869 14.8651L11.9969 13.1751C11.2774 13.6282 10.4254 13.8235 9.58041 13.7288C8.73544 13.634 7.94774 13.255 7.34652 12.6537C6.74529 12.0525 6.36623 11.2648 6.27151 10.4199C6.17679 9.57489 6.37203 8.72281 6.82521 8.00339L4.94604 6.12505ZM10.7619 11.9401L8.06021 9.23839C7.91193 9.61584 7.87703 10.0284 7.9598 10.4253C8.04256 10.8223 8.23939 11.1865 8.52614 11.4733C8.81289 11.76 9.1771 11.9569 9.57409 12.0396C9.97108 12.1224 10.3836 12.0875 10.761 11.9392L10.7619 11.9401ZM17.3394 13.8267L16.1469 12.6351C16.7039 11.8411 17.1005 10.946 17.3144 10.0001C17.0879 9.00816 16.6621 8.07268 16.0628 7.25047C15.4636 6.42826 14.7034 5.73649 13.8284 5.21723C12.9535 4.69796 11.9821 4.36203 10.9733 4.22986C9.96452 4.09769 8.93938 4.17204 7.96021 4.44839L6.64521 3.13339C7.68437 2.72506 8.81687 2.50006 10.0002 2.50006C14.4935 2.50006 18.2319 5.73339 19.016 10.0001C18.7607 11.3881 18.1868 12.698 17.3394 13.8267ZM9.76937 6.25672C10.2998 6.22394 10.8311 6.30428 11.3282 6.4924C11.8252 6.68053 12.2765 6.97215 12.6523 7.34793C13.0281 7.72371 13.3197 8.17508 13.5079 8.6721C13.696 9.16913 13.7763 9.70046 13.7435 10.2309L9.76854 6.25672H9.76937Z" />
</symbol><symbol viewBox="0 0 13 14" id="icon-write">
<path d="M7.14531 3.14307L10.1501 6.32532L3.13756 13.7496H0.132812V10.5673L7.14531 3.14307ZM8.1469 2.08257L9.64927 0.491074C9.7821 0.350471 9.96224 0.271484 10.1501 0.271484C10.3379 0.271484 10.518 0.350471 10.6509 0.491074L12.6547 2.61282C12.7875 2.75347 12.8621 2.9442 12.8621 3.14307C12.8621 3.34195 12.7875 3.53268 12.6547 3.67332L11.1516 5.26407L8.1469 2.08257Z" />
</symbol></defs><use id="icon-arrow-accent-usage" xlink:href="#icon-arrow-accent" class="sprite-symbol-usage" /><use id="icon-arrow-left-usage" xlink:href="#icon-arrow-left" class="sprite-symbol-usage" /><use id="icon-arrow-right-usage" xlink:href="#icon-arrow-right" class="sprite-symbol-usage" /><use id="icon-bell-usage" xlink:href="#icon-bell" class="sprite-symbol-usage" /><use id="icon-camera-usage" xlink:href="#icon-camera" class="sprite-symbol-usage" /><use id="icon-change-usage" xlink:href="#icon-change" class="sprite-symbol-usage" /><use id="icon-chart-usage" xlink:href="#icon-chart" class="sprite-symbol-usage" /><use id="icon-delete-usage" xlink:href="#icon-delete" class="sprite-symbol-usage" /><use id="icon-dots-usage" xlink:href="#icon-dots" class="sprite-symbol-usage" /><use id="icon-eye-usage" xlink:href="#icon-eye" class="sprite-symbol-usage" /><use id="icon-filter-usage" xlink:href="#icon-filter" class="sprite-symbol-usage" /><use id="icon-less-usage" xlink:href="#icon-less" class="sprite-symbol-usage" /><use id="icon-mail-usage" xlink:href="#icon-mail" class="sprite-symbol-usage" /><use id="icon-minus-usage" xlink:href="#icon-minus" class="sprite-symbol-usage" /><use id="icon-more-usage" xlink:href="#icon-more" class="sprite-symbol-usage" /><use id="icon-pdf-usage" xlink:href="#icon-pdf" class="sprite-symbol-usage" /><use id="icon-pen-usage" xlink:href="#icon-pen" class="sprite-symbol-usage" /><use id="icon-plus-usage" xlink:href="#icon-plus" class="sprite-symbol-usage" /><use id="icon-save-usage" xlink:href="#icon-save" class="sprite-symbol-usage" /><use id="icon-scale-plus-usage" xlink:href="#icon-scale-plus" class="sprite-symbol-usage" /><use id="icon-search-usage" xlink:href="#icon-search" class="sprite-symbol-usage" /><use id="icon-setting-usage" xlink:href="#icon-setting" class="sprite-symbol-usage" /><use id="icon-shedule-usage" xlink:href="#icon-shedule" class="sprite-symbol-usage" /><use id="icon-show-usage" xlink:href="#icon-show" class="sprite-symbol-usage" /><use id="icon-write-usage" xlink:href="#icon-write" class="sprite-symbol-usage" /></svg>