<svg width="11" height="10" viewBox="0 0 11 10" fill="none" xmlns="http://www.w3.org/2000/svg">
<path fill-rule="evenodd" clip-rule="evenodd" d="M10.4453 0.132621C10.7863 0.367752 10.8721 0.834805 10.637 1.17581L5.70608 8.32706L5.70607 8.32708C4.83226 9.59429 2.97083 9.61859 2.06445 8.37436L2.06445 8.37436L0.143841 5.7378C-0.100046 5.403 -0.0263454 4.93388 0.308456 4.68999C0.643258 4.4461 1.11238 4.51981 1.35626 4.85461L3.27687 7.49116C3.27687 7.49116 3.27687 7.49116 3.27687 7.49116C3.57443 7.89963 4.18415 7.89182 4.47118 7.47558C4.47118 7.47557 4.47119 7.47557 4.47119 7.47556L9.40212 0.324326C9.63725 -0.0166817 10.1043 -0.102511 10.4453 0.132621Z" fill="white"/>
</svg>
