<svg width="12" height="12" viewBox="0 0 12 12" fill="none" xmlns="http://www.w3.org/2000/svg">
<path d="M10.2424 1.75714C9.40328 0.918091 8.33419 0.346708 7.17032 0.115246C6.00645 -0.116215 4.80008 0.00264034 3.70376 0.456784C2.60744 0.910928 1.6704 1.67996 1.01114 2.66664C0.351878 3.65332 0 4.81334 0 6C0 7.18666 0.351878 8.34667 1.01114 9.33335C1.6704 10.32 2.60744 11.0891 3.70376 11.5432C4.80008 11.9974 6.00645 12.1162 7.17032 11.8848C8.33419 11.6533 9.40328 11.0819 10.2424 10.2429C10.7996 9.68569 11.2417 9.02423 11.5432 8.29624C11.8448 7.56825 12 6.78798 12 6C12 5.21202 11.8448 4.43175 11.5432 3.70376C11.2417 2.97577 10.7996 2.3143 10.2424 1.75714ZM8.14242 7.51714C8.18524 7.55723 8.21938 7.60568 8.24271 7.6595C8.26605 7.71331 8.27809 7.77134 8.27809 7.83C8.27809 7.88866 8.26605 7.94669 8.24271 8.0005C8.21938 8.05432 8.18524 8.10277 8.14242 8.14286C8.10238 8.18258 8.05489 8.214 8.00267 8.23533C7.95045 8.25666 7.89454 8.26747 7.83814 8.26714C7.72571 8.26667 7.61796 8.22203 7.53814 8.14286L5.99957 6.60429L4.48242 8.14286C4.4026 8.22203 4.29486 8.26667 4.18242 8.26714C4.12602 8.26747 4.07011 8.25666 4.01789 8.23533C3.96568 8.214 3.91818 8.18258 3.87814 8.14286C3.79832 8.06256 3.75351 7.95394 3.75351 7.84071C3.75351 7.72749 3.79832 7.61887 3.87814 7.53857L5.39528 6L3.87814 4.48286C3.80793 4.40087 3.77124 4.29541 3.77541 4.18755C3.77957 4.07969 3.82429 3.97737 3.90061 3.90105C3.97694 3.82472 4.07925 3.78 4.18712 3.77584C4.29498 3.77167 4.40044 3.80836 4.48242 3.87857L5.99957 5.39571L7.51671 3.87857C7.55639 3.83749 7.60377 3.80462 7.65615 3.78185C7.70853 3.75907 7.76488 3.74684 7.82199 3.74584C7.8791 3.74485 7.93584 3.75511 7.98899 3.77605C8.04213 3.79698 8.09062 3.82818 8.13171 3.86786C8.1728 3.90754 8.20566 3.95492 8.22844 4.0073C8.25121 4.05968 8.26344 4.11603 8.26444 4.17314C8.26543 4.23025 8.25517 4.28699 8.23423 4.34013C8.2133 4.39327 8.1821 4.44177 8.14242 4.48286L6.60385 6L8.14242 7.51714Z" fill="#FF596D"/>
</svg>
