<svg width="40" height="28" viewBox="0 0 40 28" fill="none" xmlns="http://www.w3.org/2000/svg">
<path d="M39.7401 0.465912C39.7401 9.47439 39.7401 18.4837 39.7401 27.4922C26.6542 27.4913 13.5676 27.4913 0.4817 27.4905C0.477856 27.4508 0.470936 27.4103 0.470936 27.3706C0.469398 18.5129 0.471704 9.65518 0.46094 0.797487C0.460171 0.426998 0.645475 0.468344 0.86538 0.468344C5.24887 0.469965 9.63236 0.469965 14.0151 0.469155C22.5906 0.468344 31.1653 0.467533 39.7401 0.465912ZM35.3489 13.973C35.2759 13.8092 35.1398 13.7541 35.0268 13.6771C30.1243 10.3653 25.2202 7.05608 20.3231 3.73627C20.0663 3.56197 19.9025 3.61953 19.6788 3.77599C15.6105 6.61263 11.5377 9.44277 7.46637 12.2737C6.67748 12.8218 5.89321 13.3771 5.10047 13.9203C4.89748 14.0589 4.83597 14.1643 5.09201 14.2997C5.15968 14.3361 5.22119 14.3872 5.28578 14.4302C10.1414 17.6941 14.9985 20.9555 19.8487 24.2291C20.1301 24.4188 20.3223 24.4115 20.5968 24.2202C23.4502 22.2291 26.3136 20.2534 29.1739 18.2729C31.1269 16.9207 33.0791 15.5668 35.0314 14.2129C35.1352 14.1408 35.2351 14.0597 35.3489 13.973Z" fill="#17A04A"/>
<path d="M39.7357 0.465777C31.161 0.467398 22.5862 0.468209 14.0107 0.46902C9.62796 0.469831 5.24447 0.469831 0.860982 0.468209C0.641077 0.468209 0.455773 0.426864 0.456542 0.797353C0.467306 9.65505 0.465 18.5127 0.465768 27.3704C0.465768 27.4102 0.472688 27.4507 0.476533 27.4904C0.47192 27.518 0.468075 27.5447 0.463462 27.5723C0.302762 27.4831 0.391954 27.3275 0.391185 27.2099C0.387341 20.8273 0.387341 14.4438 0.387341 8.06121C0.387341 5.60236 0.391954 3.1427 0.380421 0.683855C0.379652 0.421189 0.449622 0.379843 0.678753 0.379843C13.6085 0.386329 26.5383 0.384707 39.4674 0.393625C39.5458 0.393625 39.6934 0.264724 39.7357 0.465777Z" fill="#FEFEFE"/>
<path d="M0.46875 27.5737C0.473363 27.546 0.477208 27.5191 0.481821 27.4913C13.5677 27.4922 26.6543 27.4922 39.7402 27.493C39.671 27.6609 39.5326 27.5688 39.4334 27.5688C37.8864 27.5761 36.3402 27.5737 34.7931 27.5737C23.3519 27.5737 11.91 27.5737 0.46875 27.5737Z" fill="#88AB56"/>
<path d="M35.3479 13.973C35.2341 14.0589 35.1341 14.1408 35.0296 14.2129C33.0773 15.5668 31.1251 16.9199 29.1721 18.2729C26.3118 20.2534 23.4492 22.2291 20.595 24.2202C20.3205 24.4115 20.1283 24.4188 19.8469 24.2291C14.9967 20.9555 10.1396 17.6941 5.28396 14.4302C5.21937 14.3864 5.15863 14.3353 5.0902 14.2997C4.83493 14.1635 4.89644 14.0589 5.09866 13.9203C5.89216 13.3771 6.67644 12.8218 7.46533 12.2737C11.5366 9.44197 15.6095 6.61264 19.6777 3.776C19.9015 3.61954 20.0653 3.56198 20.3221 3.73628C25.2192 7.0569 30.124 10.3654 35.0257 13.6771C35.1387 13.7541 35.2748 13.8092 35.3479 13.973ZM26.1273 15.2304C26.3149 14.3921 26.2941 13.549 26.1211 12.7172C25.4076 9.29605 22.4358 7.11203 19.1341 7.6706C16.9766 8.03541 15.4088 9.31307 14.5092 11.4412C14.1255 12.2794 13.9764 13.1679 13.9856 14.0921C13.9502 14.444 14.004 14.7942 14.0732 15.1306C14.6361 17.8505 16.1977 19.6089 18.7651 20.2802C21.1825 20.9125 23.6691 19.8578 25.1469 17.6827C25.6382 16.9385 25.985 16.1294 26.1273 15.2304Z" fill="#FFDF30"/>
<path d="M25.1413 17.6827C23.6635 19.8578 21.1769 20.9133 18.7595 20.2802C16.1921 19.6089 14.6313 17.8505 14.0677 15.1306C13.9977 14.7942 13.9446 14.444 13.98 14.0921C15.8023 13.5028 17.64 13.4468 19.4922 13.9186C21.7797 14.5007 23.6405 15.7938 25.1413 17.6827Z" fill="#2C51B2"/>
<path d="M14.5078 11.4412C15.4074 9.31307 16.9752 8.03541 19.1327 7.6706C22.4336 7.11203 25.4062 9.29605 26.1197 12.7172C26.2935 13.5498 26.3135 14.3921 26.1259 15.2304C23.4847 12.4505 20.2922 11.1193 16.5615 11.202C15.8703 11.2182 15.1914 11.3536 14.5078 11.4412Z" fill="#2C51B3"/>
<path d="M14.5084 11.4412C15.1919 11.3536 15.8717 11.2182 16.5621 11.2028C20.2928 11.1193 23.4853 12.4505 26.1264 15.2312C25.9842 16.1302 25.6374 16.9385 25.1461 17.6835C23.6452 15.7946 21.7845 14.5015 19.497 13.9195C17.6447 13.4476 15.8071 13.5036 13.9848 14.093C13.9756 13.1688 14.1239 12.2794 14.5084 11.4412Z" fill="#EEEEEE"/>
</svg>
