<svg width="40" height="28" viewBox="0 0 40 28" fill="none" xmlns="http://www.w3.org/2000/svg">
<g clip-path="url(#clip0_11853_50596)">
<path d="M39.3659 0H16.9141V3.40493H39.3659V0Z" fill="#F0F0F0"/>
<path d="M39.3659 3.40494H16.9141V6.80987H39.3659V3.40494Z" fill="#DB001E"/>
<path d="M39.3659 6.80986H16.9141V10.2148H39.3659V6.80986Z" fill="#F0F0F0"/>
<path d="M39.3659 10.2148H16.9141V13.6197H39.3659V10.2148Z" fill="#DB001E"/>
<path d="M39.3676 13.6197H0V17.0247H39.3676V13.6197Z" fill="#F0F0F0"/>
<path d="M39.3676 17.0247H0V20.4296H39.3676V17.0247Z" fill="#DB001E"/>
<path d="M39.3676 20.4296H0V23.8345H39.3676V20.4296Z" fill="#F0F0F0"/>
<path d="M39.3676 23.8345H0V27.2395H39.3676V23.8345Z" fill="#DB001E"/>
<path d="M19.6838 0H0V14.7283H19.6838V0Z" fill="#2C4FB5"/>
<path d="M3.36009 2.21698L3.79067 3.1276L4.76717 3.27013L4.05978 3.98279L4.22894 4.98052L3.36009 4.50541L2.48354 4.98052L2.6527 3.98279L1.94531 3.27013L2.92181 3.1276L3.36009 2.21698Z" fill="white"/>
<path d="M7.66477 2.21698L8.09536 3.1276L9.07186 3.27013L8.36447 3.98279L8.53363 4.98052L7.66477 4.50541L6.78823 4.98052L6.95739 3.98279L6.25 3.27013L7.2265 3.1276L7.66477 2.21698Z" fill="white"/>
<path d="M11.9695 2.21698L12.4 3.1276L13.3765 3.27013L12.6692 3.98279L12.8383 4.98052L11.9695 4.50541L11.0929 4.98052L11.2621 3.98279L10.5547 3.27013L11.5312 3.1276L11.9695 2.21698Z" fill="white"/>
<path d="M16.3523 2.21698L16.7829 3.1276L17.7594 3.27013L17.052 3.98279L17.2211 4.98052L16.3523 4.50541L15.4757 4.98052L15.6449 3.98279L14.9375 3.27013L15.914 3.1276L16.3523 2.21698Z" fill="white"/>
<path d="M3.36009 5.78026L3.79067 6.69088L4.76717 6.83341L4.05978 7.54607L4.22894 8.5438L3.36009 8.06869L2.48354 8.5438L2.6527 7.54607L1.94531 6.83341L2.92181 6.69088L3.36009 5.78026Z" fill="white"/>
<path d="M7.66477 5.78026L8.09536 6.69088L9.07186 6.83341L8.36447 7.54607L8.53363 8.5438L7.66477 8.06869L6.78823 8.5438L6.95739 7.54607L6.25 6.83341L7.2265 6.69088L7.66477 5.78026Z" fill="white"/>
<path d="M11.9695 5.78026L12.4 6.69088L13.3765 6.83341L12.6692 7.54607L12.8383 8.5438L11.9695 8.06869L11.0929 8.5438L11.2621 7.54607L10.5547 6.83341L11.5312 6.69088L11.9695 5.78026Z" fill="white"/>
<path d="M16.3523 5.78026L16.7829 6.69088L17.7594 6.83341L17.052 7.54607L17.2211 8.5438L16.3523 8.06869L15.4757 8.5438L15.6449 7.54607L14.9375 6.83341L15.914 6.69088L16.3523 5.78026Z" fill="white"/>
<path d="M3.36009 9.42326L3.79067 10.3339L4.76717 10.4764L4.05978 11.1891L4.22894 12.1868L3.36009 11.7117L2.48354 12.1868L2.6527 11.1891L1.94531 10.4764L2.92181 10.3339L3.36009 9.42326Z" fill="white"/>
<path d="M7.66477 9.42326L8.09536 10.3339L9.07186 10.4764L8.36447 11.1891L8.53363 12.1868L7.66477 11.7117L6.78823 12.1868L6.95739 11.1891L6.25 10.4764L7.2265 10.3339L7.66477 9.42326Z" fill="white"/>
<path d="M11.9695 9.42326L12.4 10.3339L13.3765 10.4764L12.6692 11.1891L12.8383 12.1868L11.9695 11.7117L11.0929 12.1868L11.2621 11.1891L10.5547 10.4764L11.5312 10.3339L11.9695 9.42326Z" fill="white"/>
<path d="M16.3523 9.42326L16.7829 10.3339L17.7594 10.4764L17.052 11.1891L17.2211 12.1868L16.3523 11.7117L15.4757 12.1868L15.6449 11.1891L14.9375 10.4764L15.914 10.3339L16.3523 9.42326Z" fill="white"/>
</g>
<defs>
<clipPath id="clip0_11853_50596">
<rect width="39.3676" height="27.2395" fill="white"/>
</clipPath>
</defs>
</svg>
